<?xml version="1.0" standalone="no"?>
<!DOCTYPE svg PUBLIC "-//W3C//DTD SVG 1.1//EN" "http://www.w3.org/Graphics/SVG/1.1/DTD/svg11.dtd" >
<svg xmlns="http://www.w3.org/2000/svg" xmlns:xlink="http://www.w3.org/1999/xlink" version="1.1">
<metadata>
Created by FontForge 20170731 at Thu Mar 15 05:43:54 2018
 By Aleksey,,,
Copyright (c) 2018 by Octotype. All rights reserved.
</metadata>
<defs>
<font id="AnotherdayinParadise" horiz-adv-x="792" >
  <font-face 
    font-family="Another day in Paradise"
    font-weight="400"
    font-stretch="normal"
    units-per-em="1000"
    panose-1="0 0 0 0 0 0 0 0 0 0"
    ascent="750"
    descent="-250"
    x-height="299"
    cap-height="632"
    bbox="-291.125 -416.562 1221.53 785.133"
    underline-thickness="50"
    underline-position="-150"
    unicode-range="U+000D-2212"
  />
<missing-glyph horiz-adv-x="193" 
 />
    <glyph glyph-name=".notdef" horiz-adv-x="193" 
 />
    <glyph glyph-name=".null" horiz-adv-x="0" 
 />
    <glyph glyph-name="nonmarkingreturn" unicode="&#xd;" horiz-adv-x="193" 
 />
    <glyph glyph-name="NULL" horiz-adv-x="0" 
 />
    <glyph glyph-name="NULL" horiz-adv-x="0" 
 />
    <glyph glyph-name="space" unicode=" " horiz-adv-x="193" 
 />
    <glyph glyph-name="quotesingle" unicode="'" horiz-adv-x="197" 
d="M228 404q4 29 3 48.5t1 39.5q2 19 15 33t29 14t25 -14t7 -33q-1 -10 -14 -28t-28 -34t-27 -25t-11 -1z" />
    <glyph glyph-name="plus" unicode="+" horiz-adv-x="313" 
d="M125 189q1 13 0.5 21t-1.5 13t-2 8.5t-1 8.5q1 9 17 10t29 0q10 -1 19 -5t15.5 -12t9.5 -22t1 -35l-3 -22l-2 -8q4 0 9 -0.5t13 -1.5q14 0 21 2.5t11.5 6t7.5 6.5t10 3q8 0 14 -10.5t6 -27.5q0 -10 -2.5 -22t-10 -22.5t-21 -17.5t-35.5 -7h-19.5t-20.5 2l-2 -10l-3 -15
q-1 -14 1 -21.5t5 -11.5t5 -7.5t2 -10.5q-1 -8 -11.5 -13.5t-27.5 -3.5q-10 1 -21.5 4.5t-21.5 12t-16 22.5t-4 36q1 7 1.5 14t2.5 15q-6 1 -11.5 1.5t-10.5 0.5q-13 0 -21 -1.5t-13 -3t-8.5 -3t-7.5 -1.5q-9 0 -11.5 16t-2.5 29q0 10 3 19t10.5 16t21 11.5t34.5 4.5h10.5
t11.5 -1l14 -2q4 19 6 35z" />
    <glyph glyph-name="comma" unicode="," horiz-adv-x="113" 
d="M17 -123q4 29 3 48.5t1 39.5q2 19 15 33t29 14t25 -14t7 -33q-1 -10 -14 -28t-28 -34t-27 -25t-11 -1z" />
    <glyph glyph-name="hyphen" unicode="-" horiz-adv-x="382" 
d="M145 70q-13 0 -21 -1.5t-13 -3t-8.5 -3t-7.5 -1.5q-9 0 -11.5 16t-2.5 29q0 10 3 19t10.5 16t21 11.5t34.5 4.5h10.5t11.5 -1q42 -4 60 -6t26.5 -2.5t14.5 -1t23 -2.5q14 0 21 2.5t11.5 6t7.5 6.5t10 3q8 0 14 -10.5t6 -27.5q0 -10 -2.5 -22t-10 -22.5t-21 -17.5
t-35.5 -7q-18 0 -39 2t-41.5 5t-39.5 5.5t-32 2.5z" />
    <glyph glyph-name="period" unicode="." horiz-adv-x="112" 
d="M50 -82q-15 0 -24.5 13.5t-7.5 33.5q2 19 15 33t29 14t25 -14t7 -33q-2 -20 -15 -33.5t-29 -13.5z" />
    <glyph glyph-name="zero" unicode="0" horiz-adv-x="615" 
d="M416 516q22 3 48.5 0.5t51.5 -14t46 -33t32.5 -56t11.5 -83.5t-17 -115q-6 -24 -13 -45t-15 -40q-26 -62 -55.5 -100t-56.5 -60q-14 -11 -47.5 -29t-82.5 -23h-3q-36 -3 -77 1.5t-80 21t-71.5 46t-50.5 77t-18 114t27 157.5q20 68 46.5 119t56 88.5t60.5 62.5t61 41
q70 37 144 40q36 1 66 -6q26 -7 48.5 -23t27.5 -49q1 -6 1 -12v-11.5t-2 -12.5q-10 -43 -55 -52q-17 -3 -29.5 0t-21 9t-14 14.5t-8.5 16.5q-1 2 -1 5q0 5 1 8q1 2 6 2q2 0 3 -1q19 -8 27.5 -4.5t10.5 22.5q0 3 -1 10t-6 15t-15.5 14t-29.5 8q-23 2 -57.5 -9t-73 -47
t-77.5 -102t-72 -174q-23 -83 -19 -152q1 -29 9 -58.5t25 -54t44.5 -43t69.5 -25.5q31 -4 57 2.5t46 17.5t33.5 23.5t20.5 21.5q33 42 54.5 105t32.5 141q5 36 4.5 63.5t-4.5 47.5t-11.5 33t-15.5 21q-19 18 -48 18q-28 -2 -37 -16t-9 -31q0 -19 8 -43q0 -1 1 -3q0 -5 -1 -5
q-2 -2 -4 -1.5t-4 0.5q-3 0 -4 1q-17 6 -35.5 22.5t-22.5 49.5q-1 17 7 32q7 13 24.5 25t52.5 17z" />
    <glyph glyph-name="one" unicode="1" horiz-adv-x="261" 
d="M253 621q5 -28 1.5 -69.5t-17.5 -101.5q-11 -47 -24 -95.5t-25.5 -94.5t-23.5 -88t-19 -76q-8 -32 -8 -55.5t19 -28.5q8 -2 13.5 -1t9.5 3t7.5 3.5t7.5 0.5q5 -2 7 -5.5t3 -7.5q0 -4 -1 -9q-10 -41 -30 -56.5t-40 -18.5q-24 -4 -51 5q-32 11 -42.5 39.5t-9.5 58.5
q1 35 12 77q9 39 26.5 98t37 124t36.5 128t24 110q-13 -15 -27 -28t-28 -22.5t-28 -14t-26 -1.5q-16 3 -26 12.5t-14.5 20t-4 19.5t5.5 12q4 2 7.5 1.5t8 -1t10 0.5t14.5 7q20 14 41 37t56 63q7 7 19 14t26 5q9 0 17 -4q7 -3 14 -10t12 -18l3 -6q2 -5 3.5 -12t3.5 -15z" />
    <glyph glyph-name="two" unicode="2" horiz-adv-x="504" 
d="M376 33q7 1 14 -3q5 -3 11 -10.5t8 -22.5t-6 -30.5t-32.5 -28.5t-69.5 -20t-117 -4l-51 3q-9 1 -23 4t-28.5 9t-27.5 16.5t-20 26.5q-6 15 -6.5 29.5t2 27t7 21.5t7.5 14q8 11 13 17.5t7 8.5q21 29 55.5 64.5t73.5 76t78 86t71 94.5q9 14 16 30t13 30.5t9.5 26t5.5 17.5
q5 18 8 36t4 36q1 4 1 8v9t-1 12t-4.5 12t-9.5 8t-16 1q-13 -3 -39 -25t-51.5 -58.5t-43.5 -85t-16 -105.5q0 -23 35 -9h3q4 0 5 -2q2 -5 1 -8t-2 -4q-4 -8 -10 -16.5t-15 -14.5t-22 -9t-30 0q-25 5 -38 26.5t-11 53.5q2 34 11 71q8 32 23 69.5t43 75.5q29 39 65 61t70.5 29
t63.5 1t45 -23q14 -13 21 -35q8 -22 8.5 -45t-3.5 -47q0 -2 -3 -20.5t-9 -40.5q-8 -27 -30 -69t-60 -91q-34 -44 -77 -90t-84.5 -88.5t-76.5 -80t-54 -65.5q30 -6 62.5 -6t63 3t56 7.5t40.5 6.5q11 2 21 5q8 2 16 5t11 7q4 5 7.5 8t11.5 4z" />
    <glyph glyph-name="three" unicode="3" horiz-adv-x="546" 
d="M497 665q14 -13 21 -35q13 -42 5 -92q0 -2 -3 -20.5t-9 -40.5q-3 -11 -11 -28t-19 -37t-24 -41t-26 -40q21 -27 38.5 -53.5t16.5 -65.5q0 -26 -5 -49t-13 -43q-17 -43 -39 -68.5t-36 -38.5l-9 -9l-3 -3q-39 -32 -77.5 -48.5t-70.5 -24.5q-37 -9 -71 -9q-36 -2 -66 6
q-26 6 -49 22.5t-28 49.5q-1 6 -1 12q0 5 0.5 11t2.5 13q10 43 55 52q17 3 29.5 0t21 -9t14 -14.5t8.5 -16.5q1 -3 1 -5q0 -5 -1 -7q-2 -3 -6 -3q-2 0 -3 1q-35 17 -38 -18q0 -3 1 -10t6 -15t15.5 -14.5t29.5 -7.5q14 -1 33 2t41 13t46 28t48 47q27 32 41 62t20 53
q7 26 8 50q2 21 -10.5 39.5t-23.5 33.5q-1 1 -1 2q-8 11 -10 25q-1 10 0 20q3 14 8.5 26t9.5 19l3 3q0 1 2 3q9 14 18.5 33t18 37.5t14.5 33t8 20.5q9 36 12 72q0 4 0.5 8t0.5 9t-1 12t-4.5 12t-9.5 8t-16 1q-13 -3 -39 -25t-51.5 -58.5t-43.5 -85t-16 -105.5q0 -23 35 -9h3
q4 0 5 -2t0.5 -4t-0.5 -4q-1 -3 -1 -4q-4 -8 -10 -16.5t-15 -14.5t-22 -9t-30 0q-25 5 -38.5 26.5t-11.5 53.5q3 34 12 71q8 32 23 69.5t43 75.5q29 39 65 61t70.5 29t63.5 1t45 -23z" />
    <glyph glyph-name="four" unicode="4" horiz-adv-x="441" 
d="M404 338q6 2 12.5 -0.5t9.5 -9.5t1 -18.5t-12 -26.5q-20 -30 -63 -44q-11 -40 -20.5 -76.5t-16.5 -66.5q-8 -32 -8 -55.5t19 -28.5q8 -2 13.5 -1t9.5 3t7.5 3.5t7.5 0.5q10 -4 10 -13q0 -4 -1 -9q-10 -41 -30 -56.5t-40 -18.5q-24 -4 -51 5q-32 11 -42.5 39.5t-9.5 58.5
q0 35 12 77q11 49 34 124q-42 0 -84.5 6.5t-80.5 14.5q-6 2 -9 2q-8 2 -12 4t-6 2q-14 8 -22 19.5t-11 23.5t-3 23.5t1 19.5q2 9 5.5 16t5.5 9q1 0 1 1q23 30 45 59.5t40.5 56.5t33.5 51t23 43l6 16q2 7 4 13.5t0 11.5q-2 6 -3 11t3 11t10 10q5 3 14.5 4t23.5 -5
q13 -6 22.5 -21.5t7 -43t-20.5 -69.5t-58 -100q-17 -25 -38.5 -47t-45.5 -43q5 -1 11.5 -1.5t13.5 -2.5q43 -11 79.5 -14.5t66.5 -2.5q13 42 25.5 84t22 81t16 72.5t7.5 57.5v17q0 7 -1 14t-4 10q-5 5 -7 9.5t-1 11.5t5 13q4 5 12.5 9t24.5 4q15 -1 29 -12t21.5 -37.5t6 -72
t-18.5 -114.5q-8 -34 -17 -68l-18 -68q9 3 13.5 6.5t7 7t4.5 6t7 4.5z" />
    <glyph glyph-name="five" unicode="5" horiz-adv-x="546" 
d="M523 645q-18 -28 -51 -41t-72.5 -15.5t-82.5 3t-82 14.5q2 -25 -1 -59.5t-14 -82.5q38 -4 84.5 -22t86.5 -49t65 -74.5t21 -99.5q-2 -27 -7.5 -51t-13.5 -44q-17 -43 -38.5 -70.5t-35.5 -40.5l-9 -9l-3 -3q-39 -32 -77.5 -48.5t-70.5 -24.5q-37 -9 -71 -9q-36 -2 -66 6
q-26 6 -49 22.5t-28 49.5q-1 6 -1 12q0 5 0.5 11t2.5 13q10 43 55 52q17 3 29.5 0t21 -9t14 -14.5t8.5 -16.5q1 -3 1 -5q0 -5 -1 -7q-2 -3 -6 -3q-2 0 -3 1q-35 17 -38 -18q0 -3 1 -10t6 -15t15.5 -14.5t29.5 -7.5q14 -1 33 2t41 13t46 28t48 47q28 34 42 67t21 59
q7 31 8 59q2 34 -14 61t-42 46.5t-58 33t-62 22.5q-20 4 -36 9q-17 5 -25.5 14t-12.5 19t-4 18.5t1 13.5q9 36 14.5 66.5t6.5 53.5v6v14q0 5 1.5 16t7.5 22t18 20.5t32 11.5q15 2 23 0q5 -1 9.5 -1.5t9.5 -2.5q81 -21 137.5 -18.5t86.5 8.5q12 2 17 5.5t7.5 7.5t4.5 7t7 5
q6 2 12 -0.5t9 -9.5t1.5 -18t-10.5 -26z" />
    <glyph glyph-name="six" unicode="6" horiz-adv-x="559" 
d="M407 686q36 1 66 -6q26 -7 48.5 -23t27.5 -49q1 -6 1 -12v-11.5t-2 -12.5q-10 -43 -56 -52q-17 -3 -29 0t-20.5 9t-14 14.5t-8.5 16.5q-1 2 -1 5q0 2 -0.5 4t1.5 4q1 2 6 2q2 0 3 -1q19 -8 27.5 -4.5t10.5 22.5q0 3 -1 10t-6 15t-15.5 14t-29.5 8q-22 1 -54.5 -8.5
t-69 -41t-74 -90t-70.5 -154.5q35 47 84.5 63.5t122.5 2.5q37 -7 63.5 -22.5t44.5 -35.5t28 -41.5t15 -40.5q4 -16 6 -36q2 -17 0.5 -42t-9.5 -56q-9 -34 -27 -74t-49 -73.5t-77.5 -54.5t-113.5 -16q-34 3 -67.5 13.5t-63 31.5t-51.5 53t-32.5 77.5t-7 105t25.5 135.5
q20 68 46.5 119t56 88.5t60.5 62.5t61 41q70 37 144 40zM342 346q-72 16 -126 -18t-82 -98q-11 -23 -14.5 -48.5t-3.5 -46.5q0 -5 0.5 -14.5t2.5 -22t5.5 -26t10.5 -24.5h1v-1q13 -20 33.5 -35.5t52.5 -22.5q66 -15 115.5 27t72.5 143q7 33 8.5 58t-2 44.5t-10.5 33.5
t-15 23q-19 22 -49 28z" />
    <glyph glyph-name="seven" unicode="7" horiz-adv-x="489" 
d="M174 -12q7 -6 5 -15q-1 -4 -4 -9q-23 -35 -47 -43.5t-44 -4.5q-24 4 -46 22q-14 10 -20 23t-7 27.5t2 30t8 29.5q12 33 36 68q15 25 42 63.5t59.5 84.5t67.5 95.5t66 96t55.5 86.5t35.5 66q-39 -9 -83.5 -15.5t-85 -4.5t-74 15t-51.5 42q-10 15 -11.5 26t1.5 18t9 9.5
t12 0.5q5 -2 7 -5t5 -7t8 -7.5t17 -5.5q29 -6 85.5 -8.5t137.5 18.5q5 2 10 2.5t10 1.5q9 1 29.5 -0.5t35.5 -14.5q18 -17 22.5 -35t2.5 -35q-5 -27 -21.5 -64.5t-49.5 -88.5q-26 -41 -60.5 -93t-69.5 -104t-66 -98.5t-50 -76.5q-18 -28 -26 -50.5t9 -32.5q7 -5 12 -5.5
t9.5 0t8.5 1t8 -2.5z" />
    <glyph glyph-name="eight" unicode="8" horiz-adv-x="516" 
d="M393 397q24 -11 42 -26t30.5 -32t20 -34.5t11.5 -33.5q5 -16 8 -36q2 -17 0.5 -42t-9.5 -56q-9 -34 -27 -74t-49.5 -73.5t-78.5 -54.5t-114 -16q-5 1 -10.5 1.5t-11.5 1.5q-48 7 -81.5 25t-55 42t-33.5 52t-17.5 54.5t-5 50.5t2.5 40l2 10t2 8q1 4 1 6q13 51 36.5 86
t51.5 58.5t57 36t54 18.5q-18 15 -28.5 33.5t-15 37.5t-4.5 36t2 28q0 5 2 11q1 2 1 4q12 48 38 74.5t52.5 38.5t48 14t26.5 2q8 0 17.5 -1t19.5 -3q23 -4 39.5 -13.5t28 -22t18 -26t9.5 -25.5q3 -10 5 -22q1 -11 0 -26.5t-6 -34.5q-4 -14 -10 -30.5t-15.5 -32t-22.5 -30
t-31 -24.5zM262 548q-8 -32 -6 -59q1 -23 11.5 -44.5t39.5 -27.5q10 0 22.5 3.5t25.5 16t24.5 36.5t19.5 65q5 29 3 48.5t-8.5 32t-15.5 18.5t-17 9q-3 0 -5.5 0.5t-5.5 0.5q-9 -1 -20.5 -4.5t-24 -14t-24 -30t-19.5 -50.5zM402 159q7 33 8.5 58t-2 44.5t-10.5 33.5t-15 23
q-19 22 -49 28q-73 16 -126.5 -18t-81.5 -98q-11 -23 -14.5 -48.5t-4.5 -46.5q0 -5 0.5 -14.5t2.5 -22t6 -26t11 -24.5l1 -1q13 -20 33.5 -37.5t51.5 -25.5q66 -15 116 29.5t73 145.5z" />
    <glyph glyph-name="nine" unicode="9" horiz-adv-x="557" 
d="M325 686q34 -3 67.5 -13.5t63 -31t51.5 -52.5t32.5 -77.5t7 -105.5t-25.5 -136q-20 -68 -46.5 -119t-56 -88.5t-60.5 -62.5t-61 -41q-70 -38 -144 -40q-36 -2 -66 6q-26 6 -49 22.5t-28 49.5q-1 6 -1 12q0 5 0.5 11t2.5 13q10 43 55 52q34 6 50.5 -9t22.5 -31q1 -3 1 -5
q0 -5 -1 -7q-2 -3 -6 -3q-2 0 -3 1q-35 17 -38 -18q0 -3 1 -10t6 -15t15.5 -14.5t29.5 -7.5q22 -2 54.5 8t69 41.5t74 90t70.5 154.5q-35 -47 -84.5 -63.5t-122.5 -2.5q-37 7 -63.5 22.5t-44.5 35.5t-28 41.5t-15 40.5q-4 16 -6 36q-2 17 -0.5 41.5t9.5 56.5q9 34 27 74
t49 74t77.5 54.5t113.5 15.5zM426 375q11 23 14.5 48.5t3.5 46.5q0 4 -0.5 14t-2.5 22.5t-5.5 26t-10.5 24.5h-1v1q-13 20 -34 35.5t-52 22.5q-66 16 -115.5 -26.5t-73.5 -143.5q-15 -65 -6.5 -102.5t25.5 -56.5q19 -22 50 -28q36 -8 68 -3t58.5 21t47 41t34.5 57z" />
    <glyph glyph-name="colon" unicode=":" horiz-adv-x="156" 
d="M49 -67q-15 0 -24.5 13.5t-7.5 33.5q2 19 15 33t29 14t25 -14t7 -33q-2 -20 -15 -33.5t-29 -13.5zM96 186q-15 0 -24.5 13.5t-7.5 33.5q2 19 15 33t29 14t25 -14t7 -33q-2 -20 -15 -33.5t-29 -13.5z" />
    <glyph glyph-name="equal" unicode="=" horiz-adv-x="340" 
d="M79 7q-13 0 -21 -1.5t-13 -3t-8.5 -3t-7.5 -1.5q-9 0 -11.5 16t-2.5 29q0 10 3 19t10.5 16t21 11.5t34.5 4.5h10.5t11.5 -1q42 -4 60 -6t26.5 -2.5t14.5 -1t23 -2.5q14 0 21 2.5t11.5 6t7.5 6.5t10 3q8 0 14 -10.5t6 -27.5q0 -10 -2.5 -22t-10 -22.5t-21 -17.5t-35.5 -7
q-18 0 -39 2t-41.5 5t-39.5 5.5t-32 2.5zM104 141q-13 0 -21 -1.5t-13 -3t-8.5 -3t-7.5 -1.5q-9 0 -11.5 16t-2.5 29q0 10 3 19t10.5 16t21 11.5t34.5 4.5h10.5t11.5 -1q42 -4 60 -6t26.5 -2.5t14.5 -1t23 -2.5q14 0 21 2.5t11.5 6t7.5 6.5t10 3q8 0 14 -10.5t6 -27.5
q0 -10 -2.5 -22t-10 -22.5t-21 -17.5t-35.5 -7q-18 0 -39 2t-41.5 5t-39.5 5.5t-32 2.5z" />
    <glyph glyph-name="A" unicode="A" 
d="M756 632q20 0 34.5 -15t22.5 -33q18 -45 13.5 -94t-15.5 -94q-18 -74 -45.5 -146.5t-46.5 -147.5h16q2 0 6 2q2 2 5 3.5t5 6.5v2l3 2q2 1 5 1q1 0 2 -1q3 -2 6 -7q6 -13 4 -24q-2 -9 -11 -16.5t-33 -9.5h-18q-2 -5 -2.5 -9t-1.5 -9q-2 -8 -4.5 -21t-2.5 -26t5 -23.5
t17 -13.5q11 -2 19.5 3.5t17.5 3.5q9 -3 11 -12q1 -4 0 -10q-8 -44 -38 -67t-78 -8q-26 8 -38.5 26.5t-16 43t0 52t9.5 54.5q2 8 4 15t4 15q-31 9 -58.5 22t-52.5 28q-59 -63 -122.5 -104t-127.5 -43q-87 -2 -140 24.5t-77.5 68t-22.5 90.5t25 92t64.5 73.5t97.5 35.5
q46 4 87.5 -6t79.5 -28t73 -42.5t67 -50.5q45 63 83 129t67 121q33 64 61 126q2 11 14 16.5t23 4.5zM247 34q51 -1 102 34.5t100 91.5q-32 23 -59 42.5t-50 32.5q-39 22 -78.5 27t-72 -5.5t-54 -37t-25.5 -67.5q-5 -47 16 -71.5t48 -34.5q32 -12 73 -12zM682 291
q11 35 23 71.5t20 74.5q-29 -52 -71 -117t-93 -128q19 -15 36.5 -28.5t34.5 -24.5q12 38 25 76t25 76z" />
    <glyph glyph-name="B" unicode="B" horiz-adv-x="602" 
d="M400 632q73 -8 127 -40q23 -14 43.5 -33.5t34.5 -47.5t19 -65t-3 -84q-6 -30 -21 -56q-13 -23 -37.5 -45t-65.5 -33q39 -29 60 -77.5t10 -123.5q-5 -34 -17 -59t-28 -43t-34.5 -29.5t-37.5 -18.5q-44 -17 -96 -15q-52 4 -83.5 25t-48 50t-21.5 61.5t-4 59.5
q-53 19 -87.5 50.5t-54 67.5t-26.5 74t-5 71q3 65 21 113t45 82.5t60.5 56t68.5 34.5q81 30 181 25zM472 47q10 51 -6 82.5t-41.5 50t-53.5 26t-43 9.5q-6 -23 -12.5 -47t-12.5 -48q2 -1 4 -1t4 -1q2 0 3.5 -0.5t3.5 -0.5q23 0 17 33v4q0 2 3 4q3 1 8 -1l4 -2q7 -5 14 -12
t11 -17t3.5 -22.5t-7.5 -27.5q-12 -28 -33 -36.5t-53 -2.5q-1 -6 -1.5 -11.5t-1.5 -10.5q-5 -35 6.5 -54t26.5 -29q18 -11 42 -14q35 -3 57 17t35 45q15 29 23 67zM520 370q16 48 10.5 82.5t-16.5 55.5q-14 29 -37 44.5t-45 23.5q-26 9 -54 10q-77 1 -137 -26
q-26 -12 -50 -30.5t-42.5 -47t-29 -67.5t-8.5 -91q1 -41 10.5 -70.5t24 -50.5t31.5 -34.5t33 -20.5q5 23 11 48t14 53q18 63 30.5 108.5t18 74.5t2.5 42.5t-16 14.5q-5 0 -7 1.5t-4 3.5t-2 5q-2 9 1 14q1 2 2.5 3t3.5 3t4 3q13 8 30 12t37 0q27 -5 36 -27.5t6.5 -56.5
t-12.5 -76t-19 -85l-3 -15q44 -4 75 3.5t51.5 22t32.5 33.5t18 37z" />
    <glyph glyph-name="C" unicode="C" horiz-adv-x="587" 
d="M377 -136q-36 -3 -77 1.5t-80 20.5t-71 45.5t-50 77t-18 114t27 157.5q20 68 46 119t55.5 88.5t60.5 63t61 41.5q69 38 144 40q36 1 66 -7q26 -7 49 -23t28 -49q1 -5 1 -11v-11.5t-2 -13.5q-6 -21 -19 -34t-37 -17q-17 -3 -29 0t-20.5 9t-14 14.5t-8.5 16.5q-1 1 -1 4
q0 2 -0.5 4t1.5 4q1 2 5 2h3q35 -17 38 18q0 3 -0.5 10t-6 14.5t-16 13.5t-29.5 8q-23 2 -57 -9t-72.5 -46.5t-78 -101.5t-72.5 -174q-22 -84 -18 -154q2 -30 10 -59.5t25.5 -54t46.5 -42.5t72 -24q43 -3 86 9q37 11 79.5 37.5t78.5 82.5q8 12 15 20q6 7 12.5 11t11.5 -2
q3 -5 4 -12q1 -6 0 -15t-7 -21q-23 -43 -57 -78q-29 -30 -74.5 -56t-110.5 -31z" />
    <glyph glyph-name="D" unicode="D" horiz-adv-x="711" 
d="M196 58q-53 19 -87 50.5t-53.5 67.5t-27 74t-5.5 71q3 65 21 113t45 82.5t60.5 56t68.5 34.5q81 30 181 25q2 0 31.5 -4t70.5 -17t86 -38t80 -68.5t52 -107.5t1 -154q-16 -92 -44.5 -156t-64 -107t-74 -67t-74 -36t-65 -14t-45.5 -1q-52 4 -83.5 25t-48 50t-21.5 61.5
t-4 59.5zM377 586h-23.5t-51.5 -6.5t-64.5 -21t-63.5 -44t-47.5 -75.5t-16.5 -115q1 -41 10.5 -70.5t24 -50.5t31.5 -34.5t33 -20.5q5 23 11 48t14 53q18 63 30.5 108.5t18 74.5t2.5 42.5t-16 14.5q-5 0 -7 1.5t-4 3.5t-2 5q-1 5 -0.5 8t1.5 6q1 2 2.5 3t3.5 3t4 3
q13 8 30 12t38 0q27 -5 36 -27.5t6.5 -56.5t-12.5 -76t-20 -85l-3 -15l-15 -59q-6 -23 -12.5 -47t-12.5 -48q2 -1 4 -1t4 -1q2 0 4 -0.5t4 -0.5q22 0 16 33v4q0 3 4 4q2 1 7 -1q2 -1 5 -2q7 -5 13.5 -12t10.5 -17t4 -22.5t-7 -27.5q-13 -28 -34 -36.5t-53 -2.5
q-1 -6 -1.5 -11.5t-1.5 -10.5q-4 -30 4 -48.5t20.5 -29t25.5 -14t20 -4.5q3 -1 8 -1h4q9 0 26 2t39 11t47.5 27.5t50.5 52t48.5 84t41.5 123.5q17 68 15.5 120t-15 90.5t-36 65t-49.5 44.5q-62 40 -154 48z" />
    <glyph glyph-name="E" unicode="E" horiz-adv-x="565" 
d="M42 24q-9 50 -2 89.5t24 69.5t42 51t51 36q22 12 42.5 19.5t37.5 12.5q19 5 36 8q-21 2 -42 18.5t-35 43.5q-17 31 -14 80q2 25 10.5 45.5t19.5 36t22.5 26t19.5 16.5q7 6 24.5 17t43.5 21t60 15.5t73 1.5q3 0 11.5 -2t18.5 -6.5t21 -13t19 -21.5q13 -21 12.5 -48.5
t-7.5 -50.5q-1 -3 -4.5 -13t-10.5 -21q-10 -15 -23.5 -29.5t-31.5 -28.5q-30 -20 -58 -27q-29 -8 -49 -1t-32 32q-14 28 -5.5 45.5t20.5 27.5l4 2q4 2 7 1q4 -2 4 -4v-3q-4 -29 16 -29q26 0 46 10.5t33 24.5q15 16 26 36q6 14 7 24.5t-1 18t-5.5 12t-5.5 6.5q-5 4 -14 7
t-22 4q-20 2 -50 -6.5t-65 -36.5q-3 -3 -11 -10.5t-16.5 -19t-14.5 -26.5t-6 -32q0 -16 4.5 -34t15 -34t27 -29t40.5 -19q9 -3 15 -7q5 -4 9.5 -11t3.5 -18q-1 -17 -15 -28.5t-49 -19.5q-58 -16 -100 -43q-18 -12 -34.5 -27t-28.5 -34.5t-17 -43.5t1 -52q5 -24 15.5 -45.5
t28.5 -39.5t43.5 -31t60.5 -18q11 -1 24 -1q11 0 26.5 2t33.5 7q17 5 34 13.5t31 22.5t23.5 34t12.5 47q2 13 0 27q-2 12 -6 25.5t-15 26.5q-16 12 -31 -14l-2 -2q-3 -3 -5 -2q-3 2 -5 5q-1 2 -1 4q-2 8 -3 17t2 18t10 17.5t21 15.5q23 11 44 7q18 -4 36 -25q12 -15 20 -38
t6 -55v-5q-2 -46 -21.5 -84t-53.5 -66q-32 -27 -77 -41.5t-99 -12.5q-36 0 -74 8t-72.5 26.5t-62 49t-42.5 77.5v1z" />
    <glyph glyph-name="F" unicode="F" horiz-adv-x="486" 
d="M290 253q-86 -16 -143.5 1t-89.5 53t-40 83.5t6.5 93.5t49.5 83.5t89 52.5q59 17 115 9.5t109 -27.5t102 -47t94 -49t85.5 -34t75.5 -2q3 1 6 3q6 4 7 11v2q0 2 3 4q1 1 4 1h2l4 -2t4 -4q6 -15 4 -29q-2 -12 -10.5 -24t-31.5 -19q-35 -10 -72 -7.5t-75 12t-75.5 25
t-71.5 30.5q-1 -27 -5.5 -54t-10.5 -53q-3 -13 -6 -25.5t-7 -25.5q20 -3 38.5 -9t32 -17t20.5 -28t6 -41q-1 -12 -4 -22q-2 -8 -6 -14.5t-12 -6.5q-5 0 -10.5 3t-10.5 14q-7 11 -25 27t-49 27q-17 -59 -35 -117t-31 -118q-2 -8 -4 -21t-2 -26t4.5 -23.5t16.5 -13.5
q11 -2 19.5 3.5t18.5 3.5q8 -3 10 -12q1 -4 0 -10q-3 -22 -13.5 -39t-26.5 -27.5t-36.5 -13.5t-44.5 5q-26 8 -38.5 26.5t-16 43t0 52t9.5 54.5q13 60 33 120l40 120q-2 -1 -3 -1t-3 -1zM323 523q-45 12 -85 9.5t-69.5 -19t-44.5 -46.5t-10 -71q3 -22 11 -37t20 -25.5
t26 -16.5t28 -9q33 -7 73 -1q5 1 12 2q5 1 13 2t18 3q16 49 27.5 99t10.5 99q-8 4 -15.5 6.5t-14.5 4.5z" />
    <glyph glyph-name="G" unicode="G" horiz-adv-x="553" 
d="M122 -416q-45 3 -77 16q-14 6 -26 14.5t-19.5 20.5t-9 28.5t6.5 37.5q10 29 43.5 56t81.5 47.5t107.5 32.5t122.5 10q5 12 9.5 23.5t9.5 22.5q-20 -12 -43.5 -20t-51.5 -9q-36 -2 -73 4t-70 23.5t-59.5 47.5t-40 76.5t-11.5 112t25 152.5q18 68 43 119.5t54 89.5t60.5 63
t61.5 41q70 37 148 39q36 1 66 -7q26 -7 49 -23t28 -49q1 -5 1 -11v-11.5t-2 -13.5q-6 -21 -19 -34t-37 -17q-17 -3 -29 0t-20.5 9t-14 14.5t-8.5 16.5q-1 1 -1 4q0 2 -0.5 4t1.5 4q1 2 6 2h3q34 -17 37 18q0 3 -0.5 10t-6 14.5t-16 13.5t-29.5 8q-23 2 -58 -9.5t-74.5 -47
t-78.5 -101.5t-69 -173q-25 -88 -22 -158q1 -30 8.5 -59.5t24 -54t44.5 -41t70 -20.5q24 -2 43 5.5t34 18t24.5 22t14.5 18.5q11 17 18.5 35t12 33.5t7 26t2.5 12.5q12 84 9 132t-12 73q-11 29 -28 38l-6 -6q-7 -5 -13 -3q-5 2 -7 6q-5 8 3 27q8 17 31.5 25.5t52.5 -11.5
q19 -13 32 -33t21.5 -43.5t12.5 -49t6 -50.5q4 -58 -5 -123q-6 -35 -17 -74q-9 -33 -23.5 -75.5t-34.5 -87.5q58 -13 110.5 -42t94.5 -78q3 -4 8.5 -12.5t9 -19.5t4.5 -24.5t-4 -27.5l-5 -10q-17 -26 -37.5 -28.5t-36.5 2.5l-4 2q-5 2 -5 6q-1 3 1 5q1 1 3 2q29 15 18 32
q-6 8 -20.5 23.5t-38.5 33t-58.5 34.5t-79.5 27q-23 -38 -51.5 -71.5t-63.5 -58t-77 -37.5t-91 -10zM264 -231q-59 -6 -106 -19q-20 -6 -39.5 -14t-35 -19t-25.5 -24.5t-11 -30.5q6 -9 18 -15q11 -5 29 -7.5t47 3.5q55 10 97 45t73 83h-23t-24 -2z" />
    <glyph glyph-name="H" unicode="H" horiz-adv-x="788" 
d="M252 -22q-86 -2 -137.5 24.5t-74.5 67.5t-19.5 90t27 92.5t65 74.5t95.5 35q65 5 120.5 -15.5t105.5 -52.5q2 8 3 13q4 15 9 42t9.5 58t7 63t1 58t-8 42t-20.5 15q-23 -2 -32 -23t-11 -44q0 -1 -1 -7t-1.5 -13.5t0 -16t2.5 -14.5v-1q3 -17 25 -13h3q3 0 5 -3q1 -3 -1 -7
q-1 -2 -3 -4q-6 -6 -14.5 -12.5t-19 -10.5t-24.5 -4.5t-30 4.5q-35 13 -38 52q-2 15 4 44.5t23.5 58t49 47.5t81.5 12q26 -4 43.5 -19t29 -37t17 -48.5t7.5 -53.5q4 -64 -8 -142q-9 -52 -24 -98q33 -26 63 -50.5t59 -42.5q11 38 24 76l26 76q10 30 20 61t18 63t13 64t4 63
q0 10 -1 22t-7 20q-5 5 -8 9t-3 12q-1 15 11.5 21.5t26.5 5.5q20 0 34 -15t22 -33q17 -45 12.5 -94t-15.5 -94q-17 -74 -41 -146.5t-44 -147.5h17q2 0 6 2q2 2 5 3.5t5 6.5v2l3 2q1 1 4 1q1 0 2 -1q4 -1 7 -7q6 -13 4 -24q-2 -9 -11 -16.5t-33 -9.5h-19q-1 -5 -1.5 -9
t-2.5 -9q-2 -8 -4 -21t-2 -26t4.5 -23.5t16.5 -13.5q11 -2 19.5 3.5t18.5 3.5q8 -3 10 -12q1 -4 0 -10q-3 -22 -13.5 -39t-26.5 -27.5t-36.5 -13.5t-44.5 5q-26 8 -38.5 26.5t-16 43t0 52t9.5 54.5q2 8 3.5 15t3.5 15q-39 12 -74 30.5t-66 38.5q-35 -65 -74.5 -98.5
t-74.5 -48.5q-40 -18 -81 -19zM117 152q-5 -47 14.5 -71.5t44.5 -34.5q29 -12 68 -12q59 0 96.5 43t64.5 121q-16 11 -30 20.5t-28 16.5q-39 21 -78.5 26t-71.5 -5.5t-54 -36.5t-26 -67z" />
    <glyph glyph-name="I" unicode="I" horiz-adv-x="310" 
d="M79 245q-25 5 -40 26.5t-17 53.5q-1 34 5 71q5 31 17.5 69t36.5 75q25 40 59 62t68 29t64 1t48 -23q15 -13 23 -35q18 -45 13.5 -94t-15.5 -94q-21 -89 -50.5 -176t-48.5 -177q-2 -8 -4 -21t-2 -26t4.5 -23.5t16.5 -13.5q11 -2 19.5 3.5t18.5 3.5q8 -3 10 -12q1 -4 0 -10
q-3 -22 -13.5 -39t-26.5 -27.5t-36.5 -13.5t-44.5 5q-26 8 -38.5 26.5t-16 43t0 52t9.5 54.5q14 61 34.5 122.5t40.5 123.5q10 30 20 61t18 63t13 64t4 63v8t-1 9q0 5 -2 12t-5.5 12t-10 8t-16.5 1q-13 -3 -37 -25t-46 -58.5t-36 -85t-7 -105.5q3 -23 36 -9h3q4 0 6 -2
q1 -2 0.5 -4t-0.5 -4q-1 -3 -1 -4q-6 -16 -22 -31t-51 -9z" />
    <glyph glyph-name="J" unicode="J" horiz-adv-x="588" 
d="M609 270q-10 -55 -24.5 -111t-35.5 -108t-50.5 -96.5t-69.5 -77.5t-92 -52t-118 -19q-53 0 -91.5 15.5t-63 41.5t-36.5 59.5t-12 68.5q0 42 14.5 80.5t42 67t67 45.5t89.5 17q39 0 63 -12t37.5 -27.5t18 -31.5t4.5 -25q0 -12 -11 -12q-8 0 -14 3q-4 1 -8 3q-35 12 -66 12
t-58 -10.5t-47 -29t-31.5 -45t-11.5 -58.5q0 -35 13 -55.5t32 -32t41.5 -15t40.5 -3.5q43 0 83.5 21t76 66.5t64 119t48.5 178.5q3 14 7 42.5t8.5 63t7.5 71.5t3 70q0 39 -6 65t-21 26t-24 -10t-14.5 -24.5t-7 -31.5t-1.5 -32q0 -16 3.5 -25.5t16.5 -9.5q2 0 4.5 0.5
t6.5 0.5q5 0 5 -5t-5.5 -11.5t-14.5 -12t-20.5 -9.5t-23.5 -4q-35 0 -51 19t-16 47q0 17 6.5 43t22 51t41.5 42.5t65 17.5q38 0 62 -20.5t37.5 -53.5t18 -74.5t4.5 -83.5q0 -26 -1.5 -50t-3.5 -41q-2 -21 -4 -38z" />
    <glyph glyph-name="K" unicode="K" horiz-adv-x="714" 
d="M683 26q7 1 12 -6l4 -8q9 -37 -9.5 -66t-62.5 -33q-20 -2 -34 5.5t-24.5 21t-17 31.5t-10.5 38l-3 9q-5 13 -8 24q-7 23 -15.5 41.5t-17.5 36t-19 35.5t-19 39q-21 -60 -51.5 -123.5t-71.5 -114.5t-93.5 -81t-116.5 -23h-1q-3 0 -4 1q-29 5 -47 17t-28 26q-11 16 -14 27
q-1 2 -1.5 3.5t-1.5 3.5q-9 35 -3 60.5t14 39.5q4 7 8 11.5t6 6.5q1 0 1 0.5t1 0.5l1 1q7 5 16 8.5t21 4.5q31 1 48.5 -15.5t15.5 -45.5q0 -4 -1 -7q-2 -6 -8 -6q-7 0 -12 5t-13 5q-15 -1 -20 -17t-3 -30q1 -2 1 -4.5t1 -4.5v-1q4 -14 14.5 -23t33.5 -10q26 -1 58.5 28
t65 79.5t62 117.5t49.5 142q22 85 32.5 138t15.5 83q5 35 4 52q0 5 -2 12t-5.5 12t-10 8t-16.5 1q-13 -3 -37 -25t-46 -58.5t-36 -85t-7 -105.5q3 -23 36 -9h3q4 0 5 -2t1 -4v-4q0 -3 -1 -4q-6 -16 -22 -31t-51 -9q-26 5 -40.5 26.5t-16.5 53.5q-1 34 5 71q5 31 17.5 69
t36.5 75q25 40 59 62t68 29t64 1t47 -23q8 -7 14 -16.5t9 -19.5q6 -19 8.5 -42.5t2 -48t-3.5 -49.5t-8 -47q-1 -5 -2 -11q-2 -5 -3.5 -12.5t-3.5 -16.5q20 23 40 49t38 53t32.5 53t24.5 49q4 9 9 20.5t3 20.5q-2 7 -3 12t3 12q6 14 20.5 13.5t25.5 -6.5q18 -10 23.5 -29.5
t3.5 -39.5q-4 -48 -31 -89.5t-57 -76.5q-27 -32 -56 -62l-58 -60q38 -48 61 -106t44 -123q5 -14 11.5 -22t19.5 -5q9 2 14 8.5t13 8.5z" />
    <glyph glyph-name="L" unicode="L" horiz-adv-x="475" 
d="M764 -99q22 -4 39 -15t27.5 -27t12.5 -37t-6 -45q-9 -26 -27.5 -38t-43 -14.5t-52 2t-54.5 10.5q-61 15 -122.5 37.5t-121.5 43.5q-26 9 -52.5 19t-54.5 18q-22 -35 -55 -62.5t-75 -37.5q-35 -9 -74 -3q-40 7 -58.5 24t-24.5 36q-7 21 -3 47q6 34 24 55.5t41.5 33.5
t51 16t52 4t43.5 -3t27 -4q11 23 23.5 50.5t26.5 60.5q31 72 52 150t30 146t4.5 118t-25.5 65q-19 14 -33.5 13t-25.5 -9q0 -1 -1 -1l-6 -6q-10 -10 -16 -25.5t5 -25.5q6 -5 13 -4t12 -3q5 -5 3 -11q-1 -3 -3 -6q-17 -23 -41 -25.5t-47 17.5q-10 8 -14.5 16.5t-6.5 16.5
q-1 0 -1 1v3q-1 3 -1.5 9t0.5 14q3 17 14 39.5t40 45.5q4 2 6 4q5 3 12 6.5t16 5.5q16 5 38 3.5t48 -15.5q2 -2 3 -2l1 -1q39 -24 60.5 -61.5t29.5 -83t5 -97t-13 -103.5t-25.5 -102t-31.5 -94t-31 -78.5t-25 -54.5q78 -23 155 -50.5t156 -46.5q8 -2 21 -4.5t26.5 -2.5t24 4
t13.5 16q2 11 -3 20t-3 18q1 5 4.5 7t7.5 3t9 0zM203 -144q5 7 7 12t4 7q-6 2 -12 2.5t-12 1.5q-34 4 -58 -0.5t-40 -13.5q-27 -17 -27 -37q-1 -10 4.5 -15t11.5 -8q7 -4 16 -4q26 -2 46 6q2 1 3.5 1.5t3.5 1.5q19 9 32 22t21 24z" />
    <glyph glyph-name="M" unicode="M" horiz-adv-x="1140" 
d="M460 145q-38 21 -77 22.5t-72.5 -13.5t-57.5 -45t-32 -71q-5 -24 -1.5 -41.5t12.5 -30t22 -21t27 -13.5q33 -12 78 -12q38 0 78.5 26t78.5 76t72 121.5t60 163.5q4 15 11.5 42t14.5 58.5t12.5 63.5t6.5 57.5t-4 41.5t-19 15q-23 -2 -34 -22.5t-15 -43.5q-1 -3 -4 -21
t-1 -31q3 -17 24 -13h4q2 0 4 -4q0 -3 -2 -7q-1 -2 -3 -4q-13 -13 -35.5 -23t-54.5 1q-34 11 -34 51q0 15 8.5 45t28.5 58.5t53 47t82 11.5q9 -2 15 -3h1q26 -8 47.5 -27t38.5 -46t29.5 -59.5t19.5 -66.5q8 -39 12 -80t5 -80t0.5 -73t-1.5 -58q24 27 56.5 70t64.5 102
t60.5 133.5t43.5 164.5q1 14 13 20t25 6q20 -1 34 -16t22 -33q18 -44 13 -93.5t-16 -94.5q-21 -89 -50.5 -176t-47.5 -177q-2 -8 -4.5 -21t-2.5 -26t4.5 -23.5t16.5 -13.5q11 -2 20 3.5t18 3.5q8 -2 10 -12q1 -4 0 -9q-7 -44 -40 -67.5t-81 -8.5q-26 8 -38.5 26.5t-16 43
t0 52t9.5 54.5q14 61 34.5 123t40.5 123q4 11 7.5 22t6.5 22q-22 -50 -50 -104t-60 -100t-67.5 -79t-72.5 -42q-4 -1 -7 -1t-8 -1q-16 -2 -23.5 3.5t-9 16t0.5 23.5l4 26q22 127 20 215.5t-15 147.5q-2 -23 -5 -42.5t-6 -34.5q-4 -18 -7 -32q-23 -89 -52 -156.5t-61 -117
t-65 -83.5t-64 -55q-73 -50 -152 -55q-86 -3 -137 24.5t-72 70t-15.5 93t31 95.5t68.5 76.5t97 35.5q65 6 99.5 -9.5t48.5 -37.5t14.5 -43t-1.5 -27q-3 -6 -8.5 -6t-11.5 2q-7 3 -14 7zM1099 573l-4 10q2 -4 4 -10z" />
    <glyph glyph-name="N" unicode="N" horiz-adv-x="1042" 
d="M669 632q7 0 14 -1q6 -1 14 -2.5t17 -4.5q25 -9 58 -35t62 -82q19 -32 35.5 -76t27.5 -100.5t16 -126t1 -152.5q8 25 15 52.5t13 54t11 50.5t9 44q14 63 26.5 127t31.5 124q8 26 19 51.5t26 45t34.5 29.5t46.5 4q25 -6 41.5 -18.5t25 -29.5t9 -37t-7.5 -41q-2 -5 -5 -9
q-6 -8 -15 -5t-13.5 12t-15.5 13q-12 4 -21 -3t-15.5 -18.5t-11 -24.5t-7.5 -20q-28 -87 -47 -179.5t-45 -180.5q-6 -22 -15.5 -52.5t-22.5 -61t-28.5 -57.5t-34.5 -42q-11 -9 -23 -13q-7 -3 -12.5 -3.5t-10.5 0.5q-7 1 -11.5 3t-6.5 4q-15 13 -23.5 29.5t-13.5 32.5
q-2 6 -1.5 10.5t0.5 6.5q20 95 23 175t-5.5 145t-24 115.5t-33.5 86.5q-1 -27 -3.5 -52.5t-6.5 -45.5q-4 -23 -10 -43q-23 -89 -51.5 -156.5t-60.5 -117t-65.5 -83.5t-64.5 -55q-73 -50 -151 -55q-86 -3 -137 24.5t-72 70t-15.5 93t31 95.5t68.5 76.5t97 35.5
q65 6 99.5 -9.5t48.5 -37.5t14.5 -43t-2.5 -27q-2 -6 -8 -6t-11 2q-7 3 -14 7q-38 21 -77 22.5t-72.5 -13.5t-57.5 -45t-32 -71q-5 -24 -1.5 -41.5t12.5 -30t21.5 -21t26.5 -13.5q33 -12 78 -12q38 0 78.5 26t79 76t72.5 121.5t60 163.5q4 15 11.5 42t14.5 58.5t12.5 63.5
t6.5 57.5t-4 41.5t-19 15q-23 -2 -34.5 -22.5t-15.5 -43.5q0 -2 -1 -7.5t-2 -13.5t-1.5 -16.5t0.5 -14.5q3 -17 24 -13h3q3 0 5 -4q0 -3 -2 -7q-1 -2 -3 -4q-13 -13 -35.5 -23t-54.5 1q-34 11 -34 51q0 14 7.5 41.5t25 54.5t46 47.5t70.5 20.5z" />
    <glyph glyph-name="O" unicode="O" horiz-adv-x="669" 
d="M124 280q20 68 46.5 119t56 88.5t60.5 63t61 41.5q70 38 144 40q36 1 66 -7q26 -7 48.5 -23t28.5 -49q1 -5 1 -11q0 -12 -3 -25q-11 -44 -55 -51q-17 -3 -29.5 0t-21 9t-14 14.5t-8.5 16.5q-1 1 -1 4v4t1 4t6 2h3q35 -17 38 18q0 3 -1 10t-6 14.5t-15.5 13.5t-29.5 8
q-23 2 -57.5 -9t-73 -46.5t-77.5 -101.5t-72 -174q-23 -83 -19 -152q1 -29 9 -58.5t25 -54t44.5 -43t69.5 -25.5q31 -4 57 2.5t46 17.5t33.5 23.5t20.5 21.5q33 42 54.5 105t33.5 141q10 65 1.5 102t-21.5 55q-16 21 -39 25t-41.5 0t-33 -13t-25.5 -22t-19 -27
q-18 -33 -27 -78q-8 -60 -2 -88.5t10 -35.5q1 -2 2 -3t2 -3q10 -15 28 0q1 0 3 1q4 0 5 -1q2 -4 2 -7t-1 -5q-5 -17 -20 -37t-48 -25q-20 -3 -33 4.5t-22 24.5q-2 4 -4 9t-4 12q-8 29 -7 59.5t6 56.5q5 30 15 59q10 30 26 58t37.5 50.5t49 38t60.5 20.5q22 3 48.5 0.5
t51.5 -13.5t46 -32.5t32.5 -56t11.5 -83.5t-17 -115q-6 -24 -13 -45.5t-15 -40.5q-26 -62 -55.5 -100t-56.5 -60q-14 -11 -47.5 -28.5t-82.5 -22.5h-3q-36 -3 -77 1.5t-80 20.5t-71.5 45.5t-50.5 77t-18 114t27 157.5z" />
    <glyph glyph-name="P" unicode="P" horiz-adv-x="538" 
d="M54 477q15 33 41.5 62.5t67 51.5t95.5 32t127 4q73 -8 127 -40q23 -14 43.5 -33.5t34 -47.5t18.5 -65t-3 -84q-16 -67 -56 -117q-17 -21 -41.5 -41t-57.5 -35t-75.5 -22t-95.5 -3l-12 -52q-12 -54 -19 -88.5t-6 -63.5q1 -14 4 -20.5t8 -10.5q2 -3 4.5 -5t4.5 -5
q2 -4 2 -6q2 -11 -16.5 -21t-43.5 -6q-20 3 -36 18q-21 18 -24 52.5t3 74.5t17.5 80.5t19.5 70.5q13 51 23 90t17 69t10.5 52.5t5.5 42.5v18q0 8 -1.5 15t-4.5 11t-6 7.5t-3 9.5v5q1 8 6 14q5 5 14.5 9t27.5 3q11 -1 22.5 -6t21.5 -17q13 -14 16.5 -36.5t0.5 -52
t-10.5 -64.5t-16.5 -73l-16 -60q66 5 107 30.5t64 53.5q26 33 39 72q15 50 11.5 91t-14.5 62q-14 29 -36.5 44.5t-45.5 23.5q-26 9 -55 10q-45 1 -79 -7t-60 -21.5t-43.5 -31.5t-29.5 -38q-2 -2 -7 -12t-10.5 -25.5t-10.5 -36.5t-5 -46q0 -13 1 -25.5t5 -23.5q0 -4 2 -8
q11 -20 38 2l2 1q1 0 2.5 0.5t3.5 -1.5q3 -3 3 -7v-5q-1 -8 -4 -17.5t-9.5 -17.5t-18 -14t-28.5 -7q-31 -2 -48.5 13t-27.5 46q-5 14 -6 27q-5 32 -2 59.5t8 47.5q6 24 15 44h1v0z" />
    <glyph glyph-name="Q" unicode="Q" horiz-adv-x="739" 
d="M17 31q1 13 7 23q5 8 16.5 14.5t31.5 3.5q28 -5 53.5 -18t49.5 -32q-14 47 -12.5 110t26.5 148q20 68 46 119t55.5 88.5t60.5 63t61 41.5q69 38 144 40q36 1 66 -7q26 -7 49 -23t28 -49q1 -5 1 -11v-11.5t-2 -13.5q-6 -21 -19 -34t-37 -17q-17 -3 -29 0t-20.5 9t-14 14.5
t-8.5 16.5q-1 1 -1 4q0 2 -0.5 4t1.5 4q1 2 6 2h3q36 -18 37 18q0 3 -0.5 10t-5.5 14.5t-16 13.5t-30 8q-23 2 -57 -9t-72.5 -46.5t-78 -101.5t-72.5 -174q-22 -83 -18 -152q2 -29 9.5 -58.5t24.5 -54t44.5 -43t69.5 -25.5q31 -4 57 2.5t45.5 17.5t33 23.5t21.5 21.5
q32 42 54 105t33 141q10 65 1.5 102t-21.5 55q-16 21 -39 25t-41.5 0t-32.5 -13t-25 -22t-19 -27q-18 -33 -27 -78q-5 -30 -5 -52t2.5 -37t5 -23.5t4.5 -11.5q2 -2 2.5 -3t2.5 -3q10 -15 28 0l2 1q1 0 2.5 0.5t3.5 -1.5q2 -4 2 -7t-1 -5q-5 -17 -20.5 -37t-48.5 -25
q-35 -6 -54 29q-5 9 -8 21q-8 29 -7 59.5t6 56.5q5 30 15 59q10 30 26 58t37.5 50.5t49 38t60.5 20.5q22 3 48.5 0.5t51.5 -13.5t46 -32.5t32.5 -56t11.5 -83.5t-17 -115q-6 -24 -13 -45.5t-15 -40.5q-26 -62 -56 -100t-56 -60q-14 -11 -47.5 -28.5t-82.5 -22.5h-3
q-35 -3 -75 1t-78 19q24 -29 43 -45q22 -20 46 -32t47 -16t43.5 0.5t36.5 18.5q14 12 17 20.5t2.5 14.5t-1 10t6.5 7q8 3 15.5 1.5t13.5 -5.5q7 -4 14 -10q20 -23 18.5 -44t-12.5 -37q-12 -18 -34 -34q-26 -17 -57.5 -25t-66.5 -2q-52 8 -92.5 34t-74 60.5t-61.5 73
t-54.5 71.5t-53 57t-57.5 29h-6q-7 -2 -9 -6q0 -1 -1 -2t-3 -1q-2 -1 -2.5 -0.5t-1.5 0.5t-1 1q-3 1 -4 8z" />
    <glyph glyph-name="R" unicode="R" horiz-adv-x="561" 
d="M274 123q-2 -10 -3.5 -19t-3.5 -17q-13 -54 -20 -88.5t-5 -63.5q1 -14 4 -20.5t7 -10.5q3 -3 5.5 -5t4.5 -5q1 -2 1 -3t1 -3q2 -11 -17 -21t-44 -6q-20 3 -36 18q-20 18 -23 52.5t3 74.5t17.5 80.5t19.5 70.5q18 70 32.5 127t20 96t0 57t-27.5 10q-1 -1 -3 -1q-4 0 -5 3
q-3 3 0 8l2 4q10 14 30 27.5t54 6.5q27 -5 38 -26t10.5 -53.5t-9 -74t-20.5 -87.5q-3 -13 -7 -28t-8 -32q66 5 106.5 30.5t63.5 53.5q26 33 39 72q16 50 12.5 91t-14.5 62q-14 29 -37.5 44.5t-45.5 23.5q-26 9 -54 10q-45 1 -79.5 -7t-60.5 -21.5t-43.5 -31.5t-29.5 -38
q-2 -2 -7 -12t-10.5 -25.5t-10 -36.5t-4.5 -46q-1 -13 0 -25.5t5 -23.5q2 -6 3 -8q11 -20 37 2q1 0 3 1q2 0 3 0.5t3 -1.5q1 -2 2 -3.5t1 -3.5v-5q-1 -8 -4.5 -17.5t-10 -17.5t-18 -14t-28.5 -7q-30 -2 -48 13t-27 46q-4 12 -7 27q-5 32 -2 59.5t8 47.5q6 24 16 44
q15 33 41.5 62.5t67 51.5t95.5 32t127 4q73 -8 127 -40q23 -14 43.5 -33.5t34.5 -47.5t19 -65t-3 -84q-13 -56 -45 -102q-14 -20 -33 -39t-44.5 -35t-58.5 -27t-74 -15q30 -21 63.5 -55.5t64.5 -70.5t57.5 -68t44.5 -48q22 -20 45.5 -33t46 -18t43.5 -1.5t37 16.5
q15 12 18 20.5t3 14.5t-0.5 10t6.5 7q8 2 15.5 0t13.5 -6q7 -4 14 -11q19 -24 16 -45t-14 -36q-13 -18 -35 -32q-26 -17 -58 -23.5t-67 1.5q-47 9 -87 35.5t-74.5 62t-65 75.5t-58 77t-53.5 67t-52 45z" />
    <glyph glyph-name="S" unicode="S" horiz-adv-x="509" 
d="M156 374q2 66 17 113t38.5 77.5t52.5 46.5t58 21.5t56.5 2t47.5 -12.5q30 -14 51 -36.5t33.5 -51t18.5 -60.5t6 -63q-1 -30 -5 -61q-4 -26 -12 -56.5t-25 -56.5q-8 -11 -14 -17q-28 -28 -61 -14q-30 14 -38 37t-7 41q-1 2 0 5q0 3 4 7q3 2 6 -1l2 -2q11 -18 26 -7
q3 1 7 5q4 5 19.5 31t26.5 86q6 45 -1 82q-6 32 -26.5 59.5t-66.5 32.5q-23 2 -45 -14q-19 -14 -38.5 -47t-30.5 -99q-5 -26 -5 -52q0 -23 4 -49.5t17 -50.5q4 -8 13.5 -20t26.5 -25q8 -6 12 -8l1 -1q25 -17 49 -31.5t43.5 -31t34 -37.5t19.5 -49q7 -42 -8.5 -82.5
t-51 -70.5t-87.5 -45.5t-118 -6.5q-52 6 -90 28q-16 9 -30.5 23t-24.5 33t-13 44t3 57q8 43 27.5 69.5t43.5 38.5t49.5 11.5t46 -11.5t33 -30.5t11.5 -44.5q-1 -18 -6 -33q-5 -13 -14 -25t-27 -17q-20 -5 -26 -0.5t-6 12.5q0 9 6 22q3 8 5 18.5t2 19.5t-3 15.5t-10 7.5
q-4 1 -10 -0.5t-12 -8t-12 -21t-9 -39.5q-4 -30 3 -50t19 -33t27 -19t29 -8q20 -3 46.5 -1t50 14t41 35.5t19.5 62.5q2 34 -13 61t-35 46q-23 22 -53 38q-15 8 -27.5 17t-20.5 17q-10 10 -17 19q-21 25 -32 50.5t-16 46.5q-5 25 -5 47z" />
    <glyph glyph-name="T" unicode="T" horiz-adv-x="433" 
d="M803 496q3 0 8 -6q6 -15 4 -28q-2 -11 -10.5 -23.5t-31.5 -19.5q-35 -11 -72.5 -8.5t-75.5 12.5t-75.5 25.5t-71.5 31.5q-2 -23 -6 -45t-9 -43q-21 -89 -50.5 -176t-48.5 -177q-2 -8 -4 -21t-2 -26t4.5 -23.5t16.5 -13.5q11 -2 19.5 3.5t17.5 3.5q9 -3 11 -12q1 -4 0 -9
q-7 -45 -40 -68t-82 -8q-26 8 -38.5 26.5t-15.5 43t0.5 52t9.5 54.5q13 61 33.5 123t40.5 123q18 55 35.5 114t19.5 117q-8 3 -14.5 5.5t-13.5 4.5q-45 12 -86 9t-71 -19.5t-46 -46.5t-11 -71q0 -8 2 -14q2 -5 4 -11t7 -8q12 -8 30 14q0 1 2 2q2 2 6 0q3 -1 5 -6q1 -3 1 -5
q1 -8 0 -18t-6 -19.5t-15 -17.5t-26 -13h-1q-17 -4 -30 -1t-23.5 9t-17.5 13.5t-11 13.5q0 1 -1 2q-21 36 -22.5 79.5t15.5 84.5t51 73.5t83 46.5q59 17 115 9.5t108.5 -27.5t101.5 -46.5t94 -49t85.5 -34.5t75.5 -2q3 1 6 3q7 4 8 12v2q0 2 2 3q1 1 4 1h2v0z" />
    <glyph glyph-name="U" unicode="U" horiz-adv-x="528" 
d="M566 400q-22 -89 -51 -176t-48 -177q-2 -8 -4.5 -21t-2.5 -26t5 -23.5t17 -13.5q11 -2 19.5 3.5t17.5 3.5q9 -3 11 -12q1 -4 0 -9q-8 -45 -40.5 -68t-81.5 -8q-23 7 -35 22t-17 35t-3.5 43.5t5.5 47.5q-48 -60 -99.5 -82.5t-100.5 -6.5q-28 9 -42 29.5t-18.5 46.5
t-1.5 55.5t9.5 57.5t15 52t14.5 39q8 22 14.5 42t7.5 25q2 8 4.5 16t4.5 16q4 15 9 42t9.5 58t7 63t1 58t-8 42t-20.5 15q-23 -2 -32.5 -22.5t-11.5 -44.5q0 -1 -0.5 -7t-1 -13.5t-0.5 -16t2 -14.5q5 -18 25 -14h4q2 0 4 -3q1 -3 -1 -7q-1 -2 -3 -4q-6 -6 -14 -12.5
t-19 -10.5t-24.5 -4.5t-29.5 4.5q-36 13 -39 52q-2 15 4 45t23.5 58.5t49 47t81.5 11.5q26 -4 43.5 -19t29 -36.5t17 -48t7.5 -53.5q4 -63 -8 -142q-2 -14 -5 -27.5t-6 -25.5q-2 -8 -10 -37t-23 -64q-1 -2 -2.5 -6.5t-3.5 -6.5q-14 -35 -21.5 -61t-10.5 -45.5t-1.5 -32.5
t5.5 -21q9 -19 30 -20q35 0 65.5 27t56 66t45.5 83t32 78q5 14 9 26.5t8 26.5q10 30 20 61t18 63t13 64t5 63q-1 10 -1.5 22t-7.5 20q-5 5 -7.5 9t-3.5 12q0 15 12.5 21.5t25.5 5.5q21 0 34.5 -15t21.5 -33q18 -45 13.5 -94t-15.5 -94z" />
    <glyph glyph-name="V" unicode="V" horiz-adv-x="556" 
d="M460 252q13 63 26 127t32 124q8 26 19 51.5t26 45t34.5 29.5t46.5 4q25 -6 41.5 -18.5t25 -29.5t9 -37t-7.5 -41q-2 -4 -5 -8q-2 -3 -6 -5t-9 0q-9 2 -13.5 11.5t-15.5 12.5q-12 4 -21 -3t-16 -18t-11 -24t-7 -20q-28 -88 -47 -180.5t-45 -180.5q-6 -22 -15.5 -52
t-22.5 -61t-28.5 -57.5t-34.5 -41.5q-11 -10 -23 -14q-7 -3 -12.5 -3.5t-10.5 0.5q-7 2 -11.5 3.5t-6.5 3.5q-15 13 -23.5 29.5t-13.5 32.5q-2 6 -1.5 11t0.5 7q20 94 22.5 174t-5.5 145.5t-24 115.5t-33 86q-23 48 -42 71t-33 33q-16 11 -29 10q-23 -2 -34.5 -23t-15.5 -44
q0 -1 -1.5 -7t-2.5 -14t-1.5 -16.5t1.5 -14.5q2 -17 24 -13h3q3 0 5 -4q0 -4 -3 -7q-2 -2 -3 -4q-13 -13 -35 -23t-54 1q-34 11 -34 51q0 14 7 41.5t24.5 54.5t46.5 47.5t71 20.5q7 0 15 -1q7 -1 14.5 -2.5t15.5 -4.5q25 -9 58 -35t62 -81q19 -32 35.5 -76t27.5 -101
t16 -126.5t1 -152.5q7 25 14 52.5t13 54t11.5 50.5t9.5 44z" />
    <glyph glyph-name="W" unicode="W" horiz-adv-x="795" 
d="M167 631q7 0 15 -1q7 -1 14.5 -2.5t15.5 -4.5q25 -9 58 -35t62 -81q19 -32 35.5 -76t27.5 -101t16 -126.5t1 -152.5q8 25 15 52.5t13 54t11 50.5t9 44q7 32 13 64t14 64q2 10 3 16.5t1 15.5q-1 13 -6.5 16t-22.5 -2h-3q-4 0 -5 3q-3 2 -1 7q1 2 2 5q4 7 12 16t18.5 15.5
t24.5 10.5t31 1q34 -5 51.5 -27.5t27.5 -63.5q1 -2 1 -3.5t1 -3.5q17 -63 26 -146t4 -189q8 25 15 52.5t13 54t11 50.5t9 44q14 63 26.5 127t31.5 124q8 26 19 51.5t26 45t34.5 29.5t46.5 4q25 -6 41.5 -18.5t25 -29.5t9 -37t-7.5 -41q-2 -4 -5 -8q-2 -3 -6 -5t-9 0
q-9 2 -13.5 11.5t-15.5 12.5q-12 4 -21 -3t-15.5 -18t-11 -24t-7.5 -20q-28 -88 -47 -180.5t-45 -180.5q-6 -22 -15.5 -52t-22.5 -61t-28.5 -57.5t-34.5 -41.5q-10 -10 -23 -14q-7 -3 -12.5 -3.5t-10.5 0.5q-7 2 -11.5 3.5t-6.5 3.5q-15 13 -23.5 29.5t-13.5 32.5
q-2 6 -1.5 11t0.5 7q23 112 29 215t-3 182q-16 -64 -30.5 -128.5t-32.5 -126.5q-6 -22 -15.5 -52t-22.5 -61t-28.5 -57.5t-34.5 -41.5q-10 -10 -23 -14q-7 -3 -12.5 -3.5t-10.5 0.5q-7 2 -11.5 3.5t-6.5 3.5q-15 13 -23.5 29.5t-13.5 32.5q-2 6 -1.5 11t0.5 7q20 94 23 174
t-5 145.5t-24 115.5t-33 86q-23 48 -42.5 71t-33.5 33q-17 11 -29 10q-11 -1 -19.5 -7t-14.5 -15.5t-10 -21t-6 -23.5q0 -1 -1 -7t-2 -14t-1.5 -16.5t0.5 -14.5q3 -17 24 -13h3q3 0 5 -4q0 -3 -2 -7q-1 -2 -3 -4q-13 -13 -35.5 -23t-54.5 1q-34 11 -34 51q0 14 7.5 41.5
t25 54.5t46 47.5t70.5 20.5z" />
    <glyph glyph-name="X" unicode="X" horiz-adv-x="454" 
d="M568 610q8 -25 4.5 -65t-30.5 -99q-22 -50 -72.5 -106t-140.5 -130q2 -42 5 -83.5t9 -83.5q1 -8 3.5 -21t7 -25t12.5 -20t20 -5q11 2 17 10.5t16 10.5q8 1 14 -7q2 -4 3 -9q4 -22 0 -42t-15 -35.5t-30 -26t-44 -13.5q-27 -3 -45 9.5t-29.5 33.5t-17.5 48t-10 54
q-5 35 -6.5 70.5t-3.5 72.5q-19 -14 -35.5 -26.5t-27.5 -23.5q-22 -21 -36.5 -44.5t-21 -46t-4.5 -43.5t14 -37q10 -15 18.5 -18t14.5 -3h10.5t6.5 -7q2 -8 -0.5 -15.5t-6.5 -13.5q-5 -7 -12 -13q-26 -19 -46.5 -15.5t-34.5 14.5q-17 13 -30 35q-15 27 -19.5 59t5.5 67
q11 40 32 72.5t48.5 59.5t59 49.5t63.5 43.5q-1 5 -1 9v9q-1 38 -3.5 81.5t-8.5 86.5q-2 8 -2.5 15.5t-2.5 15.5q-5 26 -10 50t-12 42t-16 27t-20 5h-2q-20 -9 -24 -31t0 -45q0 -2 1 -7.5t2.5 -13t4 -15.5t5.5 -14q8 -15 28 -5q1 1 3 1q3 0 5 -2q2 -5 1 -7l-2 -4
q-8 -17 -26.5 -33t-52.5 -15q-20 0 -32 10t-18 28q-6 13 -7.5 43.5t8.5 62.5t35.5 59.5t75.5 35.5q38 6 65 -12.5t45 -50.5q5 -8 8 -16l1 -1q9 -19 15 -41q8 -26 13 -53t7 -50q6 -53 9 -105q59 49 95.5 87t57.5 79q24 48 32.5 77t8.5 46q0 19 -8 28q-14 16 -38 11.5
t-45 -16.5q-1 0 -6.5 -3t-12.5 -7t-14 -9t-11 -10q-14 -14 4 -27q1 -2 2 -3q1 -2 -1 -5q-4 -4 -7 -4q-3 -1 -5 0q-9 1 -19.5 4t-20 9t-18 16t-13.5 26q-6 18 0 32.5t21 26.5q11 9 37.5 21t58.5 15.5t65.5 -5.5t59.5 -41l8 -12q3 -5 6.5 -12.5t5.5 -15.5z" />
    <glyph glyph-name="Y" unicode="Y" horiz-adv-x="598" 
d="M711 -161q3 -4 8 -12t8.5 -19.5t4.5 -24.5t-4 -28q-1 -1 -2 -3.5t-3 -6.5q-17 -26 -37.5 -28.5t-35.5 2.5q-3 0 -5 2q-5 2 -5 6q-2 3 1 6q1 1 3 2q29 14 18 32q-6 8 -20.5 23.5t-38.5 33t-58 34t-79 26.5q-23 -38 -52 -71.5t-64 -58t-76.5 -37t-90.5 -9.5q-46 3 -78 16
q-14 6 -26 14.5t-19.5 20.5t-9 28.5t6.5 37.5q10 29 43.5 56t82 47.5t108 32t121.5 10.5q13 27 22.5 54t17.5 52q-48 -60 -99.5 -82t-99.5 -6q-28 9 -42 29.5t-18.5 46.5t-1.5 55.5t9.5 57.5t15 52t14.5 39q8 21 14 41.5t8 25.5l4 16l4 16q6 23 13 61t9 74t-4 61.5t-27 24.5
q-23 -2 -32 -22.5t-11 -44.5q0 -1 -1 -7t-1.5 -13.5t-0.5 -16t2 -14.5h1q3 -18 25 -14h3q3 0 5 -3q1 -3 -1 -7q-1 -2 -3 -4q-6 -6 -14.5 -12.5t-19 -10.5t-24.5 -4.5t-30 4.5q-35 13 -38 52q-2 15 4 45t23.5 58.5t49 47t81.5 11.5q26 -4 44 -16.5t29.5 -30t17.5 -39t9 -43.5
q6 -51 -4 -114q-2 -14 -5 -27t-6 -25q-2 -8 -10 -37t-24 -64q-1 -2 -2.5 -6.5t-2.5 -6.5q-29 -70 -32.5 -106.5t4.5 -53.5q9 -19 30 -20q30 0 56.5 20t50 51t42.5 68.5t33 71.5q1 4 1.5 7t1.5 7q8 30 16.5 62t15 64t9.5 64.5t1 63.5q-1 10 -2.5 22t-8.5 19q-5 5 -8 9t-4 11
q-1 15 11 22t26 8q20 1 35 -13.5t23 -31.5q15 -33 17.5 -70t-2.5 -73q-1 -12 -5 -43t-13 -77t-24 -104t-38 -123q-8 -28 -19.5 -58.5t-25.5 -62.5q58 -13 110.5 -41.5t94.5 -78.5zM202 -234q55 11 96.5 46t72.5 83q-11 0 -23 -0.5t-24 -1.5q-59 -6 -106 -20q-20 -6 -39 -14
t-34.5 -19t-25.5 -24.5t-11 -30.5q6 -10 18 -15q11 -5 29 -7t47 3z" />
    <glyph glyph-name="Z" unicode="Z" horiz-adv-x="641" 
d="M707 588q3 -13 0 -31t-15 -42t-34 -54t-57 -67q-37 -38 -85 -85.5t-98 -97t-97.5 -97t-83 -86.5t-55.5 -66t-14 -35l3 -3q2 0 3 -1q32 -20 63 -36t66 -28q44 -16 85 -19.5t73.5 7t52.5 35.5t22 66q0 7 -1 14q-1 6 -2 11.5t-4 9.5q-12 10 -33 -8q-2 -1 -3 -2q-3 -2 -5 0
q-4 4 -4 7q-1 2 0 5q1 9 3.5 18.5t9 18t17.5 14.5t28 8l1 1q17 1 29.5 -4t21.5 -13t14.5 -17t8.5 -15q1 -1 1 -2q15 -39 8.5 -82t-30 -80.5t-62.5 -64t-89 -31.5q-52 -6 -99 6t-90 34t-82.5 50.5t-75.5 56.5v1q-4 2 -8 5t-8 7q-24 24 -20 53t19.5 55.5t34 45.5t21.5 23
q17 19 53.5 54t83 78.5t98.5 92.5t101 96.5t91 90t68 72.5q-38 -14 -78 -19t-75.5 -5.5t-62.5 2t-39 3.5q-22 1 -29.5 -2t-14.5 -6q-6 -3 -10 1q-2 2 -3 5q-3 13 -3.5 31t8 33.5t30 24.5t62.5 5t72.5 -7.5t56 -5t44 -1.5t36.5 3q19 3 25 9q2 2 8.5 4t14.5 0q18 -5 28 -30
q0 1 2 -5z" />
    <glyph glyph-name="grave" unicode="`" horiz-adv-x="232" 
d="M204 347q-12 6 -37 8.5t-52.5 9t-51 19t-32.5 38.5q-6 18 -5 32.5t5.5 24t11 13t10.5 -0.5t5 -7.5t3 -8t5.5 -10t11.5 -12.5q20 -17 47.5 -34.5t77.5 -36.5q6 -3 8 -9t1.5 -12.5t-3 -11t-5.5 -2.5z" />
    <glyph glyph-name="a" unicode="a" horiz-adv-x="386" 
d="M293 302q3 0 6.5 0.5t7.5 0.5q12 0 24.5 -2.5t23.5 -10t18 -21.5t7 -37q0 -19 -4 -38q-8 -38 -15 -67t-11.5 -52.5t-7 -42t-2.5 -35.5q0 -18 3 -26.5t7 -12.5t8 -7t5 -10q0 -9 -13.5 -18.5t-35.5 -9.5t-44 15.5t-27 51.5q-17 -26 -44 -44.5t-69 -18.5q-38 0 -61.5 13
t-36 32.5t-17 42t-4.5 42.5q0 11 0.5 19.5t1.5 15.5q1 8 3 14q10 53 29 92t43 64.5t51.5 38t54.5 12.5q22 0 38 -5.5t27.5 -14.5t18 -19t10.5 -19q1 7 1.5 12t0.5 10q0 10 -3 15t-3 10q0 4 4 8q2 1 5 2zM264 151q1 5 1 18q0 10 -2 22t-7 22.5t-13 17t-21 6.5
q-14 0 -33.5 -13t-37.5 -38.5t-31 -63t-13 -86.5q0 -23 5 -35.5t11 -18.5q7 -7 16 -9q27 0 47.5 17.5t35 41t22.5 47t11 35.5q2 10 4.5 19t4.5 18z" />
    <glyph glyph-name="b" unicode="b" horiz-adv-x="370" 
d="M88 -81q-30 9 -46.5 29.5t-24 44t-8 46t0.5 36.5q3 23 8.5 51.5t14.5 62.5q19 74 35 135t23 102.5t1.5 61.5t-28.5 12q-1 -1 -3 -1q-4 0 -5 3q-3 3 0 8l2 4q10 14 30 27.5t54 6.5q27 -5 38 -26t10.5 -53.5t-9 -74t-20.5 -87.5q-7 -27 -16 -62t-17 -73q-2 -11 -5 -22
q-2 -10 -5.5 -22t-5.5 -25q-3 -13 -8 -40t-3 -50q0 -11 5 -24q4 -8 12 -16q8 -4 13 -5q23 -7 40.5 2.5t28.5 23.5q13 16 22 38q2 3 4 11q-21 6 -40 17q-22 14 -33 37.5t-12 51t7 55.5t23.5 49.5t37 34t47.5 9.5q39 -5 58 -30t27 -53q9 -33 7 -73q-1 -7 -2 -13.5t-3 -13.5
q16 13 30.5 28t26 28t20.5 20.5t14 5.5q7 -3 9.5 -9t2.5 -12q0 -7 -3 -15q-19 -46 -51.5 -75.5t-70.5 -40.5q-23 -54 -65 -89t-105 -40q-12 -1 -23 -1t-21 2v-1q-12 2 -19 4zM236 227q-14 -5 -24.5 -22t-12.5 -37.5t7 -40.5t35 -32q14 54 15.5 81.5t-3.5 38.5q-5 13 -17 12z
" />
    <glyph glyph-name="c" unicode="c" horiz-adv-x="330" 
d="M159 -82q-35 2 -60 11.5t-41.5 23.5t-26 31t-14.5 35q-11 41 -2 93q9 56 33 98q10 18 24.5 35t34.5 30t46.5 20.5t59.5 6.5q16 -1 31.5 -5.5t28.5 -13.5t21.5 -21.5t9.5 -29.5q3 -32 -7.5 -49t-25.5 -23t-29.5 -4.5t-19.5 6.5q-5 4 -1 14q2 4 4 9q11 21 12 33t-1 18
q-3 7 -10 10q-21 4 -37.5 -7.5t-29.5 -31t-22 -42.5t-14 -41t-9 -41.5t-0.5 -45.5t17.5 -38t45 -20q27 -3 48 5.5t37 19.5t26 20t14 7q7 -4 5 -13q-1 -4 -3 -10q-14 -38 -38.5 -56.5t-47.5 -26.5q-27 -9 -58 -7z" />
    <glyph glyph-name="d" unicode="d" horiz-adv-x="387" 
d="M427 498q6 -34 -3 -84t-23 -107q-7 -26 -15.5 -59t-16.5 -69l-9 -39q-12 -54 -19 -88.5t-5 -63.5q0 -14 3 -20.5t8 -10.5q2 -3 4.5 -5t4.5 -5q2 -4 2 -6q2 -11 -16.5 -21t-43.5 -6q-20 3 -36 18q-18 14 -23 46q-17 -26 -46.5 -45t-74.5 -16q-27 1 -46 10t-31 21.5
t-19 28.5t-10 33q-7 39 2 86q11 59 33 100.5t49.5 66.5t58.5 34.5t60 3.5q34 -7 50 -24t22 -34q12 47 20.5 80t14.5 57.5t9 42.5t5 36v18q0 8 -1.5 15t-4.5 11t-6 7.5t-3 9.5v5q0 6 4 10q2 4 7.5 8t15.5 6q3 2 14 2h7q13 -2 24 -7q27 -10 33 -42l2 -4h-1zM110 84
q-8 -40 -4.5 -62t10.5 -33q8 -13 21 -16q28 -3 49 16.5t35 45t22 50t10 32.5l8 33q2 9 2 23t-3.5 27.5t-11.5 24t-22 12.5t-31 -6.5t-33.5 -28t-30 -49.5t-21.5 -69z" />
    <glyph glyph-name="e" unicode="e" horiz-adv-x="322" 
d="M163 -82q-35 2 -60 11.5t-41.5 23.5t-26 31t-14.5 35q-11 41 -2 93q8 56 32 98q10 18 24.5 35t35 30t46.5 20.5t59 6.5q26 -1 48.5 -13t35 -34t11 -54t-22.5 -73q-19 -35 -45 -46t-52 -10t-45 14t-23 24q-5 -18 -7 -39.5t3 -41t19 -33.5t42 -17q26 -3 47 5.5t37 19.5
t26 20t14 7q8 -5 6 -13q-1 -4 -3 -10q-14 -38 -38.5 -56.5t-47.5 -26.5q-27 -9 -58 -7zM230 246q-20 4 -36.5 -6.5t-29.5 -29t-22 -41t-14 -40.5h2q26 -2 53.5 10.5t44.5 45.5q10 20 11.5 31.5t-0.5 18.5q-3 8 -9 11z" />
    <glyph glyph-name="f" unicode="f" horiz-adv-x="257" 
d="M68 221q1 2 7 20t16 45t23.5 59t30 61t34.5 51t37 30q8 4 16 4q22 1 35 -14t17 -40t-1 -57.5t-19 -67t-37 -68.5t-55 -62q25 -7 54 -0.5t54 16.5t43.5 17t24.5 1q5 -6 4.5 -12.5t-3.5 -11.5q-4 -6 -9 -12q-36 -32 -76.5 -44.5t-78.5 -7.5q14 -29 20 -67t5 -77t-10 -76
t-24.5 -65t-38 -43.5t-51.5 -11.5q-33 5 -49.5 30t-22 59.5t-3 74.5t8.5 75.5t12 60.5t8 31q5 21 10 39t9 32q4 16 9 30v1zM180 274q-4 -11 -5 -20q12 19 24 41t21.5 44t14 42.5t1.5 36.5q-10 -18 -20 -41q-8 -20 -18 -46t-18 -57zM106 -86q-2 -25 1 -41t14 -17
q12 0 20.5 27t11.5 66t0 82.5t-13 75.5q-2 -11 -4 -20t-4 -17q-1 -2 -4.5 -18t-8 -39t-8.5 -49.5t-5 -49.5z" />
    <glyph glyph-name="g" unicode="g" horiz-adv-x="378" 
d="M293 302q13 1 31 -0.5t32.5 -12t21.5 -33t-2 -62.5q-4 -15 -7 -28.5t-7 -25.5q0 -5 -1 -10.5t-2 -11.5q-14 -72 -32 -142q-16 -60 -40.5 -125t-56.5 -115q-33 -51 -81.5 -77t-104.5 -20q-41 5 -69 23q-12 8 -23 19.5t-18 28t-9 38t3 50.5q2 9 9 26t23 33.5t43 27t70 5.5
q26 -3 42.5 -13.5t25.5 -25.5t11.5 -32t0.5 -31q-4 -23 -13.5 -28t-14.5 -3q-4 1 -6 9q-1 4 -2 7q-2 8 -5.5 16.5t-10.5 15.5t-18.5 11.5t-28.5 4.5q-24 -1 -40 -19t-17.5 -40.5t13 -43t50.5 -25.5q28 -4 50.5 12.5t41.5 50t35 82.5t32 109q-17 -14 -40.5 -23t-54.5 -7
q-27 1 -46 10t-31 21.5t-19 28.5t-10 33q-7 39 2 86q11 59 33 100.5t49.5 66.5t58.5 34.5t60 3.5q20 -4 34 -12.5t22.5 -19t13 -21t6.5 -18.5q3 20 -3 36t-9 23q-2 4 -0.5 6.5t3.5 4.5t5 2zM143 -27q30 -3 51.5 18.5t36 49t21.5 51.5t8 27q3 11 5 21t4 18q1 10 0 22.5
t-5 24.5t-11.5 21t-20.5 11q-14 2 -31 -6.5t-33.5 -28t-30 -49.5t-21.5 -69q-8 -40 -4.5 -62t10.5 -33q8 -13 21 -16z" />
    <glyph glyph-name="h" unicode="h" horiz-adv-x="368" 
d="M41 -68q-20 18 -23 52.5t3 74.5t17.5 80.5t19.5 70.5q14 54 24 92.5t16.5 67.5t10.5 51t6 43q1 7 0 20t-6 19q-3 4 -6 7.5t-3 9.5v5q0 5 3 9q2 4 7.5 8t14.5 7q5 3 19 2h4q5 -1 10.5 -2t10.5 -3q24 -8 32.5 -29.5t7.5 -53.5t-9.5 -72t-19.5 -84l-30 -121q26 48 59 81.5
t71 34.5q38 0 54.5 -17t22.5 -37q6 -24 3 -54q-4 -32 -15.5 -87t-22.5 -118q-6 -32 -4.5 -56.5t20.5 -27.5q16 -2 22.5 4t15.5 4q8 -2 10 -12q1 -4 0 -9q-8 -42 -27 -57.5t-39 -18.5q-24 -4 -51 5q-32 9 -44.5 36t-13.5 56q-2 33 7 74q5 32 14 72.5t23 92.5q7 26 7.5 40.5
t-1.5 22.5q-3 9 -9 11q-15 4 -31 -9t-31.5 -35t-29 -49.5t-24 -53.5t-16.5 -47t-5 -30v-14q1 -14 4 -20.5t8 -10.5q2 -3 4.5 -5t4.5 -5q2 -4 2 -6q2 -11 -17 -21t-43 -6q-19 3 -37 18z" />
    <glyph glyph-name="i" unicode="i" horiz-adv-x="164" 
d="M61 244q4 22 2 30t-4 15q-2 4 -1 6.5t3 4.5t5 2q13 1 31 -0.5t32.5 -12t21.5 -33t-2 -62.5q-9 -41 -16 -71.5t-11.5 -54.5t-7 -43t-1.5 -37q0 -14 3.5 -20.5t7.5 -10.5t7.5 -7t4.5 -9q1 -7 -8 -14.5t-23.5 -11t-32 -0.5t-33.5 17t-21 38.5t-3.5 55t8.5 63.5t14.5 63
t14.5 54.5t9 37.5zM127 323q-21 0 -34 19t-10 45t20.5 45t39.5 19t34.5 -19t9.5 -45t-20.5 -45t-39.5 -19z" />
    <glyph glyph-name="j" unicode="j" horiz-adv-x="154" 
d="M-288 -202q1 9 7.5 26t22 33.5t42.5 27t70 5.5q26 -3 43 -13.5t26.5 -25.5t12 -32t1.5 -31q-2 -23 -12 -28t-14 -3q-5 1 -7 9q-1 4 -1 7q-2 8 -6 16.5t-12 15.5t-19.5 11.5t-28.5 4.5q-24 -1 -39 -19t-15.5 -40.5t14.5 -43t51 -25.5q35 -5 60 20.5t44.5 74t35.5 117.5
t33 153q4 21 9 49t9.5 55.5t8 49.5t4.5 31q2 22 0.5 30t-4.5 15q-2 6 2 10q2 2 5 3q13 2 31 0.5t32 -12t22 -33.5t2 -63q-15 -94 -33 -180q-8 -37 -18 -76t-21.5 -75.5t-25 -69t-28.5 -56.5q-31 -51 -78.5 -77t-104.5 -20q-40 5 -69 23q-12 8 -23.5 19.5t-19.5 28t-11 38
t2 50.5zM118 323q-22 0 -35.5 19t-11.5 45t19 45t39 19t35.5 -19t11.5 -45q-3 -26 -19.5 -45t-38.5 -19z" />
    <glyph glyph-name="k" unicode="k" horiz-adv-x="348" 
d="M516 -94q12 -12 18 -26q5 -13 4.5 -30t-14.5 -39q-9 -14 -24.5 -23t-29.5 -14q-18 -6 -36 -8q-59 -5 -101 6t-75 34q-11 7 -20 15t-17 16q-26 27 -43 61t-27.5 66t-15.5 59t-6 41q-8 -23 -14 -40t-8 -22q0 -9 1 -14q0 -14 3 -20.5t8 -10.5q2 -3 4.5 -5t4.5 -5q2 -4 2 -6
q2 -11 -16.5 -21t-43.5 -6q-20 3 -36 18q-21 18 -24 52.5t3 74.5t17.5 80.5t19.5 70.5q18 70 32.5 127t20.5 96t0.5 57t-27.5 10q-1 -1 -3 -1q-5 0 -6 3q-2 3 1 8l2 4q10 14 29.5 27.5t53.5 6.5q28 -5 38.5 -26t10.5 -53.5t-9 -74t-20 -87.5q-6 -24 -14 -55t-16 -66
q26 48 59 81.5t71 34.5q28 0 44.5 -10t24.5 -24t10 -30t2 -27q-1 -11 -2 -20t-3 -17q-6 -28 -20 -46.5t-31.5 -30t-36 -17.5t-34.5 -8q-5 0 -8.5 -0.5t-7.5 -0.5q1 -5 4.5 -20t10 -34.5t17 -42t25 -43.5t34 -38t44.5 -26q7 -2 13.5 -3.5t13.5 -3.5q31 -4 53 -0.5t37 10.5
t24 15t13 14q1 3 4 5q6 4 12 2zM244 226q-12 3 -24.5 -5.5t-24.5 -24.5t-23.5 -37.5t-21.5 -43.5q37 5 57.5 16t31.5 23q12 14 15 30q2 14 0.5 22.5t-3.5 13.5q-3 5 -7 6z" />
    <glyph glyph-name="l" unicode="l" horiz-adv-x="158" 
d="M35 -68q-20 18 -23 52.5t3 74.5t17.5 80.5t19.5 70.5q14 54 24 93.5t17 70t10.5 53t5.5 42.5q1 8 0 18.5t-6 15.5q-3 4 -6 7.5t-3 9.5v5q0 15 16 21.5t28 4.5q11 -1 22 -4t21 -11l3 -2q13 -13 17 -36t1 -52.5t-10.5 -65t-17.5 -73.5l-32 -128q-2 -11 -4 -20.5t-4 -18.5
q-13 -54 -19.5 -88.5t-5.5 -63.5q1 -14 4 -20.5t7 -10.5q3 -3 5.5 -5t4.5 -5q2 -4 2 -6q2 -11 -17 -21t-44 -6q-18 3 -36 18z" />
    <glyph glyph-name="m" unicode="m" horiz-adv-x="496" 
d="M135 -55q1 -7 -8 -14.5t-23 -11t-31.5 -0.5t-33.5 17t-21.5 39t-3.5 55.5t8.5 63.5t14.5 63t15 54.5t9 37.5q3 21 1 29l-4 16q-2 6 2 10q2 2 5 2q11 1 25 0.5t27 -6t23 -17.5t12 -34q19 27 42.5 44t52.5 15h1q1 0 2 -0.5t3 -0.5q6 -1 15.5 -4.5t19.5 -12.5t18 -24.5
t11 -39.5q20 35 44.5 57.5t55.5 22.5q37 0 54.5 -17t22.5 -37q6 -24 2 -54q-4 -32 -15.5 -85t-24.5 -116q-18 -81 18 -87q8 -2 13 -0.5t9 3.5t7.5 3.5t8.5 0.5q8 -2 10 -12q1 -4 0 -9q-8 -41 -27 -57.5t-39 -21.5q-24 -5 -51 2q-16 4 -26.5 13.5t-17 22.5t-9.5 28.5t-4 30.5
q-2 35 7 78q5 32 13.5 72t22.5 92q7 26 7.5 41t-1.5 23q-3 9 -9 10q-9 2 -18 -6t-18 -22.5t-17.5 -33.5t-15.5 -40q-6 -13 -11 -29q-5 -14 -10.5 -32t-10.5 -38q-1 -3 -1 -6t-1 -5q0 -2 -0.5 -2.5t-0.5 -2.5v-3q-1 -2 -1 -5q-1 -12 1 -18.5t5 -10.5t5.5 -7.5t2.5 -9.5
q0 -7 -10 -13t-25 -6.5t-31.5 5t-29.5 22.5q-9 10 -12 26q-2 5 -2 9.5v9.5q-1 3 -0.5 6t0.5 6q1 31 7.5 64.5t14.5 65.5q1 5 5 17t5.5 24.5t-0.5 23t-12 11.5q-7 1 -21.5 -17t-30 -49.5t-28 -75t-15.5 -94.5l1 -2q0 -14 3.5 -20.5t7 -10l7 -7t4.5 -9.5z" />
    <glyph glyph-name="n" unicode="n" horiz-adv-x="360" 
d="M33 -64q-16 14 -21 39t-3.5 55.5t8.5 63.5t14.5 63t14.5 54.5t9 37.5q4 21 2 29l-4 16q-2 6 2 10q2 2 5 2q12 1 29 0t31 -9.5t22 -27t4 -51.5q26 38 58.5 65t70.5 25h1q1 0 2 -0.5t3 -0.5q7 -2 21.5 -8.5t26 -23.5t16 -48t-6.5 -81v1q-13 -56 -19.5 -91t-4.5 -64
q0 -14 3.5 -20.5t7 -10l7 -7t4.5 -9.5q1 -7 -8 -14.5t-23 -11t-31.5 -0.5t-33.5 17t-21.5 38.5t-4 54.5t8 62.5t14.5 62.5q1 5 3.5 16.5t3.5 23.5t-1 22.5t-9 13.5q-11 4 -31 -12t-40.5 -47.5t-36.5 -75.5t-19 -95v-8q1 -14 4 -20.5t7 -10t7.5 -7t4.5 -9.5q1 -7 -8 -14.5
t-23.5 -11t-32 -0.5t-33.5 17z" />
    <glyph glyph-name="o" unicode="o" horiz-adv-x="326" 
d="M130 -79q-27 1 -46.5 10t-32.5 21.5t-21.5 28.5t-12.5 33q-11 39 -6 86q6 59 24 100.5t43.5 66.5t55.5 34.5t60 3.5q21 -4 36 -12.5t24.5 -19.5t14.5 -22t7 -20q2 0 2.5 -0.5t1.5 -0.5h2q7 -2 18.5 -13.5t13.5 -45.5q1 -17 -0.5 -36.5t-7.5 -44.5q-4 -18 -11.5 -39
t-19.5 -41t-29 -38.5t-40 -32.5q-15 -9 -33.5 -14.5t-42.5 -3.5zM108 88q-5 -40 0 -62t13 -33q9 -13 23 -16q20 -2 35.5 8t26.5 26t19 35t14 36q3 9 5.5 17.5t4.5 16.5q3 18 0 28.5t-8.5 16t-12.5 7t-13 1.5t-8 5q-1 3 0 6q2 20 9.5 31.5t17.5 16.5q-10 10 -24 13
q-14 2 -30 -6.5t-30.5 -28t-26 -49.5t-15.5 -69z" />
    <glyph glyph-name="p" unicode="p" horiz-adv-x="388" 
d="M-42 -180q10 43 26 98t32 111t29.5 106.5t17.5 83.5q1 14 2 25q0 10 -0.5 18.5t-5.5 12.5t-7.5 7.5t-1.5 10.5q1 5 5 9q4 3 11.5 6t21.5 1q28 -3 44.5 -27t15.5 -80q14 21 30.5 40.5t35 34.5t39 23.5t41.5 7.5q27 -2 46 -20q16 -15 27 -48.5t4 -94.5q-12 -75 -46 -129
q-15 -23 -35.5 -43.5t-49 -33.5t-66 -16.5t-84.5 7.5q-7 -28 -14 -54.5t-15 -60.5q-8 -32 -7.5 -56t19.5 -28q8 -2 13.5 -1t9.5 3t7.5 3t7.5 0q8 -2 10 -12q0 -4 -1 -9q-10 -41 -30 -57t-40 -19q-24 -4 -51 6q-16 5 -26 15.5t-16 24t-8 28.5t-2 30q0 35 11 77zM253 231
q-11 1 -29 -15.5t-38.5 -46t-40.5 -69t-33 -85.5q-2 -10 -4.5 -18.5t-4.5 -16.5q9 -2 23 -3.5t30.5 1.5t34 12.5t33.5 29.5t28.5 51.5t19.5 79.5q4 31 2 54.5t-21 25.5z" />
    <glyph glyph-name="q" unicode="q" horiz-adv-x="376" 
d="M328 -9q-20 -97 -34 -170q-6 -32 -4.5 -56t20.5 -27q16 -3 23 3.5t15 4.5q9 -3 11 -12q1 -4 -1 -9q-8 -42 -27 -58t-39 -21q-24 -5 -51 2q-32 9 -44 37t-13 58q-2 35 7 77q4 25 11.5 59t16.5 73q-17 -15 -40 -24t-55 -7q-27 1 -46 10t-31 21.5t-19 28.5t-10 33
q-7 39 2 86q11 59 33 100.5t49.5 66.5t58.5 34.5t60 3.5q21 -4 35.5 -13t23 -19.5t12.5 -22t6 -19.5q13 -1 27.5 -5.5t24 -16.5t13 -33t-3.5 -54q-5 -20 -9.5 -42t-11.5 -46q-2 -7 -5 -20.5zM268 158q1 10 1 23t-4 26t-12 22.5t-21 11.5q-14 2 -31 -6.5t-33.5 -28t-30 -49.5
t-21.5 -69q-8 -40 -4.5 -62t10.5 -33q8 -13 21 -16q20 -2 36.5 8t29.5 26t22.5 35t15.5 36q7 24 12.5 43.5t8.5 32.5z" />
    <glyph glyph-name="r" unicode="r" horiz-adv-x="351" 
d="M351 192q-7 -33 -24 -55t-38.5 -33t-46 -12.5t-46.5 6.5q-3 1 -7 4q-8 6 -7 14q0 4 2.5 7t4.5 5q3 2 7 3q14 5 29.5 19t22.5 31q7 16 7.5 26t-3.5 15.5t-10.5 7t-13.5 0.5q-14 -3 -34 -20t-38.5 -47t-32.5 -71t-17 -92v-8q0 -14 3.5 -20.5t7.5 -10t7.5 -7t4.5 -9.5
q1 -7 -8 -14.5t-23.5 -11t-32 -0.5t-33.5 17t-21.5 39t-3.5 55.5t8.5 63.5t14.5 63t15 54.5t9 37.5q4 21 2 29t-5 16q-2 4 -0.5 6t3.5 4t5 2q12 1 28.5 0t31 -9t22.5 -26.5t4 -51.5q25 38 57.5 65.5t71.5 23.5q28 -3 47 -16q16 -11 27.5 -35t2.5 -65z" />
    <glyph glyph-name="s" unicode="s" horiz-adv-x="252" 
d="M-14 -46q1 1 5.5 9.5t14.5 20.5t25 26.5t36 28.5q-8 18 -20 51.5t-15 72.5t9.5 77.5t51.5 65.5h-1q10 6 21 10q10 3 24 5t31 -1q20 -4 34 -12t24 -19q3 -5 6 -9.5t6 -10.5q16 -29 15.5 -56t-11 -48.5t-28.5 -36t-36 -18.5q-4 -1 -8 -1q-9 0 -14 7q-4 5 -2 13q1 4 3 6
q8 12 11 31.5t-2 36.5q-11 31 -24 33t-23 -8q-10 -11 -14 -37t2 -62q0 -6 5 -21q7 -17 17 -33q0 -1 0.5 -1.5t0.5 -1.5l1 -1q29 10 61 14q43 6 84 -2q9 -2 15 -6q5 -3 9 -8t3 -12t-15.5 -9.5t-36 -5t-47 -7t-47.5 -13.5q12 -27 20 -61t3 -69q-3 -19 -13 -36.5t-27.5 -30
t-41 -18.5t-53.5 -2q-22 3 -36.5 11t-23.5 19q-15 20 -16.5 40t0.5 30q2 11 6 23t11 26zM84 -11q-18 -14 -35 -33.5t-25 -48.5q-3 -11 -3 -21q0 -8 2.5 -15.5t11.5 -9.5v-1q16 -5 27.5 4t15.5 15q2 2 3.5 4.5t2.5 4.5q9 22 7 50t-7 51z" />
    <glyph glyph-name="t" unicode="t" horiz-adv-x="152" 
d="M363 460q8 1 18 -4t16.5 -14t6.5 -21t-13 -24q-11 -11 -32.5 -16.5t-49 -8.5t-59.5 -3t-63 1l-6 -27l-4 -16l-4 -16q-6 -26 -15 -59t-17 -69q-2 -11 -4 -20l-4 -18q-13 -55 -19.5 -89.5t-5.5 -63.5q1 -14 4 -20.5t7 -10.5q3 -3 5.5 -5t4.5 -5q1 -2 1 -3t1 -3
q1 -5 -4 -10.5t-13.5 -10t-20 -6t-23.5 0.5q-9 2 -18.5 5.5t-17.5 11.5q-20 18 -23 52.5t3 75t17.5 81t19.5 69.5q4 16 7.5 30.5t7.5 28.5q8 27 15 52.5t12 49.5q-18 1 -32.5 2t-24.5 1q-25 -1 -33.5 -3t-16.5 -4q-7 -2 -12 0q-2 1 -3 3q-4 9 -6 21t7 23t33 17.5t71 5.5
q8 0 15.5 -0.5t15.5 -0.5q4 26 6 48v18q0 7 -1 13.5t-4 10.5t-5.5 7.5t-2.5 8.5v5q1 7 5 13q4 5 12.5 9t24.5 3q15 -1 29 -12t22 -39q5 -16 6 -37.5t-2 -50.5q38 -1 65.5 -0.5t51.5 3.5q15 2 22 4.5t11 5.5t6.5 5.5t9.5 4.5z" />
    <glyph glyph-name="u" unicode="u" horiz-adv-x="370" 
d="M260 -189q-25 6 -37 25.5t-16.5 42.5t-3 47t3.5 39q-19 -23 -41.5 -37t-50.5 -13h-2q-23 1 -39.5 8t-27.5 16.5t-17 21.5t-9 23q-2 12 -2.5 24t-0.5 22q3 30 9.5 62t14 61t14.5 52t9 36q3 22 1 30t-4 15q-2 6 2 10q2 2 5 3q13 1 31.5 -0.5t32.5 -12t21 -33t-2 -62.5
q-11 -53 -19 -89t-13 -64q-4 -26 -1 -39.5t8 -20.5q5 -8 14 -9q16 -1 30 11t26 31.5t21.5 43.5t16.5 46q3 11 6 23t7 24q2 6 3 12t3 11v2q6 23 11 40t7 28q3 22 1 30t-4 15q-2 6 2 10q2 2 5 3q13 1 31.5 -0.5t32.5 -12t21 -33t-2 -62.5q-5 -21 -8.5 -39.5t-7.5 -34.5
q-2 -12 -5 -24t-6 -26q-4 -18 -8 -38t-9 -40q-6 -28 -7 -47.5t6 -29.5q5 -8 16 -11q16 -2 22.5 4t15.5 4q8 -2 10 -12q1 -4 0 -9q-8 -41 -27 -57.5t-39 -21.5q-24 -5 -51 2z" />
    <glyph glyph-name="v" unicode="v" horiz-adv-x="384" 
d="M402 251q-1 -4 -4 -8q-6 -8 -12 -5q-7 2 -8.5 9.5t-13.5 11.5q-8 3 -16 -2q-14 -9 -29 -42q-2 -3 -6 -13t-9 -19q-6 -16 -22 -53.5t-38.5 -79.5t-50.5 -79t-57 -51q-12 -5 -23.5 -5t-18.5 1q-35 7 -50.5 27t-20.5 40q-3 12 -3 24.5v22.5q3 30 9.5 62t14 61t14.5 52t9 36
q3 22 1 30t-4 15q-2 6 2 10q2 2 5 3q13 1 31.5 -0.5t32.5 -12t21 -33t-2 -62.5q-11 -53 -19 -89t-13 -64q-3 -23 -1.5 -42.5t5.5 -26.5q14 8 27 27t24.5 43.5t21 52t17.5 53t13 45.5t8 30q2 4 2.5 7.5t1.5 6.5q2 8 9 26.5t19 37.5t31 32.5t45 11.5q23 -3 38 -14
q13 -9 20.5 -27t-1.5 -50z" />
    <glyph glyph-name="w" unicode="w" horiz-adv-x="489" 
d="M292 -85q-37 2 -56.5 16t-29.5 32q-18 -22 -40.5 -35.5t-48.5 -12.5h-2q-24 1 -40.5 8t-27 16.5t-16.5 21.5t-9 23q-3 12 -3.5 24t-0.5 22q3 30 9.5 62t14 61t14.5 52t9 36q3 22 1 30t-4 15q-2 6 2 10q2 2 5 3q13 1 31.5 -0.5t32.5 -12t21 -33t-2 -62.5q-11 -53 -19 -89
t-13 -64q-4 -26 -1 -39.5t8 -20.5q5 -8 14 -9q16 -1 29.5 10t24.5 29v22q3 30 9 59t12.5 54t12.5 45t8 33q4 22 2.5 28t-3.5 13q-2 5 0 8t4 5q3 2 7 3q13 1 30.5 0t31 -11.5t19.5 -33t-3 -62.5q-6 -27 -10.5 -45.5t-7.5 -33.5l-5.5 -27.5t-4.5 -26.5q-4 -26 -1 -39.5
t8 -20.5q5 -8 14 -9q2 -1 3.5 -0.5t3.5 0.5q7 2 18 12.5t23.5 40t25 84t23.5 143.5q2 17 1.5 30t-4.5 21q-5 9 -13 10q-12 2 -17.5 -3.5t-12.5 -3.5t-7 11q0 4 1 9q8 32 24.5 43t32.5 12q18 1 39 -8q23 -12 32.5 -34.5t10.5 -45.5t-2.5 -43t-6.5 -28q-8 -30 -18 -60
q-8 -26 -19 -55t-22 -53l-7 -14q-11 -24 -24.5 -46.5t-30 -39.5t-36 -27t-42.5 -9h-2z" />
    <glyph glyph-name="x" unicode="x" horiz-adv-x="313" 
d="M-16 -115q-19 3 -30.5 10t-18.5 15.5t-9.5 17t-2.5 15.5q0 3 1 5q2 4 9 2q22 -10 46 -2.5t47.5 24.5t45 40.5t38.5 46.5q-5 27 -7.5 53.5t-4.5 50t-3.5 42t-3.5 28.5q-4 21 -8 28.5t-9 12.5t-1 11q2 3 4 4q12 6 29.5 10.5t34.5 -1t31 -24.5t19 -60q3 -26 6 -48
q20 29 29.5 47.5t12.5 29.5q4 12 2 19q0 9 -6 15q-10 8 -18 5t-13 2t-1 13q2 4 5 7q22 24 42 27t34 -3q17 -7 31 -24q15 -21 13 -44.5t-11 -43.5t-21.5 -35.5t-18.5 -21.5q-11 -12 -22 -25q-10 -11 -22 -25l-24 -28q5 -27 9.5 -48t11.5 -38q5 -13 10 -18t10 -7.5t9.5 -4
t7.5 -7.5t-3 -16t-18.5 -18t-30 -11t-36.5 5q-16 6 -28 22t-20 38q-33 -48 -72 -73.5t-75 -19.5z" />
    <glyph glyph-name="y" unicode="y" horiz-adv-x="367" 
d="M46 -365q-40 5 -69 23q-12 8 -23.5 19.5t-19.5 28t-11 38t2 50.5q1 9 7.5 26t22 33.5t42.5 27t70 5.5q26 -3 43 -13.5t26.5 -25.5t12 -32t1.5 -31q-2 -23 -12 -28.5t-14 -3.5q-3 1 -4.5 4t-2.5 6q-1 4 -2 7q-2 8 -6 16.5t-11.5 15.5t-19 11.5t-28.5 4.5q-24 -1 -39 -19
t-16 -40.5t14.5 -43t51.5 -25.5q30 -4 53 15t41 56.5t32.5 91.5t29.5 121q-20 -26 -44 -42.5t-53 -15.5h-3q-23 1 -39.5 8t-27 16.5t-16.5 21.5t-9 23q-3 12 -3.5 24t-0.5 22q3 30 9.5 62t14 61t14.5 52t9 36q3 22 1 30t-4 15q-2 6 2 10q2 2 5 3q13 1 31.5 -0.5t32.5 -12
t21 -33t-2 -62.5q-11 -53 -19 -89t-13 -64q-4 -26 -1 -39.5t8 -20.5q5 -8 14 -9q17 -1 32 12.5t27 34.5t21.5 46.5t16 48t10 39.5t4.5 21q4 23 6.5 41.5t3.5 26.5q2 22 0 30t-4 15q-2 6 2 10q2 2 5 2q13 2 31 0.5t32 -12t22 -33t2 -62.5q-15 -94 -33 -180q-8 -37 -18 -76
t-21.5 -75.5t-25 -69t-28.5 -56.5q-32 -51 -79 -77.5t-104 -19.5z" />
    <glyph glyph-name="z" unicode="z" horiz-adv-x="289" 
d="M-9 -183q-24 -1 -39 -19t-15.5 -40.5t14.5 -43t51 -25.5q38 -5 65 25.5t47 90.5q4 12 12.5 44.5t9.5 75.5t-10.5 90t-46.5 86q-5 5 -7 11l-2 6q-2 6 -1.5 14.5t5.5 16.5l3 3q3 3 13 6q11 2 30 7.5t39.5 14.5t39.5 21.5t30 30.5q-20 1 -42.5 0t-43 -3t-38 -4.5t-28.5 -4.5
t-16 -5.5t-7.5 -7t-4.5 -7t-7 -4.5q-6 -2 -13 4t-11.5 17.5t-4.5 25.5t9 29q12 19 41.5 26t64.5 7t70 -4t58 -6q5 0 9 -2q10 -4 16 -11q7 -10 14 -25t6 -33q-1 -5 -1.5 -10t-2.5 -10q-10 -24 -26 -39.5t-35 -25t-39 -14t-37 -7.5q31 -20 50 -57q8 -16 14.5 -36.5t8.5 -47.5
t-0.5 -60.5t-12.5 -73.5q-1 -2 -1 -5t-1 -5q-3 -11 -12 -37t-22 -49q-2 -4 -4.5 -7.5t-5.5 -7.5q-31 -51 -80.5 -77.5t-106.5 -19.5q-40 5 -69 23q-12 8 -23.5 19.5t-19.5 28t-11 38t2 50.5q1 9 7.5 26t22 33.5t42.5 27t70 5.5q26 -3 43 -13.5t26.5 -25.5t12 -32t1.5 -31
q-2 -23 -12 -28.5t-14 -3.5q-3 1 -4.5 4t-2.5 6q-1 4 -1 7q-2 8 -6 16.5t-12 15.5t-19.5 11.5t-28.5 4.5z" />
    <glyph glyph-name="dieresis" unicode="&#xa8;" horiz-adv-x="196" 
d="M49 358q-15 0 -24.5 13.5t-7.5 33.5q2 19 15 33t29 14t25 -14t7 -33q-2 -20 -15 -33.5t-29 -13.5zM135 322q-15 0 -24.5 13.5t-7.5 33.5q2 19 15 33t29 14t25 -14t7 -33q-2 -20 -15 -33.5t-29 -13.5z" />
    <glyph glyph-name="acute" unicode="&#xb4;" horiz-adv-x="257" 
d="M20 431q-3 1 -2 5.5t5 9.5t10 8.5t12 0.5q49 -22 81 -29t58 -9q11 -1 17 0.5t10.5 3.5t8 3.5t8.5 1.5q6 0 8 -7t-1.5 -17t-13 -21.5t-26.5 -19.5q-24 -12 -50 -4t-49.5 23t-43.5 30.5t-32 20.5z" />
    <glyph glyph-name="Agrave" unicode="&#xc0;" 
d="M756 632q20 0 34.5 -15t22.5 -33q18 -45 13.5 -94t-15.5 -94q-18 -74 -45.5 -146.5t-46.5 -147.5h16q2 0 6 2q2 2 5 3.5t5 6.5v2l3 2q2 1 5 1q1 0 2 -1q3 -2 6 -7q6 -13 4 -24q-2 -9 -11 -16.5t-33 -9.5h-18q-2 -5 -2.5 -9t-1.5 -9q-2 -8 -4.5 -21t-2.5 -26t5 -23.5
t17 -13.5q11 -2 19.5 3.5t17.5 3.5q9 -3 11 -12q1 -4 0 -10q-8 -44 -38 -67t-78 -8q-26 8 -38.5 26.5t-16 43t0 52t9.5 54.5q2 8 4 15t4 15q-31 9 -58.5 22t-52.5 28q-59 -63 -122.5 -104t-127.5 -43q-87 -2 -140 24.5t-77.5 68t-22.5 90.5t25 92t64.5 73.5t97.5 35.5
q46 4 87.5 -6t79.5 -28t73 -42.5t67 -50.5q45 63 83 129t67 121q33 64 61 126q2 11 14 16.5t23 4.5zM247 34q51 -1 102 34.5t100 91.5q-32 23 -59 42.5t-50 32.5q-39 22 -78.5 27t-72 -5.5t-54 -37t-25.5 -67.5q-5 -47 16 -71.5t48 -34.5q32 -12 73 -12zM682 291
q11 35 23 71.5t20 74.5q-29 -52 -71 -117t-93 -128q19 -15 36.5 -28.5t34.5 -24.5q12 38 25 76t25 76zM882 624q-12 6 -37 8.5t-52.5 9t-51 19t-32.5 38.5q-6 18 -5 32.5t5.5 24t11 13t10.5 -0.5t5 -7.5t3 -8t5.5 -10t11.5 -12.5q20 -17 47.5 -34.5t77.5 -36.5q6 -3 8 -9
t1.5 -12.5t-3 -11t-5.5 -2.5z" />
    <glyph glyph-name="Aacute" unicode="&#xc1;" 
d="M756 632q20 0 34.5 -15t22.5 -33q18 -45 13.5 -94t-15.5 -94q-18 -74 -45.5 -146.5t-46.5 -147.5h16q2 0 6 2q2 2 5 3.5t5 6.5v2l3 2q2 1 5 1q1 0 2 -1q3 -2 6 -7q6 -13 4 -24q-2 -9 -11 -16.5t-33 -9.5h-18q-2 -5 -2.5 -9t-1.5 -9q-2 -8 -4.5 -21t-2.5 -26t5 -23.5
t17 -13.5q11 -2 19.5 3.5t17.5 3.5q9 -3 11 -12q1 -4 0 -10q-8 -44 -38 -67t-78 -8q-26 8 -38.5 26.5t-16 43t0 52t9.5 54.5q2 8 4 15t4 15q-31 9 -58.5 22t-52.5 28q-59 -63 -122.5 -104t-127.5 -43q-87 -2 -140 24.5t-77.5 68t-22.5 90.5t25 92t64.5 73.5t97.5 35.5
q46 4 87.5 -6t79.5 -28t73 -42.5t67 -50.5q45 63 83 129t67 121q33 64 61 126q2 11 14 16.5t23 4.5zM247 34q51 -1 102 34.5t100 91.5q-32 23 -59 42.5t-50 32.5q-39 22 -78.5 27t-72 -5.5t-54 -37t-25.5 -67.5q-5 -47 16 -71.5t48 -34.5q32 -12 73 -12zM682 291
q11 35 23 71.5t20 74.5q-29 -52 -71 -117t-93 -128q19 -15 36.5 -28.5t34.5 -24.5q12 38 25 76t25 76zM689 724q-3 1 -2 5.5t5 9.5t10 8.5t12 0.5q49 -22 81 -29t58 -9q11 -1 17 0.5t10.5 3.5t8 3.5t8.5 1.5q6 0 8 -7t-1.5 -17t-13 -21.5t-26.5 -19.5q-24 -12 -50 -4
t-49.5 23t-43.5 30.5t-32 20.5z" />
    <glyph glyph-name="Acircumflex" unicode="&#xc2;" 
d="M756 632q20 0 34.5 -15t22.5 -33q18 -45 13.5 -94t-15.5 -94q-18 -74 -45.5 -146.5t-46.5 -147.5h16q2 0 6 2q2 2 5 3.5t5 6.5v2l3 2q2 1 5 1q1 0 2 -1q3 -2 6 -7q6 -13 4 -24q-2 -9 -11 -16.5t-33 -9.5h-18q-2 -5 -2.5 -9t-1.5 -9q-2 -8 -4.5 -21t-2.5 -26t5 -23.5
t17 -13.5q11 -2 19.5 3.5t17.5 3.5q9 -3 11 -12q1 -4 0 -10q-8 -44 -38 -67t-78 -8q-26 8 -38.5 26.5t-16 43t0 52t9.5 54.5q2 8 4 15t4 15q-31 9 -58.5 22t-52.5 28q-59 -63 -122.5 -104t-127.5 -43q-87 -2 -140 24.5t-77.5 68t-22.5 90.5t25 92t64.5 73.5t97.5 35.5
q46 4 87.5 -6t79.5 -28t73 -42.5t67 -50.5q45 63 83 129t67 121q33 64 61 126q2 11 14 16.5t23 4.5zM247 34q51 -1 102 34.5t100 91.5q-32 23 -59 42.5t-50 32.5q-39 22 -78.5 27t-72 -5.5t-54 -37t-25.5 -67.5q-5 -47 16 -71.5t48 -34.5q32 -12 73 -12zM682 291
q11 35 23 71.5t20 74.5q-29 -52 -71 -117t-93 -128q19 -15 36.5 -28.5t34.5 -24.5q12 38 25 76t25 76zM696 689q-3 -1 -3.5 4t1 12t5 12.5t9.5 6.5q27 5 45 10q1 0 8.5 4t17.5 8t20 6.5t15 -0.5l28 -46q6 -8 13.5 -16t17.5 -18q4 -4 3.5 -11t-3 -13t-6 -9.5t-4.5 -1.5
q-9 10 -32.5 20.5t-44.5 28.5q-28 -2 -52.5 2.5t-37.5 0.5z" />
    <glyph glyph-name="Atilde" unicode="&#xc3;" 
d="M756 632q20 0 34.5 -15t22.5 -33q18 -45 13.5 -94t-15.5 -94q-18 -74 -45.5 -146.5t-46.5 -147.5h16q2 0 6 2q2 2 5 3.5t5 6.5v2l3 2q2 1 5 1q1 0 2 -1q3 -2 6 -7q6 -13 4 -24q-2 -9 -11 -16.5t-33 -9.5h-18q-2 -5 -2.5 -9t-1.5 -9q-2 -8 -4.5 -21t-2.5 -26t5 -23.5
t17 -13.5q11 -2 19.5 3.5t17.5 3.5q9 -3 11 -12q1 -4 0 -10q-8 -44 -38 -67t-78 -8q-26 8 -38.5 26.5t-16 43t0 52t9.5 54.5q2 8 4 15t4 15q-31 9 -58.5 22t-52.5 28q-59 -63 -122.5 -104t-127.5 -43q-87 -2 -140 24.5t-77.5 68t-22.5 90.5t25 92t64.5 73.5t97.5 35.5
q46 4 87.5 -6t79.5 -28t73 -42.5t67 -50.5q45 63 83 129t67 121q33 64 61 126q2 11 14 16.5t23 4.5zM247 34q51 -1 102 34.5t100 91.5q-32 23 -59 42.5t-50 32.5q-39 22 -78.5 27t-72 -5.5t-54 -37t-25.5 -67.5q-5 -47 16 -71.5t48 -34.5q32 -12 73 -12zM682 291
q11 35 23 71.5t20 74.5q-29 -52 -71 -117t-93 -128q19 -15 36.5 -28.5t34.5 -24.5q12 38 25 76t25 76zM735 694q-11 5 -15.5 5.5t-9.5 -0.5q-4 -1 -6 3q-1 2 0 3q1 7 5 17t11.5 16.5t21 7t34.5 -10.5q42 -22 65 -33.5t43 -16.5q7 -2 11.5 -1t7 2.5t4.5 3t6 1.5q4 -1 6.5 -7
t2.5 -14.5t-4.5 -17.5t-14.5 -16q-15 -10 -39 -4t-49 18.5t-47.5 25.5t-32.5 18z" />
    <glyph glyph-name="Adieresis" unicode="&#xc4;" 
d="M756 632q20 0 34.5 -15t22.5 -33q18 -45 13.5 -94t-15.5 -94q-18 -74 -45.5 -146.5t-46.5 -147.5h16q2 0 6 2q2 2 5 3.5t5 6.5v2l3 2q2 1 5 1q1 0 2 -1q3 -2 6 -7q6 -13 4 -24q-2 -9 -11 -16.5t-33 -9.5h-18q-2 -5 -2.5 -9t-1.5 -9q-2 -8 -4.5 -21t-2.5 -26t5 -23.5
t17 -13.5q11 -2 19.5 3.5t17.5 3.5q9 -3 11 -12q1 -4 0 -10q-8 -44 -38 -67t-78 -8q-26 8 -38.5 26.5t-16 43t0 52t9.5 54.5q2 8 4 15t4 15q-31 9 -58.5 22t-52.5 28q-59 -63 -122.5 -104t-127.5 -43q-87 -2 -140 24.5t-77.5 68t-22.5 90.5t25 92t64.5 73.5t97.5 35.5
q46 4 87.5 -6t79.5 -28t73 -42.5t67 -50.5q45 63 83 129t67 121q33 64 61 126q2 11 14 16.5t23 4.5zM247 34q51 -1 102 34.5t100 91.5q-32 23 -59 42.5t-50 32.5q-39 22 -78.5 27t-72 -5.5t-54 -37t-25.5 -67.5q-5 -47 16 -71.5t48 -34.5q32 -12 73 -12zM682 291
q11 35 23 71.5t20 74.5q-29 -52 -71 -117t-93 -128q19 -15 36.5 -28.5t34.5 -24.5q12 38 25 76t25 76zM761 663q-15 0 -24.5 13.5t-7.5 33.5q2 19 15 33t29 14t25 -14t7 -33q-2 -20 -15 -33.5t-29 -13.5zM847 627q-15 0 -24.5 13.5t-7.5 33.5q2 19 15 33t29 14t25 -14t7 -33
q-2 -20 -15 -33.5t-29 -13.5z" />
    <glyph glyph-name="Aring" unicode="&#xc5;" 
d="M756 632q20 0 34.5 -15t22.5 -33q18 -45 13.5 -94t-15.5 -94q-18 -74 -45.5 -146.5t-46.5 -147.5h16q2 0 6 2q2 2 5 3.5t5 6.5v2l3 2q2 1 5 1q1 0 2 -1q3 -2 6 -7q6 -13 4 -24q-2 -9 -11 -16.5t-33 -9.5h-18q-2 -5 -2.5 -9t-1.5 -9q-2 -8 -4.5 -21t-2.5 -26t5 -23.5
t17 -13.5q11 -2 19.5 3.5t17.5 3.5q9 -3 11 -12q1 -4 0 -10q-8 -44 -38 -67t-78 -8q-26 8 -38.5 26.5t-16 43t0 52t9.5 54.5q2 8 4 15t4 15q-31 9 -58.5 22t-52.5 28q-59 -63 -122.5 -104t-127.5 -43q-87 -2 -140 24.5t-77.5 68t-22.5 90.5t25 92t64.5 73.5t97.5 35.5
q46 4 87.5 -6t79.5 -28t73 -42.5t67 -50.5q45 63 83 129t67 121q33 64 61 126q2 11 14 16.5t23 4.5zM247 34q51 -1 102 34.5t100 91.5q-32 23 -59 42.5t-50 32.5q-39 22 -78.5 27t-72 -5.5t-54 -37t-25.5 -67.5q-5 -47 16 -71.5t48 -34.5q32 -12 73 -12zM682 291
q11 35 23 71.5t20 74.5q-29 -52 -71 -117t-93 -128q19 -15 36.5 -28.5t34.5 -24.5q12 38 25 76t25 76zM814 647q-15 0 -24.5 13.5t-7.5 33.5q2 19 15 33t29 14t25 -14t7 -33q-2 -20 -15 -33.5t-29 -13.5zM816 666q13 0 15 16t-11 16t-15 -16t11 -16z" />
    <glyph glyph-name="Egrave" unicode="&#xc8;" horiz-adv-x="565" 
d="M42 24q-9 50 -2 89.5t24 69.5t42 51t51 36q22 12 42.5 19.5t37.5 12.5q19 5 36 8q-21 2 -42 18.5t-35 43.5q-17 31 -14 80q2 25 10.5 45.5t19.5 36t22.5 26t19.5 16.5q7 6 24.5 17t43.5 21t60 15.5t73 1.5q3 0 11.5 -2t18.5 -6.5t21 -13t19 -21.5q13 -21 12.5 -48.5
t-7.5 -50.5q-1 -3 -4.5 -13t-10.5 -21q-10 -15 -23.5 -29.5t-31.5 -28.5q-30 -20 -58 -27q-29 -8 -49 -1t-32 32q-14 28 -5.5 45.5t20.5 27.5l4 2q4 2 7 1q4 -2 4 -4v-3q-4 -29 16 -29q26 0 46 10.5t33 24.5q15 16 26 36q6 14 7 24.5t-1 18t-5.5 12t-5.5 6.5q-5 4 -14 7
t-22 4q-20 2 -50 -6.5t-65 -36.5q-3 -3 -11 -10.5t-16.5 -19t-14.5 -26.5t-6 -32q0 -16 4.5 -34t15 -34t27 -29t40.5 -19q9 -3 15 -7q5 -4 9.5 -11t3.5 -18q-1 -17 -15 -28.5t-49 -19.5q-58 -16 -100 -43q-18 -12 -34.5 -27t-28.5 -34.5t-17 -43.5t1 -52q5 -24 15.5 -45.5
t28.5 -39.5t43.5 -31t60.5 -18q11 -1 24 -1q11 0 26.5 2t33.5 7q17 5 34 13.5t31 22.5t23.5 34t12.5 47q2 13 0 27q-2 12 -6 25.5t-15 26.5q-16 12 -31 -14l-2 -2q-3 -3 -5 -2q-3 2 -5 5q-1 2 -1 4q-2 8 -3 17t2 18t10 17.5t21 15.5q23 11 44 7q18 -4 36 -25q12 -15 20 -38
t6 -55v-5q-2 -46 -21.5 -84t-53.5 -66q-32 -27 -77 -41.5t-99 -12.5q-36 0 -74 8t-72.5 26.5t-62 49t-42.5 77.5v1zM562 635q-12 6 -37 8.5t-52.5 9t-51 19t-32.5 38.5q-6 18 -5 32.5t5.5 24t11 13t10.5 -0.5t5 -7.5t3 -8t5.5 -10t11.5 -12.5q20 -17 47.5 -34.5t77.5 -36.5
q6 -3 8 -9t1.5 -12.5t-3 -11t-5.5 -2.5z" />
    <glyph glyph-name="Eacute" unicode="&#xc9;" horiz-adv-x="565" 
d="M42 24q-9 50 -2 89.5t24 69.5t42 51t51 36q22 12 42.5 19.5t37.5 12.5q19 5 36 8q-21 2 -42 18.5t-35 43.5q-17 31 -14 80q2 25 10.5 45.5t19.5 36t22.5 26t19.5 16.5q7 6 24.5 17t43.5 21t60 15.5t73 1.5q3 0 11.5 -2t18.5 -6.5t21 -13t19 -21.5q13 -21 12.5 -48.5
t-7.5 -50.5q-1 -3 -4.5 -13t-10.5 -21q-10 -15 -23.5 -29.5t-31.5 -28.5q-30 -20 -58 -27q-29 -8 -49 -1t-32 32q-14 28 -5.5 45.5t20.5 27.5l4 2q4 2 7 1q4 -2 4 -4v-3q-4 -29 16 -29q26 0 46 10.5t33 24.5q15 16 26 36q6 14 7 24.5t-1 18t-5.5 12t-5.5 6.5q-5 4 -14 7
t-22 4q-20 2 -50 -6.5t-65 -36.5q-3 -3 -11 -10.5t-16.5 -19t-14.5 -26.5t-6 -32q0 -16 4.5 -34t15 -34t27 -29t40.5 -19q9 -3 15 -7q5 -4 9.5 -11t3.5 -18q-1 -17 -15 -28.5t-49 -19.5q-58 -16 -100 -43q-18 -12 -34.5 -27t-28.5 -34.5t-17 -43.5t1 -52q5 -24 15.5 -45.5
t28.5 -39.5t43.5 -31t60.5 -18q11 -1 24 -1q11 0 26.5 2t33.5 7q17 5 34 13.5t31 22.5t23.5 34t12.5 47q2 13 0 27q-2 12 -6 25.5t-15 26.5q-16 12 -31 -14l-2 -2q-3 -3 -5 -2q-3 2 -5 5q-1 2 -1 4q-2 8 -3 17t2 18t10 17.5t21 15.5q23 11 44 7q18 -4 36 -25q12 -15 20 -38
t6 -55v-5q-2 -46 -21.5 -84t-53.5 -66q-32 -27 -77 -41.5t-99 -12.5q-36 0 -74 8t-72.5 26.5t-62 49t-42.5 77.5v1zM388 717q-3 1 -2 5.5t5 9.5t10 8.5t12 0.5q49 -22 81 -29t58 -9q11 -1 17 0.5t10.5 3.5t8 3.5t8.5 1.5q6 0 8 -7t-1.5 -17t-13 -21.5t-26.5 -19.5
q-24 -12 -50 -4t-49.5 23t-43.5 30.5t-32 20.5z" />
    <glyph glyph-name="Ecircumflex" unicode="&#xca;" horiz-adv-x="565" 
d="M42 24q-9 50 -2 89.5t24 69.5t42 51t51 36q22 12 42.5 19.5t37.5 12.5q19 5 36 8q-21 2 -42 18.5t-35 43.5q-17 31 -14 80q2 25 10.5 45.5t19.5 36t22.5 26t19.5 16.5q7 6 24.5 17t43.5 21t60 15.5t73 1.5q3 0 11.5 -2t18.5 -6.5t21 -13t19 -21.5q13 -21 12.5 -48.5
t-7.5 -50.5q-1 -3 -4.5 -13t-10.5 -21q-10 -15 -23.5 -29.5t-31.5 -28.5q-30 -20 -58 -27q-29 -8 -49 -1t-32 32q-14 28 -5.5 45.5t20.5 27.5l4 2q4 2 7 1q4 -2 4 -4v-3q-4 -29 16 -29q26 0 46 10.5t33 24.5q15 16 26 36q6 14 7 24.5t-1 18t-5.5 12t-5.5 6.5q-5 4 -14 7
t-22 4q-20 2 -50 -6.5t-65 -36.5q-3 -3 -11 -10.5t-16.5 -19t-14.5 -26.5t-6 -32q0 -16 4.5 -34t15 -34t27 -29t40.5 -19q9 -3 15 -7q5 -4 9.5 -11t3.5 -18q-1 -17 -15 -28.5t-49 -19.5q-58 -16 -100 -43q-18 -12 -34.5 -27t-28.5 -34.5t-17 -43.5t1 -52q5 -24 15.5 -45.5
t28.5 -39.5t43.5 -31t60.5 -18q11 -1 24 -1q11 0 26.5 2t33.5 7q17 5 34 13.5t31 22.5t23.5 34t12.5 47q2 13 0 27q-2 12 -6 25.5t-15 26.5q-16 12 -31 -14l-2 -2q-3 -3 -5 -2q-3 2 -5 5q-1 2 -1 4q-2 8 -3 17t2 18t10 17.5t21 15.5q23 11 44 7q18 -4 36 -25q12 -15 20 -38
t6 -55v-5q-2 -46 -21.5 -84t-53.5 -66q-32 -27 -77 -41.5t-99 -12.5q-36 0 -74 8t-72.5 26.5t-62 49t-42.5 77.5v1zM398 674q-3 -1 -3.5 4t1 12t5 12.5t9.5 6.5q27 5 45 10q1 0 8.5 4t17.5 8t20 6.5t15 -0.5l28 -46q6 -8 13.5 -16t17.5 -18q4 -4 3.5 -11t-3 -13t-6 -9.5
t-4.5 -1.5q-9 10 -32.5 20.5t-44.5 28.5q-28 -2 -52.5 2.5t-37.5 0.5z" />
    <glyph glyph-name="Edieresis" unicode="&#xcb;" horiz-adv-x="565" 
d="M42 24q-9 50 -2 89.5t24 69.5t42 51t51 36q22 12 42.5 19.5t37.5 12.5q19 5 36 8q-21 2 -42 18.5t-35 43.5q-17 31 -14 80q2 25 10.5 45.5t19.5 36t22.5 26t19.5 16.5q7 6 24.5 17t43.5 21t60 15.5t73 1.5q3 0 11.5 -2t18.5 -6.5t21 -13t19 -21.5q13 -21 12.5 -48.5
t-7.5 -50.5q-1 -3 -4.5 -13t-10.5 -21q-10 -15 -23.5 -29.5t-31.5 -28.5q-30 -20 -58 -27q-29 -8 -49 -1t-32 32q-14 28 -5.5 45.5t20.5 27.5l4 2q4 2 7 1q4 -2 4 -4v-3q-4 -29 16 -29q26 0 46 10.5t33 24.5q15 16 26 36q6 14 7 24.5t-1 18t-5.5 12t-5.5 6.5q-5 4 -14 7
t-22 4q-20 2 -50 -6.5t-65 -36.5q-3 -3 -11 -10.5t-16.5 -19t-14.5 -26.5t-6 -32q0 -16 4.5 -34t15 -34t27 -29t40.5 -19q9 -3 15 -7q5 -4 9.5 -11t3.5 -18q-1 -17 -15 -28.5t-49 -19.5q-58 -16 -100 -43q-18 -12 -34.5 -27t-28.5 -34.5t-17 -43.5t1 -52q5 -24 15.5 -45.5
t28.5 -39.5t43.5 -31t60.5 -18q11 -1 24 -1q11 0 26.5 2t33.5 7q17 5 34 13.5t31 22.5t23.5 34t12.5 47q2 13 0 27q-2 12 -6 25.5t-15 26.5q-16 12 -31 -14l-2 -2q-3 -3 -5 -2q-3 2 -5 5q-1 2 -1 4q-2 8 -3 17t2 18t10 17.5t21 15.5q23 11 44 7q18 -4 36 -25q12 -15 20 -38
t6 -55v-5q-2 -46 -21.5 -84t-53.5 -66q-32 -27 -77 -41.5t-99 -12.5q-36 0 -74 8t-72.5 26.5t-62 49t-42.5 77.5v1zM449 658q-15 0 -24.5 13.5t-7.5 33.5q2 19 15 33t29 14t25 -14t7 -33q-2 -20 -15 -33.5t-29 -13.5zM535 622q-15 0 -24.5 13.5t-7.5 33.5q2 19 15 33t29 14
t25 -14t7 -33q-2 -20 -15 -33.5t-29 -13.5z" />
    <glyph glyph-name="Igrave" unicode="&#xcc;" horiz-adv-x="310" 
d="M79 245q-25 5 -40 26.5t-17 53.5q-1 34 5 71q5 31 17.5 69t36.5 75q25 40 59 62t68 29t64 1t48 -23q15 -13 23 -35q18 -45 13.5 -94t-15.5 -94q-21 -89 -50.5 -176t-48.5 -177q-2 -8 -4 -21t-2 -26t4.5 -23.5t16.5 -13.5q11 -2 19.5 3.5t18.5 3.5q8 -3 10 -12q1 -4 0 -10
q-3 -22 -13.5 -39t-26.5 -27.5t-36.5 -13.5t-44.5 5q-26 8 -38.5 26.5t-16 43t0 52t9.5 54.5q14 61 34.5 122.5t40.5 123.5q10 30 20 61t18 63t13 64t4 63v8t-1 9q0 5 -2 12t-5.5 12t-10 8t-16.5 1q-13 -3 -37 -25t-46 -58.5t-36 -85t-7 -105.5q3 -23 36 -9h3q4 0 6 -2
q1 -2 0.5 -4t-0.5 -4q-1 -3 -1 -4q-6 -16 -22 -31t-51 -9zM390 632q-12 6 -37 8.5t-52.5 9t-51 19t-32.5 38.5q-6 18 -5 32.5t5.5 24t11 13t10.5 -0.5t5 -7.5t3 -8t5.5 -10t11.5 -12.5q20 -17 47.5 -34.5t77.5 -36.5q6 -3 8 -9t1.5 -12.5t-3 -11t-5.5 -2.5z" />
    <glyph glyph-name="Iacute" unicode="&#xcd;" horiz-adv-x="310" 
d="M79 245q-25 5 -40 26.5t-17 53.5q-1 34 5 71q5 31 17.5 69t36.5 75q25 40 59 62t68 29t64 1t48 -23q15 -13 23 -35q18 -45 13.5 -94t-15.5 -94q-21 -89 -50.5 -176t-48.5 -177q-2 -8 -4 -21t-2 -26t4.5 -23.5t16.5 -13.5q11 -2 19.5 3.5t18.5 3.5q8 -3 10 -12q1 -4 0 -10
q-3 -22 -13.5 -39t-26.5 -27.5t-36.5 -13.5t-44.5 5q-26 8 -38.5 26.5t-16 43t0 52t9.5 54.5q14 61 34.5 122.5t40.5 123.5q10 30 20 61t18 63t13 64t4 63v8t-1 9q0 5 -2 12t-5.5 12t-10 8t-16.5 1q-13 -3 -37 -25t-46 -58.5t-36 -85t-7 -105.5q3 -23 36 -9h3q4 0 6 -2
q1 -2 0.5 -4t-0.5 -4q-1 -3 -1 -4q-6 -16 -22 -31t-51 -9zM206 721q-3 1 -2 5.5t5 9.5t10 8.5t12 0.5q49 -22 81 -29t58 -9q11 -1 17 0.5t10.5 3.5t8 3.5t8.5 1.5q6 0 8 -7t-1.5 -17t-13 -21.5t-26.5 -19.5q-24 -12 -50 -4t-49.5 23t-43.5 30.5t-32 20.5z" />
    <glyph glyph-name="Icircumflex" unicode="&#xce;" horiz-adv-x="310" 
d="M79 245q-25 5 -40 26.5t-17 53.5q-1 34 5 71q5 31 17.5 69t36.5 75q25 40 59 62t68 29t64 1t48 -23q15 -13 23 -35q18 -45 13.5 -94t-15.5 -94q-21 -89 -50.5 -176t-48.5 -177q-2 -8 -4 -21t-2 -26t4.5 -23.5t16.5 -13.5q11 -2 19.5 3.5t18.5 3.5q8 -3 10 -12q1 -4 0 -10
q-3 -22 -13.5 -39t-26.5 -27.5t-36.5 -13.5t-44.5 5q-26 8 -38.5 26.5t-16 43t0 52t9.5 54.5q14 61 34.5 122.5t40.5 123.5q10 30 20 61t18 63t13 64t4 63v8t-1 9q0 5 -2 12t-5.5 12t-10 8t-16.5 1q-13 -3 -37 -25t-46 -58.5t-36 -85t-7 -105.5q3 -23 36 -9h3q4 0 6 -2
q1 -2 0.5 -4t-0.5 -4q-1 -3 -1 -4q-6 -16 -22 -31t-51 -9zM207 664q-3 -1 -3.5 4t1 12t5 12.5t9.5 6.5q27 5 45 10q1 0 8.5 4t17.5 8t20 6.5t15 -0.5l28 -46q6 -8 13.5 -16t17.5 -18q4 -4 3.5 -11t-3 -13t-6 -9.5t-4.5 -1.5q-9 10 -32.5 20.5t-44.5 28.5q-28 -2 -52.5 2.5
t-37.5 0.5z" />
    <glyph glyph-name="Idieresis" unicode="&#xcf;" horiz-adv-x="310" 
d="M79 245q-25 5 -40 26.5t-17 53.5q-1 34 5 71q5 31 17.5 69t36.5 75q25 40 59 62t68 29t64 1t48 -23q15 -13 23 -35q18 -45 13.5 -94t-15.5 -94q-21 -89 -50.5 -176t-48.5 -177q-2 -8 -4 -21t-2 -26t4.5 -23.5t16.5 -13.5q11 -2 19.5 3.5t18.5 3.5q8 -3 10 -12q1 -4 0 -10
q-3 -22 -13.5 -39t-26.5 -27.5t-36.5 -13.5t-44.5 5q-26 8 -38.5 26.5t-16 43t0 52t9.5 54.5q14 61 34.5 122.5t40.5 123.5q10 30 20 61t18 63t13 64t4 63v8t-1 9q0 5 -2 12t-5.5 12t-10 8t-16.5 1q-13 -3 -37 -25t-46 -58.5t-36 -85t-7 -105.5q3 -23 36 -9h3q4 0 6 -2
q1 -2 0.5 -4t-0.5 -4q-1 -3 -1 -4q-6 -16 -22 -31t-51 -9zM259 654q-15 0 -24.5 13.5t-7.5 33.5q2 19 15 33t29 14t25 -14t7 -33q-2 -20 -15 -33.5t-29 -13.5zM345 618q-15 0 -24.5 13.5t-7.5 33.5q2 19 15 33t29 14t25 -14t7 -33q-2 -20 -15 -33.5t-29 -13.5z" />
    <glyph glyph-name="Eth" unicode="&#xd0;" horiz-adv-x="711" 
d="M196 58q-53 19 -87 50.5t-53.5 67.5t-27 74t-5.5 71q3 65 21 113t45 82.5t60.5 56t68.5 34.5q81 30 181 25q2 0 31.5 -4t70.5 -17t86 -38t80 -68.5t52 -107.5t1 -154q-16 -92 -44.5 -156t-64 -107t-74 -67t-74 -36t-65 -14t-45.5 -1q-52 4 -83.5 25t-48 50t-21.5 61.5
t-4 59.5zM377 586h-23.5t-51.5 -6.5t-64.5 -21t-63.5 -44t-47.5 -75.5t-16.5 -115q1 -41 10.5 -70.5t24 -50.5t31.5 -34.5t33 -20.5q5 23 11 48t14 53q18 63 30.5 108.5t18 74.5t2.5 42.5t-16 14.5q-5 0 -7 1.5t-4 3.5t-2 5q-1 5 -0.5 8t1.5 6q1 2 2.5 3t3.5 3t4 3
q13 8 30 12t38 0q27 -5 36 -27.5t6.5 -56.5t-12.5 -76t-20 -85l-3 -15l-15 -59q-6 -23 -12.5 -47t-12.5 -48q2 -1 4 -1t4 -1q2 0 4 -0.5t4 -0.5q22 0 16 33v4q0 3 4 4q2 1 7 -1q2 -1 5 -2q7 -5 13.5 -12t10.5 -17t4 -22.5t-7 -27.5q-13 -28 -34 -36.5t-53 -2.5
q-1 -6 -1.5 -11.5t-1.5 -10.5q-4 -30 4 -48.5t20.5 -29t25.5 -14t20 -4.5q3 -1 8 -1h4q9 0 26 2t39 11t47.5 27.5t50.5 52t48.5 84t41.5 123.5q17 68 15.5 120t-15 90.5t-36 65t-49.5 44.5q-62 40 -154 48zM214 247q-13 0 -21 -1.5t-13 -3t-8.5 -3t-7.5 -1.5q-9 0 -11.5 16
t-2.5 29q0 10 3 19t10.5 16t21 11.5t34.5 4.5h10.5t11.5 -1q42 -4 60 -6t26.5 -2.5t14.5 -1t23 -2.5q14 0 21 2.5t11.5 6t7.5 6.5t10 3q8 0 14 -10.5t6 -27.5q0 -10 -2.5 -22t-10 -22.5t-21 -17.5t-35.5 -7q-18 0 -39 2t-41.5 5t-39.5 5.5t-32 2.5z" />
    <glyph glyph-name="Ntilde" unicode="&#xd1;" horiz-adv-x="1042" 
d="M669 632q7 0 14 -1q6 -1 14 -2.5t17 -4.5q25 -9 58 -35t62 -82q19 -32 35.5 -76t27.5 -100.5t16 -126t1 -152.5q8 25 15 52.5t13 54t11 50.5t9 44q14 63 26.5 127t31.5 124q8 26 19 51.5t26 45t34.5 29.5t46.5 4q25 -6 41.5 -18.5t25 -29.5t9 -37t-7.5 -41q-2 -5 -5 -9
q-6 -8 -15 -5t-13.5 12t-15.5 13q-12 4 -21 -3t-15.5 -18.5t-11 -24.5t-7.5 -20q-28 -87 -47 -179.5t-45 -180.5q-6 -22 -15.5 -52.5t-22.5 -61t-28.5 -57.5t-34.5 -42q-11 -9 -23 -13q-7 -3 -12.5 -3.5t-10.5 0.5q-7 1 -11.5 3t-6.5 4q-15 13 -23.5 29.5t-13.5 32.5
q-2 6 -1.5 10.5t0.5 6.5q20 95 23 175t-5.5 145t-24 115.5t-33.5 86.5q-1 -27 -3.5 -52.5t-6.5 -45.5q-4 -23 -10 -43q-23 -89 -51.5 -156.5t-60.5 -117t-65.5 -83.5t-64.5 -55q-73 -50 -151 -55q-86 -3 -137 24.5t-72 70t-15.5 93t31 95.5t68.5 76.5t97 35.5
q65 6 99.5 -9.5t48.5 -37.5t14.5 -43t-2.5 -27q-2 -6 -8 -6t-11 2q-7 3 -14 7q-38 21 -77 22.5t-72.5 -13.5t-57.5 -45t-32 -71q-5 -24 -1.5 -41.5t12.5 -30t21.5 -21t26.5 -13.5q33 -12 78 -12q38 0 78.5 26t79 76t72.5 121.5t60 163.5q4 15 11.5 42t14.5 58.5t12.5 63.5
t6.5 57.5t-4 41.5t-19 15q-23 -2 -34.5 -22.5t-15.5 -43.5q0 -2 -1 -7.5t-2 -13.5t-1.5 -16.5t0.5 -14.5q3 -17 24 -13h3q3 0 5 -4q0 -3 -2 -7q-1 -2 -3 -4q-13 -13 -35.5 -23t-54.5 1q-34 11 -34 51q0 14 7.5 41.5t25 54.5t46 47.5t70.5 20.5zM855 707q-11 5 -15.5 5.5
t-9.5 -0.5q-4 -1 -6 3q-1 2 0 3q1 7 5 17t11.5 16.5t21 7t34.5 -10.5q42 -22 65 -33.5t43 -16.5q7 -2 11.5 -1t7 2.5t4.5 3t6 1.5q4 -1 6.5 -7t2.5 -14.5t-4.5 -17.5t-14.5 -16q-15 -10 -39 -4t-49 18.5t-47.5 25.5t-32.5 18z" />
    <glyph glyph-name="Ograve" unicode="&#xd2;" horiz-adv-x="669" 
d="M124 280q20 68 46.5 119t56 88.5t60.5 63t61 41.5q70 38 144 40q36 1 66 -7q26 -7 48.5 -23t28.5 -49q1 -5 1 -11q0 -12 -3 -25q-11 -44 -55 -51q-17 -3 -29.5 0t-21 9t-14 14.5t-8.5 16.5q-1 1 -1 4v4t1 4t6 2h3q35 -17 38 18q0 3 -1 10t-6 14.5t-15.5 13.5t-29.5 8
q-23 2 -57.5 -9t-73 -46.5t-77.5 -101.5t-72 -174q-23 -83 -19 -152q1 -29 9 -58.5t25 -54t44.5 -43t69.5 -25.5q31 -4 57 2.5t46 17.5t33.5 23.5t20.5 21.5q33 42 54.5 105t33.5 141q10 65 1.5 102t-21.5 55q-16 21 -39 25t-41.5 0t-33 -13t-25.5 -22t-19 -27
q-18 -33 -27 -78q-8 -60 -2 -88.5t10 -35.5q1 -2 2 -3t2 -3q10 -15 28 0q1 0 3 1q4 0 5 -1q2 -4 2 -7t-1 -5q-5 -17 -20 -37t-48 -25q-20 -3 -33 4.5t-22 24.5q-2 4 -4 9t-4 12q-8 29 -7 59.5t6 56.5q5 30 15 59q10 30 26 58t37.5 50.5t49 38t60.5 20.5q22 3 48.5 0.5
t51.5 -13.5t46 -32.5t32.5 -56t11.5 -83.5t-17 -115q-6 -24 -13 -45.5t-15 -40.5q-26 -62 -55.5 -100t-56.5 -60q-14 -11 -47.5 -28.5t-82.5 -22.5h-3q-36 -3 -77 1.5t-80 20.5t-71.5 45.5t-50.5 77t-18 114t27 157.5zM639 639q-12 6 -37 8.5t-52.5 9t-51 19t-32.5 38.5
q-6 18 -5 32.5t5.5 24t11 13t10.5 -0.5t5 -7.5t3 -8t5.5 -10t11.5 -12.5q20 -17 47.5 -34.5t77.5 -36.5q6 -3 8 -9t1.5 -12.5t-3 -11t-5.5 -2.5z" />
    <glyph glyph-name="Oacute" unicode="&#xd3;" horiz-adv-x="669" 
d="M124 280q20 68 46.5 119t56 88.5t60.5 63t61 41.5q70 38 144 40q36 1 66 -7q26 -7 48.5 -23t28.5 -49q1 -5 1 -11q0 -12 -3 -25q-11 -44 -55 -51q-17 -3 -29.5 0t-21 9t-14 14.5t-8.5 16.5q-1 1 -1 4v4t1 4t6 2h3q35 -17 38 18q0 3 -1 10t-6 14.5t-15.5 13.5t-29.5 8
q-23 2 -57.5 -9t-73 -46.5t-77.5 -101.5t-72 -174q-23 -83 -19 -152q1 -29 9 -58.5t25 -54t44.5 -43t69.5 -25.5q31 -4 57 2.5t46 17.5t33.5 23.5t20.5 21.5q33 42 54.5 105t33.5 141q10 65 1.5 102t-21.5 55q-16 21 -39 25t-41.5 0t-33 -13t-25.5 -22t-19 -27
q-18 -33 -27 -78q-8 -60 -2 -88.5t10 -35.5q1 -2 2 -3t2 -3q10 -15 28 0q1 0 3 1q4 0 5 -1q2 -4 2 -7t-1 -5q-5 -17 -20 -37t-48 -25q-20 -3 -33 4.5t-22 24.5q-2 4 -4 9t-4 12q-8 29 -7 59.5t6 56.5q5 30 15 59q10 30 26 58t37.5 50.5t49 38t60.5 20.5q22 3 48.5 0.5
t51.5 -13.5t46 -32.5t32.5 -56t11.5 -83.5t-17 -115q-6 -24 -13 -45.5t-15 -40.5q-26 -62 -55.5 -100t-56.5 -60q-14 -11 -47.5 -28.5t-82.5 -22.5h-3q-36 -3 -77 1.5t-80 20.5t-71.5 45.5t-50.5 77t-18 114t27 157.5zM454 719q-3 1 -2 5.5t5 9.5t10 8.5t12 0.5
q49 -22 81 -29t58 -9q11 -1 17 0.5t10.5 3.5t8 3.5t8.5 1.5q6 0 8 -7t-1.5 -17t-13 -21.5t-26.5 -19.5q-24 -12 -50 -4t-49.5 23t-43.5 30.5t-32 20.5z" />
    <glyph glyph-name="Ocircumflex" unicode="&#xd4;" horiz-adv-x="669" 
d="M124 280q20 68 46.5 119t56 88.5t60.5 63t61 41.5q70 38 144 40q36 1 66 -7q26 -7 48.5 -23t28.5 -49q1 -5 1 -11q0 -12 -3 -25q-11 -44 -55 -51q-17 -3 -29.5 0t-21 9t-14 14.5t-8.5 16.5q-1 1 -1 4v4t1 4t6 2h3q35 -17 38 18q0 3 -1 10t-6 14.5t-15.5 13.5t-29.5 8
q-23 2 -57.5 -9t-73 -46.5t-77.5 -101.5t-72 -174q-23 -83 -19 -152q1 -29 9 -58.5t25 -54t44.5 -43t69.5 -25.5q31 -4 57 2.5t46 17.5t33.5 23.5t20.5 21.5q33 42 54.5 105t33.5 141q10 65 1.5 102t-21.5 55q-16 21 -39 25t-41.5 0t-33 -13t-25.5 -22t-19 -27
q-18 -33 -27 -78q-8 -60 -2 -88.5t10 -35.5q1 -2 2 -3t2 -3q10 -15 28 0q1 0 3 1q4 0 5 -1q2 -4 2 -7t-1 -5q-5 -17 -20 -37t-48 -25q-20 -3 -33 4.5t-22 24.5q-2 4 -4 9t-4 12q-8 29 -7 59.5t6 56.5q5 30 15 59q10 30 26 58t37.5 50.5t49 38t60.5 20.5q22 3 48.5 0.5
t51.5 -13.5t46 -32.5t32.5 -56t11.5 -83.5t-17 -115q-6 -24 -13 -45.5t-15 -40.5q-26 -62 -55.5 -100t-56.5 -60q-14 -11 -47.5 -28.5t-82.5 -22.5h-3q-36 -3 -77 1.5t-80 20.5t-71.5 45.5t-50.5 77t-18 114t27 157.5zM457 687q-3 -1 -3.5 4t1 12t5 12.5t9.5 6.5q27 5 45 10
q1 0 8.5 4t17.5 8t20 6.5t15 -0.5l28 -46q6 -8 13.5 -16t17.5 -18q4 -4 3.5 -11t-3 -13t-6 -9.5t-4.5 -1.5q-9 10 -32.5 20.5t-44.5 28.5q-28 -2 -52.5 2.5t-37.5 0.5z" />
    <glyph glyph-name="Otilde" unicode="&#xd5;" horiz-adv-x="669" 
d="M124 280q20 68 46.5 119t56 88.5t60.5 63t61 41.5q70 38 144 40q36 1 66 -7q26 -7 48.5 -23t28.5 -49q1 -5 1 -11q0 -12 -3 -25q-11 -44 -55 -51q-17 -3 -29.5 0t-21 9t-14 14.5t-8.5 16.5q-1 1 -1 4v4t1 4t6 2h3q35 -17 38 18q0 3 -1 10t-6 14.5t-15.5 13.5t-29.5 8
q-23 2 -57.5 -9t-73 -46.5t-77.5 -101.5t-72 -174q-23 -83 -19 -152q1 -29 9 -58.5t25 -54t44.5 -43t69.5 -25.5q31 -4 57 2.5t46 17.5t33.5 23.5t20.5 21.5q33 42 54.5 105t33.5 141q10 65 1.5 102t-21.5 55q-16 21 -39 25t-41.5 0t-33 -13t-25.5 -22t-19 -27
q-18 -33 -27 -78q-8 -60 -2 -88.5t10 -35.5q1 -2 2 -3t2 -3q10 -15 28 0q1 0 3 1q4 0 5 -1q2 -4 2 -7t-1 -5q-5 -17 -20 -37t-48 -25q-20 -3 -33 4.5t-22 24.5q-2 4 -4 9t-4 12q-8 29 -7 59.5t6 56.5q5 30 15 59q10 30 26 58t37.5 50.5t49 38t60.5 20.5q22 3 48.5 0.5
t51.5 -13.5t46 -32.5t32.5 -56t11.5 -83.5t-17 -115q-6 -24 -13 -45.5t-15 -40.5q-26 -62 -55.5 -100t-56.5 -60q-14 -11 -47.5 -28.5t-82.5 -22.5h-3q-36 -3 -77 1.5t-80 20.5t-71.5 45.5t-50.5 77t-18 114t27 157.5zM485 699q-11 5 -15.5 5.5t-9.5 -0.5q-4 -1 -6 3
q-1 2 0 3q1 7 5 17t11.5 16.5t21 7t34.5 -10.5q42 -22 65 -33.5t43 -16.5q7 -2 11.5 -1t7 2.5t4.5 3t6 1.5q4 -1 6.5 -7t2.5 -14.5t-4.5 -17.5t-14.5 -16q-15 -10 -39 -4t-49 18.5t-47.5 25.5t-32.5 18z" />
    <glyph glyph-name="Odieresis" unicode="&#xd6;" horiz-adv-x="669" 
d="M124 280q20 68 46.5 119t56 88.5t60.5 63t61 41.5q70 38 144 40q36 1 66 -7q26 -7 48.5 -23t28.5 -49q1 -5 1 -11q0 -12 -3 -25q-11 -44 -55 -51q-17 -3 -29.5 0t-21 9t-14 14.5t-8.5 16.5q-1 1 -1 4v4t1 4t6 2h3q35 -17 38 18q0 3 -1 10t-6 14.5t-15.5 13.5t-29.5 8
q-23 2 -57.5 -9t-73 -46.5t-77.5 -101.5t-72 -174q-23 -83 -19 -152q1 -29 9 -58.5t25 -54t44.5 -43t69.5 -25.5q31 -4 57 2.5t46 17.5t33.5 23.5t20.5 21.5q33 42 54.5 105t33.5 141q10 65 1.5 102t-21.5 55q-16 21 -39 25t-41.5 0t-33 -13t-25.5 -22t-19 -27
q-18 -33 -27 -78q-8 -60 -2 -88.5t10 -35.5q1 -2 2 -3t2 -3q10 -15 28 0q1 0 3 1q4 0 5 -1q2 -4 2 -7t-1 -5q-5 -17 -20 -37t-48 -25q-20 -3 -33 4.5t-22 24.5q-2 4 -4 9t-4 12q-8 29 -7 59.5t6 56.5q5 30 15 59q10 30 26 58t37.5 50.5t49 38t60.5 20.5q22 3 48.5 0.5
t51.5 -13.5t46 -32.5t32.5 -56t11.5 -83.5t-17 -115q-6 -24 -13 -45.5t-15 -40.5q-26 -62 -55.5 -100t-56.5 -60q-14 -11 -47.5 -28.5t-82.5 -22.5h-3q-36 -3 -77 1.5t-80 20.5t-71.5 45.5t-50.5 77t-18 114t27 157.5zM525 683q-15 0 -24.5 13.5t-7.5 33.5q2 19 15 33t29 14
t25 -14t7 -33q-2 -20 -15 -33.5t-29 -13.5zM611 647q-15 0 -24.5 13.5t-7.5 33.5q2 19 15 33t29 14t25 -14t7 -33q-2 -20 -15 -33.5t-29 -13.5z" />
    <glyph glyph-name="multiply" unicode="&#xd7;" horiz-adv-x="287" 
d="M62 143q-8 10 -14 15.5t-10.5 8t-8 4.5t-6.5 5q-6 7 5 19.5t21 20.5q15 12 35.5 12t48.5 -33l13 -17l4 -7q7 5 17 14q10 10 13 17t4 12t1 9.5t5 9.5q6 6 18 2.5t23 -15.5q7 -7 13.5 -17t9 -23t-2 -27.5t-20.5 -29.5q-7 -8 -14 -14.5t-16 -12.5q3 -4 6 -9t9 -13
q9 -11 15.5 -14.5t11.5 -4.5t9 -1.5t9 -5.5q5 -7 1 -18t-17 -22q-8 -6 -18.5 -12t-23.5 -7t-27 4.5t-28 22.5q-5 6 -9 11.5t-9 12.5q-5 -4 -9.5 -7.5t-7.5 -6.5q-9 -9 -13.5 -16t-7 -11.5t-4 -8t-4.5 -6.5t-8.5 -2t-11.5 5t-12 9t-10 10q-14 14 -15.5 34t28.5 51l7.5 7.5
t8.5 7.5l12 8q-5 8 -10.5 15.5t-10.5 13.5z" />
    <glyph glyph-name="Ugrave" unicode="&#xd9;" horiz-adv-x="528" 
d="M566 400q-22 -89 -51 -176t-48 -177q-2 -8 -4.5 -21t-2.5 -26t5 -23.5t17 -13.5q11 -2 19.5 3.5t17.5 3.5q9 -3 11 -12q1 -4 0 -9q-8 -45 -40.5 -68t-81.5 -8q-23 7 -35 22t-17 35t-3.5 43.5t5.5 47.5q-48 -60 -99.5 -82.5t-100.5 -6.5q-28 9 -42 29.5t-18.5 46.5
t-1.5 55.5t9.5 57.5t15 52t14.5 39q8 22 14.5 42t7.5 25q2 8 4.5 16t4.5 16q4 15 9 42t9.5 58t7 63t1 58t-8 42t-20.5 15q-23 -2 -32.5 -22.5t-11.5 -44.5q0 -1 -0.5 -7t-1 -13.5t-0.5 -16t2 -14.5q5 -18 25 -14h4q2 0 4 -3q1 -3 -1 -7q-1 -2 -3 -4q-6 -6 -14 -12.5
t-19 -10.5t-24.5 -4.5t-29.5 4.5q-36 13 -39 52q-2 15 4 45t23.5 58.5t49 47t81.5 11.5q26 -4 43.5 -19t29 -36.5t17 -48t7.5 -53.5q4 -63 -8 -142q-2 -14 -5 -27.5t-6 -25.5q-2 -8 -10 -37t-23 -64q-1 -2 -2.5 -6.5t-3.5 -6.5q-14 -35 -21.5 -61t-10.5 -45.5t-1.5 -32.5
t5.5 -21q9 -19 30 -20q35 0 65.5 27t56 66t45.5 83t32 78q5 14 9 26.5t8 26.5q10 30 20 61t18 63t13 64t5 63q-1 10 -1.5 22t-7.5 20q-5 5 -7.5 9t-3.5 12q0 15 12.5 21.5t25.5 5.5q21 0 34.5 -15t21.5 -33q18 -45 13.5 -94t-15.5 -94zM447 624q-12 6 -37 8.5t-52.5 9
t-51 19t-32.5 38.5q-6 18 -5 32.5t5.5 24t11 13t10.5 -0.5t5 -7.5t3 -8t5.5 -10t11.5 -12.5q20 -17 47.5 -34.5t77.5 -36.5q6 -3 8 -9t1.5 -12.5t-3 -11t-5.5 -2.5z" />
    <glyph glyph-name="Uacute" unicode="&#xda;" horiz-adv-x="528" 
d="M566 400q-22 -89 -51 -176t-48 -177q-2 -8 -4.5 -21t-2.5 -26t5 -23.5t17 -13.5q11 -2 19.5 3.5t17.5 3.5q9 -3 11 -12q1 -4 0 -9q-8 -45 -40.5 -68t-81.5 -8q-23 7 -35 22t-17 35t-3.5 43.5t5.5 47.5q-48 -60 -99.5 -82.5t-100.5 -6.5q-28 9 -42 29.5t-18.5 46.5
t-1.5 55.5t9.5 57.5t15 52t14.5 39q8 22 14.5 42t7.5 25q2 8 4.5 16t4.5 16q4 15 9 42t9.5 58t7 63t1 58t-8 42t-20.5 15q-23 -2 -32.5 -22.5t-11.5 -44.5q0 -1 -0.5 -7t-1 -13.5t-0.5 -16t2 -14.5q5 -18 25 -14h4q2 0 4 -3q1 -3 -1 -7q-1 -2 -3 -4q-6 -6 -14 -12.5
t-19 -10.5t-24.5 -4.5t-29.5 4.5q-36 13 -39 52q-2 15 4 45t23.5 58.5t49 47t81.5 11.5q26 -4 43.5 -19t29 -36.5t17 -48t7.5 -53.5q4 -63 -8 -142q-2 -14 -5 -27.5t-6 -25.5q-2 -8 -10 -37t-23 -64q-1 -2 -2.5 -6.5t-3.5 -6.5q-14 -35 -21.5 -61t-10.5 -45.5t-1.5 -32.5
t5.5 -21q9 -19 30 -20q35 0 65.5 27t56 66t45.5 83t32 78q5 14 9 26.5t8 26.5q10 30 20 61t18 63t13 64t5 63q-1 10 -1.5 22t-7.5 20q-5 5 -7.5 9t-3.5 12q0 15 12.5 21.5t25.5 5.5q21 0 34.5 -15t21.5 -33q18 -45 13.5 -94t-15.5 -94zM262 719q-3 1 -2 5.5t5 9.5t10 8.5
t12 0.5q49 -22 81 -29t58 -9q11 -1 17 0.5t10.5 3.5t8 3.5t8.5 1.5q6 0 8 -7t-1.5 -17t-13 -21.5t-26.5 -19.5q-24 -12 -50 -4t-49.5 23t-43.5 30.5t-32 20.5z" />
    <glyph glyph-name="Ucircumflex" unicode="&#xdb;" horiz-adv-x="528" 
d="M566 400q-22 -89 -51 -176t-48 -177q-2 -8 -4.5 -21t-2.5 -26t5 -23.5t17 -13.5q11 -2 19.5 3.5t17.5 3.5q9 -3 11 -12q1 -4 0 -9q-8 -45 -40.5 -68t-81.5 -8q-23 7 -35 22t-17 35t-3.5 43.5t5.5 47.5q-48 -60 -99.5 -82.5t-100.5 -6.5q-28 9 -42 29.5t-18.5 46.5
t-1.5 55.5t9.5 57.5t15 52t14.5 39q8 22 14.5 42t7.5 25q2 8 4.5 16t4.5 16q4 15 9 42t9.5 58t7 63t1 58t-8 42t-20.5 15q-23 -2 -32.5 -22.5t-11.5 -44.5q0 -1 -0.5 -7t-1 -13.5t-0.5 -16t2 -14.5q5 -18 25 -14h4q2 0 4 -3q1 -3 -1 -7q-1 -2 -3 -4q-6 -6 -14 -12.5
t-19 -10.5t-24.5 -4.5t-29.5 4.5q-36 13 -39 52q-2 15 4 45t23.5 58.5t49 47t81.5 11.5q26 -4 43.5 -19t29 -36.5t17 -48t7.5 -53.5q4 -63 -8 -142q-2 -14 -5 -27.5t-6 -25.5q-2 -8 -10 -37t-23 -64q-1 -2 -2.5 -6.5t-3.5 -6.5q-14 -35 -21.5 -61t-10.5 -45.5t-1.5 -32.5
t5.5 -21q9 -19 30 -20q35 0 65.5 27t56 66t45.5 83t32 78q5 14 9 26.5t8 26.5q10 30 20 61t18 63t13 64t5 63q-1 10 -1.5 22t-7.5 20q-5 5 -7.5 9t-3.5 12q0 15 12.5 21.5t25.5 5.5q21 0 34.5 -15t21.5 -33q18 -45 13.5 -94t-15.5 -94zM281 684q-3 -1 -3.5 4t1 12t5 12.5
t9.5 6.5q27 5 45 10q1 0 8.5 4t17.5 8t20 6.5t15 -0.5l28 -46q6 -8 13.5 -16t17.5 -18q4 -4 3.5 -11t-3 -13t-6 -9.5t-4.5 -1.5q-9 10 -32.5 20.5t-44.5 28.5q-28 -2 -52.5 2.5t-37.5 0.5z" />
    <glyph glyph-name="Udieresis" unicode="&#xdc;" horiz-adv-x="528" 
d="M566 400q-22 -89 -51 -176t-48 -177q-2 -8 -4.5 -21t-2.5 -26t5 -23.5t17 -13.5q11 -2 19.5 3.5t17.5 3.5q9 -3 11 -12q1 -4 0 -9q-8 -45 -40.5 -68t-81.5 -8q-23 7 -35 22t-17 35t-3.5 43.5t5.5 47.5q-48 -60 -99.5 -82.5t-100.5 -6.5q-28 9 -42 29.5t-18.5 46.5
t-1.5 55.5t9.5 57.5t15 52t14.5 39q8 22 14.5 42t7.5 25q2 8 4.5 16t4.5 16q4 15 9 42t9.5 58t7 63t1 58t-8 42t-20.5 15q-23 -2 -32.5 -22.5t-11.5 -44.5q0 -1 -0.5 -7t-1 -13.5t-0.5 -16t2 -14.5q5 -18 25 -14h4q2 0 4 -3q1 -3 -1 -7q-1 -2 -3 -4q-6 -6 -14 -12.5
t-19 -10.5t-24.5 -4.5t-29.5 4.5q-36 13 -39 52q-2 15 4 45t23.5 58.5t49 47t81.5 11.5q26 -4 43.5 -19t29 -36.5t17 -48t7.5 -53.5q4 -63 -8 -142q-2 -14 -5 -27.5t-6 -25.5q-2 -8 -10 -37t-23 -64q-1 -2 -2.5 -6.5t-3.5 -6.5q-14 -35 -21.5 -61t-10.5 -45.5t-1.5 -32.5
t5.5 -21q9 -19 30 -20q35 0 65.5 27t56 66t45.5 83t32 78q5 14 9 26.5t8 26.5q10 30 20 61t18 63t13 64t5 63q-1 10 -1.5 22t-7.5 20q-5 5 -7.5 9t-3.5 12q0 15 12.5 21.5t25.5 5.5q21 0 34.5 -15t21.5 -33q18 -45 13.5 -94t-15.5 -94zM322 653q-15 0 -24.5 13.5t-7.5 33.5
q2 19 15 33t29 14t25 -14t7 -33q-2 -20 -15 -33.5t-29 -13.5zM408 617q-15 0 -24.5 13.5t-7.5 33.5q2 19 15 33t29 14t25 -14t7 -33q-2 -20 -15 -33.5t-29 -13.5z" />
    <glyph glyph-name="Yacute" unicode="&#xdd;" horiz-adv-x="598" 
d="M711 -161q3 -4 8 -12t8.5 -19.5t4.5 -24.5t-4 -28q-1 -1 -2 -3.5t-3 -6.5q-17 -26 -37.5 -28.5t-35.5 2.5q-3 0 -5 2q-5 2 -5 6q-2 3 1 6q1 1 3 2q29 14 18 32q-6 8 -20.5 23.5t-38.5 33t-58 34t-79 26.5q-23 -38 -52 -71.5t-64 -58t-76.5 -37t-90.5 -9.5q-46 3 -78 16
q-14 6 -26 14.5t-19.5 20.5t-9 28.5t6.5 37.5q10 29 43.5 56t82 47.5t108 32t121.5 10.5q13 27 22.5 54t17.5 52q-48 -60 -99.5 -82t-99.5 -6q-28 9 -42 29.5t-18.5 46.5t-1.5 55.5t9.5 57.5t15 52t14.5 39q8 21 14 41.5t8 25.5l4 16l4 16q6 23 13 61t9 74t-4 61.5t-27 24.5
q-23 -2 -32 -22.5t-11 -44.5q0 -1 -1 -7t-1.5 -13.5t-0.5 -16t2 -14.5h1q3 -18 25 -14h3q3 0 5 -3q1 -3 -1 -7q-1 -2 -3 -4q-6 -6 -14.5 -12.5t-19 -10.5t-24.5 -4.5t-30 4.5q-35 13 -38 52q-2 15 4 45t23.5 58.5t49 47t81.5 11.5q26 -4 44 -16.5t29.5 -30t17.5 -39t9 -43.5
q6 -51 -4 -114q-2 -14 -5 -27t-6 -25q-2 -8 -10 -37t-24 -64q-1 -2 -2.5 -6.5t-2.5 -6.5q-29 -70 -32.5 -106.5t4.5 -53.5q9 -19 30 -20q30 0 56.5 20t50 51t42.5 68.5t33 71.5q1 4 1.5 7t1.5 7q8 30 16.5 62t15 64t9.5 64.5t1 63.5q-1 10 -2.5 22t-8.5 19q-5 5 -8 9t-4 11
q-1 15 11 22t26 8q20 1 35 -13.5t23 -31.5q15 -33 17.5 -70t-2.5 -73q-1 -12 -5 -43t-13 -77t-24 -104t-38 -123q-8 -28 -19.5 -58.5t-25.5 -62.5q58 -13 110.5 -41.5t94.5 -78.5zM202 -234q55 11 96.5 46t72.5 83q-11 0 -23 -0.5t-24 -1.5q-59 -6 -106 -20q-20 -6 -39 -14
t-34.5 -19t-25.5 -24.5t-11 -30.5q6 -10 18 -15q11 -5 29 -7t47 3zM336 698q-3 1 -2 5.5t5 9.5t10 8.5t12 0.5q49 -22 81 -29t58 -9q11 -1 17 0.5t10.5 3.5t8 3.5t8.5 1.5q6 0 8 -7t-1.5 -17t-13 -21.5t-26.5 -19.5q-24 -12 -50 -4t-49.5 23t-43.5 30.5t-32 20.5z" />
    <glyph glyph-name="agrave" unicode="&#xe0;" horiz-adv-x="386" 
d="M293 302q3 0 6.5 0.5t7.5 0.5q12 0 24.5 -2.5t23.5 -10t18 -21.5t7 -37q0 -19 -4 -38q-8 -38 -15 -67t-11.5 -52.5t-7 -42t-2.5 -35.5q0 -18 3 -26.5t7 -12.5t8 -7t5 -10q0 -9 -13.5 -18.5t-35.5 -9.5t-44 15.5t-27 51.5q-17 -26 -44 -44.5t-69 -18.5q-38 0 -61.5 13
t-36 32.5t-17 42t-4.5 42.5q0 11 0.5 19.5t1.5 15.5q1 8 3 14q10 53 29 92t43 64.5t51.5 38t54.5 12.5q22 0 38 -5.5t27.5 -14.5t18 -19t10.5 -19q1 7 1.5 12t0.5 10q0 10 -3 15t-3 10q0 4 4 8q2 1 5 2zM264 151q1 5 1 18q0 10 -2 22t-7 22.5t-13 17t-21 6.5
q-14 0 -33.5 -13t-37.5 -38.5t-31 -63t-13 -86.5q0 -23 5 -35.5t11 -18.5q7 -7 16 -9q27 0 47.5 17.5t35 41t22.5 47t11 35.5q2 10 4.5 19t4.5 18zM355 347q-12 6 -37 8.5t-52.5 9t-51 19t-32.5 38.5q-6 18 -5 32.5t5.5 24t11 13t10.5 -0.5t5 -7.5t3 -8t5.5 -10t11.5 -12.5
q20 -17 47.5 -34.5t77.5 -36.5q6 -3 8 -9t1.5 -12.5t-3 -11t-5.5 -2.5z" />
    <glyph glyph-name="aacute" unicode="&#xe1;" horiz-adv-x="386" 
d="M293 302q3 0 6.5 0.5t7.5 0.5q12 0 24.5 -2.5t23.5 -10t18 -21.5t7 -37q0 -19 -4 -38q-8 -38 -15 -67t-11.5 -52.5t-7 -42t-2.5 -35.5q0 -18 3 -26.5t7 -12.5t8 -7t5 -10q0 -9 -13.5 -18.5t-35.5 -9.5t-44 15.5t-27 51.5q-17 -26 -44 -44.5t-69 -18.5q-38 0 -61.5 13
t-36 32.5t-17 42t-4.5 42.5q0 11 0.5 19.5t1.5 15.5q1 8 3 14q10 53 29 92t43 64.5t51.5 38t54.5 12.5q22 0 38 -5.5t27.5 -14.5t18 -19t10.5 -19q1 7 1.5 12t0.5 10q0 10 -3 15t-3 10q0 4 4 8q2 1 5 2zM264 151q1 5 1 18q0 10 -2 22t-7 22.5t-13 17t-21 6.5
q-14 0 -33.5 -13t-37.5 -38.5t-31 -63t-13 -86.5q0 -23 5 -35.5t11 -18.5q7 -7 16 -9q27 0 47.5 17.5t35 41t22.5 47t11 35.5q2 10 4.5 19t4.5 18zM178 431q-3 1 -2 5.5t5 9.5t10 8.5t12 0.5q49 -22 81 -29t58 -9q11 -1 17 0.5t10.5 3.5t8 3.5t8.5 1.5q6 0 8 -7t-1.5 -17
t-13 -21.5t-26.5 -19.5q-24 -12 -50 -4t-49.5 23t-43.5 30.5t-32 20.5z" />
    <glyph glyph-name="acircumflex" unicode="&#xe2;" horiz-adv-x="386" 
d="M293 302q3 0 6.5 0.5t7.5 0.5q12 0 24.5 -2.5t23.5 -10t18 -21.5t7 -37q0 -19 -4 -38q-8 -38 -15 -67t-11.5 -52.5t-7 -42t-2.5 -35.5q0 -18 3 -26.5t7 -12.5t8 -7t5 -10q0 -9 -13.5 -18.5t-35.5 -9.5t-44 15.5t-27 51.5q-17 -26 -44 -44.5t-69 -18.5q-38 0 -61.5 13
t-36 32.5t-17 42t-4.5 42.5q0 11 0.5 19.5t1.5 15.5q1 8 3 14q10 53 29 92t43 64.5t51.5 38t54.5 12.5q22 0 38 -5.5t27.5 -14.5t18 -19t10.5 -19q1 7 1.5 12t0.5 10q0 10 -3 15t-3 10q0 4 4 8q2 1 5 2zM264 151q1 5 1 18q0 10 -2 22t-7 22.5t-13 17t-21 6.5
q-14 0 -33.5 -13t-37.5 -38.5t-31 -63t-13 -86.5q0 -23 5 -35.5t11 -18.5q7 -7 16 -9q27 0 47.5 17.5t35 41t22.5 47t11 35.5q2 10 4.5 19t4.5 18zM205 369q-3 -1 -3.5 4t1 12t5 12.5t9.5 6.5q27 5 45 10q1 0 8.5 4t17.5 8t20 6.5t15 -0.5l28 -46q6 -8 13.5 -16t17.5 -18
q4 -4 3.5 -11t-3 -13t-6 -9.5t-4.5 -1.5q-9 10 -32.5 20.5t-44.5 28.5q-28 -2 -52.5 2.5t-37.5 0.5z" />
    <glyph glyph-name="atilde" unicode="&#xe3;" horiz-adv-x="386" 
d="M293 302q3 0 6.5 0.5t7.5 0.5q12 0 24.5 -2.5t23.5 -10t18 -21.5t7 -37q0 -19 -4 -38q-8 -38 -15 -67t-11.5 -52.5t-7 -42t-2.5 -35.5q0 -18 3 -26.5t7 -12.5t8 -7t5 -10q0 -9 -13.5 -18.5t-35.5 -9.5t-44 15.5t-27 51.5q-17 -26 -44 -44.5t-69 -18.5q-38 0 -61.5 13
t-36 32.5t-17 42t-4.5 42.5q0 11 0.5 19.5t1.5 15.5q1 8 3 14q10 53 29 92t43 64.5t51.5 38t54.5 12.5q22 0 38 -5.5t27.5 -14.5t18 -19t10.5 -19q1 7 1.5 12t0.5 10q0 10 -3 15t-3 10q0 4 4 8q2 1 5 2zM264 151q1 5 1 18q0 10 -2 22t-7 22.5t-13 17t-21 6.5
q-14 0 -33.5 -13t-37.5 -38.5t-31 -63t-13 -86.5q0 -23 5 -35.5t11 -18.5q7 -7 16 -9q27 0 47.5 17.5t35 41t22.5 47t11 35.5q2 10 4.5 19t4.5 18zM214 421q-11 5 -15.5 5.5t-9.5 -0.5q-4 -1 -6 3q-1 2 0 3q1 7 5 17t11.5 16.5t21 7t34.5 -10.5q42 -22 65 -33.5t43 -16.5
q7 -2 11.5 -1t7 2.5t4.5 3t6 1.5q4 -1 6.5 -7t2.5 -14.5t-4.5 -17.5t-14.5 -16q-15 -10 -39 -4t-49 18.5t-47.5 25.5t-32.5 18z" />
    <glyph glyph-name="adieresis" unicode="&#xe4;" horiz-adv-x="386" 
d="M293 302q3 0 6.5 0.5t7.5 0.5q12 0 24.5 -2.5t23.5 -10t18 -21.5t7 -37q0 -19 -4 -38q-8 -38 -15 -67t-11.5 -52.5t-7 -42t-2.5 -35.5q0 -18 3 -26.5t7 -12.5t8 -7t5 -10q0 -9 -13.5 -18.5t-35.5 -9.5t-44 15.5t-27 51.5q-17 -26 -44 -44.5t-69 -18.5q-38 0 -61.5 13
t-36 32.5t-17 42t-4.5 42.5q0 11 0.5 19.5t1.5 15.5q1 8 3 14q10 53 29 92t43 64.5t51.5 38t54.5 12.5q22 0 38 -5.5t27.5 -14.5t18 -19t10.5 -19q1 7 1.5 12t0.5 10q0 10 -3 15t-3 10q0 4 4 8q2 1 5 2zM264 151q1 5 1 18q0 10 -2 22t-7 22.5t-13 17t-21 6.5
q-14 0 -33.5 -13t-37.5 -38.5t-31 -63t-13 -86.5q0 -23 5 -35.5t11 -18.5q7 -7 16 -9q27 0 47.5 17.5t35 41t22.5 47t11 35.5q2 10 4.5 19t4.5 18zM241 358q-15 0 -24.5 13.5t-7.5 33.5q2 19 15 33t29 14t25 -14t7 -33q-2 -20 -15 -33.5t-29 -13.5zM327 322
q-15 0 -24.5 13.5t-7.5 33.5q2 19 15 33t29 14t25 -14t7 -33q-2 -20 -15 -33.5t-29 -13.5z" />
    <glyph glyph-name="aring" unicode="&#xe5;" horiz-adv-x="386" 
d="M293 302q3 0 6.5 0.5t7.5 0.5q12 0 24.5 -2.5t23.5 -10t18 -21.5t7 -37q0 -19 -4 -38q-8 -38 -15 -67t-11.5 -52.5t-7 -42t-2.5 -35.5q0 -18 3 -26.5t7 -12.5t8 -7t5 -10q0 -9 -13.5 -18.5t-35.5 -9.5t-44 15.5t-27 51.5q-17 -26 -44 -44.5t-69 -18.5q-38 0 -61.5 13
t-36 32.5t-17 42t-4.5 42.5q0 11 0.5 19.5t1.5 15.5q1 8 3 14q10 53 29 92t43 64.5t51.5 38t54.5 12.5q22 0 38 -5.5t27.5 -14.5t18 -19t10.5 -19q1 7 1.5 12t0.5 10q0 10 -3 15t-3 10q0 4 4 8q2 1 5 2zM264 151q1 5 1 18q0 10 -2 22t-7 22.5t-13 17t-21 6.5
q-14 0 -33.5 -13t-37.5 -38.5t-31 -63t-13 -86.5q0 -23 5 -35.5t11 -18.5q7 -7 16 -9q27 0 47.5 17.5t35 41t22.5 47t11 35.5q2 10 4.5 19t4.5 18zM275 334q-15 0 -24.5 13.5t-7.5 33.5q2 19 15 33t29 14t25 -14t7 -33q-2 -20 -15 -33.5t-29 -13.5zM277 353q13 0 15 16
t-11 16t-15 -16t11 -16z" />
    <glyph glyph-name="egrave" unicode="&#xe8;" horiz-adv-x="322" 
d="M163 -82q-35 2 -60 11.5t-41.5 23.5t-26 31t-14.5 35q-11 41 -2 93q8 56 32 98q10 18 24.5 35t35 30t46.5 20.5t59 6.5q26 -1 48.5 -13t35 -34t11 -54t-22.5 -73q-19 -35 -45 -46t-52 -10t-45 14t-23 24q-5 -18 -7 -39.5t3 -41t19 -33.5t42 -17q26 -3 47 5.5t37 19.5
t26 20t14 7q8 -5 6 -13q-1 -4 -3 -10q-14 -38 -38.5 -56.5t-47.5 -26.5q-27 -9 -58 -7zM230 246q-20 4 -36.5 -6.5t-29.5 -29t-22 -41t-14 -40.5h2q26 -2 53.5 10.5t44.5 45.5q10 20 11.5 31.5t-0.5 18.5q-3 8 -9 11zM314 347q-12 6 -37 8.5t-52.5 9t-51 19t-32.5 38.5
q-6 18 -5 32.5t5.5 24t11 13t10.5 -0.5t5 -7.5t3 -8t5.5 -10t11.5 -12.5q20 -17 47.5 -34.5t77.5 -36.5q6 -3 8 -9t1.5 -12.5t-3 -11t-5.5 -2.5z" />
    <glyph glyph-name="eacute" unicode="&#xe9;" horiz-adv-x="322" 
d="M163 -82q-35 2 -60 11.5t-41.5 23.5t-26 31t-14.5 35q-11 41 -2 93q8 56 32 98q10 18 24.5 35t35 30t46.5 20.5t59 6.5q26 -1 48.5 -13t35 -34t11 -54t-22.5 -73q-19 -35 -45 -46t-52 -10t-45 14t-23 24q-5 -18 -7 -39.5t3 -41t19 -33.5t42 -17q26 -3 47 5.5t37 19.5
t26 20t14 7q8 -5 6 -13q-1 -4 -3 -10q-14 -38 -38.5 -56.5t-47.5 -26.5q-27 -9 -58 -7zM230 246q-20 4 -36.5 -6.5t-29.5 -29t-22 -41t-14 -40.5h2q26 -2 53.5 10.5t44.5 45.5q10 20 11.5 31.5t-0.5 18.5q-3 8 -9 11zM135 431q-3 1 -2 5.5t5 9.5t10 8.5t12 0.5
q49 -22 81 -29t58 -9q11 -1 17 0.5t10.5 3.5t8 3.5t8.5 1.5q6 0 8 -7t-1.5 -17t-13 -21.5t-26.5 -19.5q-24 -12 -50 -4t-49.5 23t-43.5 30.5t-32 20.5z" />
    <glyph glyph-name="ecircumflex" unicode="&#xea;" horiz-adv-x="322" 
d="M163 -82q-35 2 -60 11.5t-41.5 23.5t-26 31t-14.5 35q-11 41 -2 93q8 56 32 98q10 18 24.5 35t35 30t46.5 20.5t59 6.5q26 -1 48.5 -13t35 -34t11 -54t-22.5 -73q-19 -35 -45 -46t-52 -10t-45 14t-23 24q-5 -18 -7 -39.5t3 -41t19 -33.5t42 -17q26 -3 47 5.5t37 19.5
t26 20t14 7q8 -5 6 -13q-1 -4 -3 -10q-14 -38 -38.5 -56.5t-47.5 -26.5q-27 -9 -58 -7zM230 246q-20 4 -36.5 -6.5t-29.5 -29t-22 -41t-14 -40.5h2q26 -2 53.5 10.5t44.5 45.5q10 20 11.5 31.5t-0.5 18.5q-3 8 -9 11zM155 369q-3 -1 -3.5 4t1 12t5 12.5t9.5 6.5q27 5 45 10
q1 0 8.5 4t17.5 8t20 6.5t15 -0.5l28 -46q6 -8 13.5 -16t17.5 -18q4 -4 3.5 -11t-3 -13t-6 -9.5t-4.5 -1.5q-9 10 -32.5 20.5t-44.5 28.5q-28 -2 -52.5 2.5t-37.5 0.5z" />
    <glyph glyph-name="edieresis" unicode="&#xeb;" horiz-adv-x="322" 
d="M163 -82q-35 2 -60 11.5t-41.5 23.5t-26 31t-14.5 35q-11 41 -2 93q8 56 32 98q10 18 24.5 35t35 30t46.5 20.5t59 6.5q26 -1 48.5 -13t35 -34t11 -54t-22.5 -73q-19 -35 -45 -46t-52 -10t-45 14t-23 24q-5 -18 -7 -39.5t3 -41t19 -33.5t42 -17q26 -3 47 5.5t37 19.5
t26 20t14 7q8 -5 6 -13q-1 -4 -3 -10q-14 -38 -38.5 -56.5t-47.5 -26.5q-27 -9 -58 -7zM230 246q-20 4 -36.5 -6.5t-29.5 -29t-22 -41t-14 -40.5h2q26 -2 53.5 10.5t44.5 45.5q10 20 11.5 31.5t-0.5 18.5q-3 8 -9 11zM208 358q-15 0 -24.5 13.5t-7.5 33.5q2 19 15 33t29 14
t25 -14t7 -33q-2 -20 -15 -33.5t-29 -13.5zM294 322q-15 0 -24.5 13.5t-7.5 33.5q2 19 15 33t29 14t25 -14t7 -33q-2 -20 -15 -33.5t-29 -13.5z" />
    <glyph glyph-name="igrave" unicode="&#xec;" horiz-adv-x="164" 
d="M61 244q4 22 2 30t-4 15q-2 4 -1 6.5t3 4.5t5 2q13 1 31 -0.5t32.5 -12t21.5 -33t-2 -62.5q-9 -41 -16 -71.5t-11.5 -54.5t-7 -43t-1.5 -37q0 -14 3.5 -20.5t7.5 -10.5t7.5 -7t4.5 -9q1 -7 -8 -14.5t-23.5 -11t-32 -0.5t-33.5 17t-21 38.5t-3.5 55t8.5 63.5t14.5 63
t14.5 54.5t9 37.5zM215 347q-12 6 -37 8.5t-52.5 9t-51 19t-32.5 38.5q-6 18 -5 32.5t5.5 24t11 13t10.5 -0.5t5 -7.5t3 -8t5.5 -10t11.5 -12.5q20 -17 47.5 -34.5t77.5 -36.5q6 -3 8 -9t1.5 -12.5t-3 -11t-5.5 -2.5z" />
    <glyph glyph-name="iacute" unicode="&#xed;" horiz-adv-x="164" 
d="M61 244q4 22 2 30t-4 15q-2 4 -1 6.5t3 4.5t5 2q13 1 31 -0.5t32.5 -12t21.5 -33t-2 -62.5q-9 -41 -16 -71.5t-11.5 -54.5t-7 -43t-1.5 -37q0 -14 3.5 -20.5t7.5 -10.5t7.5 -7t4.5 -9q1 -7 -8 -14.5t-23.5 -11t-32 -0.5t-33.5 17t-21 38.5t-3.5 55t8.5 63.5t14.5 63
t14.5 54.5t9 37.5zM39 431q-3 1 -2 5.5t5 9.5t10 8.5t12 0.5q49 -22 81 -29t58 -9q11 -1 17 0.5t10.5 3.5t8 3.5t8.5 1.5q6 0 8 -7t-1.5 -17t-13 -21.5t-26.5 -19.5q-24 -12 -50 -4t-49.5 23t-43.5 30.5t-32 20.5z" />
    <glyph glyph-name="icircumflex" unicode="&#xee;" horiz-adv-x="164" 
d="M61 244q4 22 2 30t-4 15q-2 4 -1 6.5t3 4.5t5 2q13 1 31 -0.5t32.5 -12t21.5 -33t-2 -62.5q-9 -41 -16 -71.5t-11.5 -54.5t-7 -43t-1.5 -37q0 -14 3.5 -20.5t7.5 -10.5t7.5 -7t4.5 -9q1 -7 -8 -14.5t-23.5 -11t-32 -0.5t-33.5 17t-21 38.5t-3.5 55t8.5 63.5t14.5 63
t14.5 54.5t9 37.5zM39 369q-3 -1 -3.5 4t1 12t5 12.5t9.5 6.5q27 5 45 10q1 0 8.5 4t17.5 8t20 6.5t15 -0.5l28 -46q6 -8 13.5 -16t17.5 -18q4 -4 3.5 -11t-3 -13t-6 -9.5t-4.5 -1.5q-9 10 -32.5 20.5t-44.5 28.5q-28 -2 -52.5 2.5t-37.5 0.5z" />
    <glyph glyph-name="idieresis" unicode="&#xef;" horiz-adv-x="164" 
d="M61 244q4 22 2 30t-4 15q-2 4 -1 6.5t3 4.5t5 2q13 1 31 -0.5t32.5 -12t21.5 -33t-2 -62.5q-9 -41 -16 -71.5t-11.5 -54.5t-7 -43t-1.5 -37q0 -14 3.5 -20.5t7.5 -10.5t7.5 -7t4.5 -9q1 -7 -8 -14.5t-23.5 -11t-32 -0.5t-33.5 17t-21 38.5t-3.5 55t8.5 63.5t14.5 63
t14.5 54.5t9 37.5zM90 358q-15 0 -24.5 13.5t-7.5 33.5q2 19 15 33t29 14t25 -14t7 -33q-2 -20 -15 -33.5t-29 -13.5zM176 322q-15 0 -24.5 13.5t-7.5 33.5q2 19 15 33t29 14t25 -14t7 -33q-2 -20 -15 -33.5t-29 -13.5z" />
    <glyph glyph-name="ntilde" unicode="&#xf1;" horiz-adv-x="360" 
d="M33 -64q-16 14 -21 39t-3.5 55.5t8.5 63.5t14.5 63t14.5 54.5t9 37.5q4 21 2 29l-4 16q-2 6 2 10q2 2 5 2q12 1 29 0t31 -9.5t22 -27t4 -51.5q26 38 58.5 65t70.5 25h1q1 0 2 -0.5t3 -0.5q7 -2 21.5 -8.5t26 -23.5t16 -48t-6.5 -81v1q-13 -56 -19.5 -91t-4.5 -64
q0 -14 3.5 -20.5t7 -10l7 -7t4.5 -9.5q1 -7 -8 -14.5t-23 -11t-31.5 -0.5t-33.5 17t-21.5 38.5t-4 54.5t8 62.5t14.5 62.5q1 5 3.5 16.5t3.5 23.5t-1 22.5t-9 13.5q-11 4 -31 -12t-40.5 -47.5t-36.5 -75.5t-19 -95v-8q1 -14 4 -20.5t7 -10t7.5 -7t4.5 -9.5q1 -7 -8 -14.5
t-23.5 -11t-32 -0.5t-33.5 17zM163 421q-11 5 -15.5 5.5t-9.5 -0.5q-4 -1 -6 3q-1 2 0 3q1 7 5 17t11.5 16.5t21 7t34.5 -10.5q42 -22 65 -33.5t43 -16.5q7 -2 11.5 -1t7 2.5t4.5 3t6 1.5q4 -1 6.5 -7t2.5 -14.5t-4.5 -17.5t-14.5 -16q-15 -10 -39 -4t-49 18.5t-47.5 25.5
t-32.5 18z" />
    <glyph glyph-name="ograve" unicode="&#xf2;" horiz-adv-x="326" 
d="M130 -79q-27 1 -46.5 10t-32.5 21.5t-21.5 28.5t-12.5 33q-11 39 -6 86q6 59 24 100.5t43.5 66.5t55.5 34.5t60 3.5q21 -4 36 -12.5t24.5 -19.5t14.5 -22t7 -20q2 0 2.5 -0.5t1.5 -0.5h2q7 -2 18.5 -13.5t13.5 -45.5q1 -17 -0.5 -36.5t-7.5 -44.5q-4 -18 -11.5 -39
t-19.5 -41t-29 -38.5t-40 -32.5q-15 -9 -33.5 -14.5t-42.5 -3.5zM108 88q-5 -40 0 -62t13 -33q9 -13 23 -16q20 -2 35.5 8t26.5 26t19 35t14 36q3 9 5.5 17.5t4.5 16.5q3 18 0 28.5t-8.5 16t-12.5 7t-13 1.5t-8 5q-1 3 0 6q2 20 9.5 31.5t17.5 16.5q-10 10 -24 13
q-14 2 -30 -6.5t-30.5 -28t-26 -49.5t-15.5 -69zM303 347q-12 6 -37 8.5t-52.5 9t-51 19t-32.5 38.5q-6 18 -5 32.5t5.5 24t11 13t10.5 -0.5t5 -7.5t3 -8t5.5 -10t11.5 -12.5q20 -17 47.5 -34.5t77.5 -36.5q6 -3 8 -9t1.5 -12.5t-3 -11t-5.5 -2.5z" />
    <glyph glyph-name="oacute" unicode="&#xf3;" horiz-adv-x="326" 
d="M130 -79q-27 1 -46.5 10t-32.5 21.5t-21.5 28.5t-12.5 33q-11 39 -6 86q6 59 24 100.5t43.5 66.5t55.5 34.5t60 3.5q21 -4 36 -12.5t24.5 -19.5t14.5 -22t7 -20q2 0 2.5 -0.5t1.5 -0.5h2q7 -2 18.5 -13.5t13.5 -45.5q1 -17 -0.5 -36.5t-7.5 -44.5q-4 -18 -11.5 -39
t-19.5 -41t-29 -38.5t-40 -32.5q-15 -9 -33.5 -14.5t-42.5 -3.5zM108 88q-5 -40 0 -62t13 -33q9 -13 23 -16q20 -2 35.5 8t26.5 26t19 35t14 36q3 9 5.5 17.5t4.5 16.5q3 18 0 28.5t-8.5 16t-12.5 7t-13 1.5t-8 5q-1 3 0 6q2 20 9.5 31.5t17.5 16.5q-10 10 -24 13
q-14 2 -30 -6.5t-30.5 -28t-26 -49.5t-15.5 -69zM133 431q-3 1 -2 5.5t5 9.5t10 8.5t12 0.5q49 -22 81 -29t58 -9q11 -1 17 0.5t10.5 3.5t8 3.5t8.5 1.5q6 0 8 -7t-1.5 -17t-13 -21.5t-26.5 -19.5q-24 -12 -50 -4t-49.5 23t-43.5 30.5t-32 20.5z" />
    <glyph glyph-name="ocircumflex" unicode="&#xf4;" horiz-adv-x="326" 
d="M130 -79q-27 1 -46.5 10t-32.5 21.5t-21.5 28.5t-12.5 33q-11 39 -6 86q6 59 24 100.5t43.5 66.5t55.5 34.5t60 3.5q21 -4 36 -12.5t24.5 -19.5t14.5 -22t7 -20q2 0 2.5 -0.5t1.5 -0.5h2q7 -2 18.5 -13.5t13.5 -45.5q1 -17 -0.5 -36.5t-7.5 -44.5q-4 -18 -11.5 -39
t-19.5 -41t-29 -38.5t-40 -32.5q-15 -9 -33.5 -14.5t-42.5 -3.5zM108 88q-5 -40 0 -62t13 -33q9 -13 23 -16q20 -2 35.5 8t26.5 26t19 35t14 36q3 9 5.5 17.5t4.5 16.5q3 18 0 28.5t-8.5 16t-12.5 7t-13 1.5t-8 5q-1 3 0 6q2 20 9.5 31.5t17.5 16.5q-10 10 -24 13
q-14 2 -30 -6.5t-30.5 -28t-26 -49.5t-15.5 -69zM142 369q-3 -1 -3.5 4t1 12t5 12.5t9.5 6.5q27 5 45 10q1 0 8.5 4t17.5 8t20 6.5t15 -0.5l28 -46q6 -8 13.5 -16t17.5 -18q4 -4 3.5 -11t-3 -13t-6 -9.5t-4.5 -1.5q-9 10 -32.5 20.5t-44.5 28.5q-28 -2 -52.5 2.5t-37.5 0.5z
" />
    <glyph glyph-name="otilde" unicode="&#xf5;" horiz-adv-x="326" 
d="M130 -79q-27 1 -46.5 10t-32.5 21.5t-21.5 28.5t-12.5 33q-11 39 -6 86q6 59 24 100.5t43.5 66.5t55.5 34.5t60 3.5q21 -4 36 -12.5t24.5 -19.5t14.5 -22t7 -20q2 0 2.5 -0.5t1.5 -0.5h2q7 -2 18.5 -13.5t13.5 -45.5q1 -17 -0.5 -36.5t-7.5 -44.5q-4 -18 -11.5 -39
t-19.5 -41t-29 -38.5t-40 -32.5q-15 -9 -33.5 -14.5t-42.5 -3.5zM108 88q-5 -40 0 -62t13 -33q9 -13 23 -16q20 -2 35.5 8t26.5 26t19 35t14 36q3 9 5.5 17.5t4.5 16.5q3 18 0 28.5t-8.5 16t-12.5 7t-13 1.5t-8 5q-1 3 0 6q2 20 9.5 31.5t17.5 16.5q-10 10 -24 13
q-14 2 -30 -6.5t-30.5 -28t-26 -49.5t-15.5 -69zM153 421q-11 5 -15.5 5.5t-9.5 -0.5q-4 -1 -6 3q-1 2 0 3q1 7 5 17t11.5 16.5t21 7t34.5 -10.5q42 -22 65 -33.5t43 -16.5q7 -2 11.5 -1t7 2.5t4.5 3t6 1.5q4 -1 6.5 -7t2.5 -14.5t-4.5 -17.5t-14.5 -16q-15 -10 -39 -4
t-49 18.5t-47.5 25.5t-32.5 18z" />
    <glyph glyph-name="odieresis" unicode="&#xf6;" horiz-adv-x="326" 
d="M130 -79q-27 1 -46.5 10t-32.5 21.5t-21.5 28.5t-12.5 33q-11 39 -6 86q6 59 24 100.5t43.5 66.5t55.5 34.5t60 3.5q21 -4 36 -12.5t24.5 -19.5t14.5 -22t7 -20q2 0 2.5 -0.5t1.5 -0.5h2q7 -2 18.5 -13.5t13.5 -45.5q1 -17 -0.5 -36.5t-7.5 -44.5q-4 -18 -11.5 -39
t-19.5 -41t-29 -38.5t-40 -32.5q-15 -9 -33.5 -14.5t-42.5 -3.5zM108 88q-5 -40 0 -62t13 -33q9 -13 23 -16q20 -2 35.5 8t26.5 26t19 35t14 36q3 9 5.5 17.5t4.5 16.5q3 18 0 28.5t-8.5 16t-12.5 7t-13 1.5t-8 5q-1 3 0 6q2 20 9.5 31.5t17.5 16.5q-10 10 -24 13
q-14 2 -30 -6.5t-30.5 -28t-26 -49.5t-15.5 -69zM197 358q-15 0 -24.5 13.5t-7.5 33.5q2 19 15 33t29 14t25 -14t7 -33q-2 -20 -15 -33.5t-29 -13.5zM283 322q-15 0 -24.5 13.5t-7.5 33.5q2 19 15 33t29 14t25 -14t7 -33q-2 -20 -15 -33.5t-29 -13.5z" />
    <glyph glyph-name="divide" unicode="&#xf7;" horiz-adv-x="311" 
d="M77 70q-13 0 -21 -1.5t-13 -3t-8.5 -3t-7.5 -1.5q-9 0 -11.5 16t-2.5 29q0 10 3 19t10.5 16t21 11.5t34.5 4.5h10.5t11.5 -1q42 -4 60 -6t26.5 -2.5t14.5 -1t23 -2.5q14 0 21 2.5t11.5 6t7.5 6.5t10 3q8 0 14 -10.5t6 -27.5q0 -10 -2.5 -22t-10 -22.5t-21 -17.5t-35.5 -7
q-18 0 -39 2t-41.5 5t-39.5 5.5t-32 2.5zM127 -67q-15 0 -24.5 13.5t-7.5 33.5q2 19 15 33t29 14t25 -14t7 -33q-2 -20 -15 -33.5t-29 -13.5zM174 186q-15 0 -24.5 13.5t-7.5 33.5q2 19 15 33t29 14t25 -14t7 -33q-2 -20 -15 -33.5t-29 -13.5z" />
    <glyph glyph-name="ugrave" unicode="&#xf9;" horiz-adv-x="370" 
d="M260 -189q-25 6 -37 25.5t-16.5 42.5t-3 47t3.5 39q-19 -23 -41.5 -37t-50.5 -13h-2q-23 1 -39.5 8t-27.5 16.5t-17 21.5t-9 23q-2 12 -2.5 24t-0.5 22q3 30 9.5 62t14 61t14.5 52t9 36q3 22 1 30t-4 15q-2 6 2 10q2 2 5 3q13 1 31.5 -0.5t32.5 -12t21 -33t-2 -62.5
q-11 -53 -19 -89t-13 -64q-4 -26 -1 -39.5t8 -20.5q5 -8 14 -9q16 -1 30 11t26 31.5t21.5 43.5t16.5 46q3 11 6 23t7 24q2 6 3 12t3 11v2q6 23 11 40t7 28q3 22 1 30t-4 15q-2 6 2 10q2 2 5 3q13 1 31.5 -0.5t32.5 -12t21 -33t-2 -62.5q-5 -21 -8.5 -39.5t-7.5 -34.5
q-2 -12 -5 -24t-6 -26q-4 -18 -8 -38t-9 -40q-6 -28 -7 -47.5t6 -29.5q5 -8 16 -11q16 -2 22.5 4t15.5 4q8 -2 10 -12q1 -4 0 -9q-8 -41 -27 -57.5t-39 -21.5q-24 -5 -51 2zM307 347q-12 6 -37 8.5t-52.5 9t-51 19t-32.5 38.5q-6 18 -5 32.5t5.5 24t11 13t10.5 -0.5t5 -7.5
t3 -8t5.5 -10t11.5 -12.5q20 -17 47.5 -34.5t77.5 -36.5q6 -3 8 -9t1.5 -12.5t-3 -11t-5.5 -2.5z" />
    <glyph glyph-name="uacute" unicode="&#xfa;" horiz-adv-x="370" 
d="M260 -189q-25 6 -37 25.5t-16.5 42.5t-3 47t3.5 39q-19 -23 -41.5 -37t-50.5 -13h-2q-23 1 -39.5 8t-27.5 16.5t-17 21.5t-9 23q-2 12 -2.5 24t-0.5 22q3 30 9.5 62t14 61t14.5 52t9 36q3 22 1 30t-4 15q-2 6 2 10q2 2 5 3q13 1 31.5 -0.5t32.5 -12t21 -33t-2 -62.5
q-11 -53 -19 -89t-13 -64q-4 -26 -1 -39.5t8 -20.5q5 -8 14 -9q16 -1 30 11t26 31.5t21.5 43.5t16.5 46q3 11 6 23t7 24q2 6 3 12t3 11v2q6 23 11 40t7 28q3 22 1 30t-4 15q-2 6 2 10q2 2 5 3q13 1 31.5 -0.5t32.5 -12t21 -33t-2 -62.5q-5 -21 -8.5 -39.5t-7.5 -34.5
q-2 -12 -5 -24t-6 -26q-4 -18 -8 -38t-9 -40q-6 -28 -7 -47.5t6 -29.5q5 -8 16 -11q16 -2 22.5 4t15.5 4q8 -2 10 -12q1 -4 0 -9q-8 -41 -27 -57.5t-39 -21.5q-24 -5 -51 2zM127 431q-3 1 -2 5.5t5 9.5t10 8.5t12 0.5q49 -22 81 -29t58 -9q11 -1 17 0.5t10.5 3.5t8 3.5
t8.5 1.5q6 0 8 -7t-1.5 -17t-13 -21.5t-26.5 -19.5q-24 -12 -50 -4t-49.5 23t-43.5 30.5t-32 20.5z" />
    <glyph glyph-name="ucircumflex" unicode="&#xfb;" horiz-adv-x="370" 
d="M260 -189q-25 6 -37 25.5t-16.5 42.5t-3 47t3.5 39q-19 -23 -41.5 -37t-50.5 -13h-2q-23 1 -39.5 8t-27.5 16.5t-17 21.5t-9 23q-2 12 -2.5 24t-0.5 22q3 30 9.5 62t14 61t14.5 52t9 36q3 22 1 30t-4 15q-2 6 2 10q2 2 5 3q13 1 31.5 -0.5t32.5 -12t21 -33t-2 -62.5
q-11 -53 -19 -89t-13 -64q-4 -26 -1 -39.5t8 -20.5q5 -8 14 -9q16 -1 30 11t26 31.5t21.5 43.5t16.5 46q3 11 6 23t7 24q2 6 3 12t3 11v2q6 23 11 40t7 28q3 22 1 30t-4 15q-2 6 2 10q2 2 5 3q13 1 31.5 -0.5t32.5 -12t21 -33t-2 -62.5q-5 -21 -8.5 -39.5t-7.5 -34.5
q-2 -12 -5 -24t-6 -26q-4 -18 -8 -38t-9 -40q-6 -28 -7 -47.5t6 -29.5q5 -8 16 -11q16 -2 22.5 4t15.5 4q8 -2 10 -12q1 -4 0 -9q-8 -41 -27 -57.5t-39 -21.5q-24 -5 -51 2zM147 369q-3 -1 -3.5 4t1 12t5 12.5t9.5 6.5q27 5 45 10q1 0 8.5 4t17.5 8t20 6.5t15 -0.5l28 -46
q6 -8 13.5 -16t17.5 -18q4 -4 3.5 -11t-3 -13t-6 -9.5t-4.5 -1.5q-9 10 -32.5 20.5t-44.5 28.5q-28 -2 -52.5 2.5t-37.5 0.5z" />
    <glyph glyph-name="udieresis" unicode="&#xfc;" horiz-adv-x="370" 
d="M260 -189q-25 6 -37 25.5t-16.5 42.5t-3 47t3.5 39q-19 -23 -41.5 -37t-50.5 -13h-2q-23 1 -39.5 8t-27.5 16.5t-17 21.5t-9 23q-2 12 -2.5 24t-0.5 22q3 30 9.5 62t14 61t14.5 52t9 36q3 22 1 30t-4 15q-2 6 2 10q2 2 5 3q13 1 31.5 -0.5t32.5 -12t21 -33t-2 -62.5
q-11 -53 -19 -89t-13 -64q-4 -26 -1 -39.5t8 -20.5q5 -8 14 -9q16 -1 30 11t26 31.5t21.5 43.5t16.5 46q3 11 6 23t7 24q2 6 3 12t3 11v2q6 23 11 40t7 28q3 22 1 30t-4 15q-2 6 2 10q2 2 5 3q13 1 31.5 -0.5t32.5 -12t21 -33t-2 -62.5q-5 -21 -8.5 -39.5t-7.5 -34.5
q-2 -12 -5 -24t-6 -26q-4 -18 -8 -38t-9 -40q-6 -28 -7 -47.5t6 -29.5q5 -8 16 -11q16 -2 22.5 4t15.5 4q8 -2 10 -12q1 -4 0 -9q-8 -41 -27 -57.5t-39 -21.5q-24 -5 -51 2zM187 358q-15 0 -24.5 13.5t-7.5 33.5q2 19 15 33t29 14t25 -14t7 -33q-2 -20 -15 -33.5t-29 -13.5z
M273 322q-15 0 -24.5 13.5t-7.5 33.5q2 19 15 33t29 14t25 -14t7 -33q-2 -20 -15 -33.5t-29 -13.5z" />
    <glyph glyph-name="yacute" unicode="&#xfd;" horiz-adv-x="367" 
d="M46 -365q-40 5 -69 23q-12 8 -23.5 19.5t-19.5 28t-11 38t2 50.5q1 9 7.5 26t22 33.5t42.5 27t70 5.5q26 -3 43 -13.5t26.5 -25.5t12 -32t1.5 -31q-2 -23 -12 -28.5t-14 -3.5q-3 1 -4.5 4t-2.5 6q-1 4 -2 7q-2 8 -6 16.5t-11.5 15.5t-19 11.5t-28.5 4.5q-24 -1 -39 -19
t-16 -40.5t14.5 -43t51.5 -25.5q30 -4 53 15t41 56.5t32.5 91.5t29.5 121q-20 -26 -44 -42.5t-53 -15.5h-3q-23 1 -39.5 8t-27 16.5t-16.5 21.5t-9 23q-3 12 -3.5 24t-0.5 22q3 30 9.5 62t14 61t14.5 52t9 36q3 22 1 30t-4 15q-2 6 2 10q2 2 5 3q13 1 31.5 -0.5t32.5 -12
t21 -33t-2 -62.5q-11 -53 -19 -89t-13 -64q-4 -26 -1 -39.5t8 -20.5q5 -8 14 -9q17 -1 32 12.5t27 34.5t21.5 46.5t16 48t10 39.5t4.5 21q4 23 6.5 41.5t3.5 26.5q2 22 0 30t-4 15q-2 6 2 10q2 2 5 2q13 2 31 0.5t32 -12t22 -33t2 -62.5q-15 -94 -33 -180q-8 -37 -18 -76
t-21.5 -75.5t-25 -69t-28.5 -56.5q-32 -51 -79 -77.5t-104 -19.5zM134 431q-3 1 -2 5.5t5 9.5t10 8.5t12 0.5q49 -22 81 -29t58 -9q11 -1 17 0.5t10.5 3.5t8 3.5t8.5 1.5q6 0 8 -7t-1.5 -17t-13 -21.5t-26.5 -19.5q-24 -12 -50 -4t-49.5 23t-43.5 30.5t-32 20.5z" />
    <glyph glyph-name="ydieresis" unicode="&#xff;" horiz-adv-x="367" 
d="M46 -365q-40 5 -69 23q-12 8 -23.5 19.5t-19.5 28t-11 38t2 50.5q1 9 7.5 26t22 33.5t42.5 27t70 5.5q26 -3 43 -13.5t26.5 -25.5t12 -32t1.5 -31q-2 -23 -12 -28.5t-14 -3.5q-3 1 -4.5 4t-2.5 6q-1 4 -2 7q-2 8 -6 16.5t-11.5 15.5t-19 11.5t-28.5 4.5q-24 -1 -39 -19
t-16 -40.5t14.5 -43t51.5 -25.5q30 -4 53 15t41 56.5t32.5 91.5t29.5 121q-20 -26 -44 -42.5t-53 -15.5h-3q-23 1 -39.5 8t-27 16.5t-16.5 21.5t-9 23q-3 12 -3.5 24t-0.5 22q3 30 9.5 62t14 61t14.5 52t9 36q3 22 1 30t-4 15q-2 6 2 10q2 2 5 3q13 1 31.5 -0.5t32.5 -12
t21 -33t-2 -62.5q-11 -53 -19 -89t-13 -64q-4 -26 -1 -39.5t8 -20.5q5 -8 14 -9q17 -1 32 12.5t27 34.5t21.5 46.5t16 48t10 39.5t4.5 21q4 23 6.5 41.5t3.5 26.5q2 22 0 30t-4 15q-2 6 2 10q2 2 5 2q13 2 31 0.5t32 -12t22 -33t2 -62.5q-15 -94 -33 -180q-8 -37 -18 -76
t-21.5 -75.5t-25 -69t-28.5 -56.5q-32 -51 -79 -77.5t-104 -19.5zM181 358q-15 0 -24.5 13.5t-7.5 33.5q2 19 15 33t29 14t25 -14t7 -33q-2 -20 -15 -33.5t-29 -13.5zM267 322q-15 0 -24.5 13.5t-7.5 33.5q2 19 15 33t29 14t25 -14t7 -33q-2 -20 -15 -33.5t-29 -13.5z" />
    <glyph glyph-name="circumflex" unicode="&#x2c6;" horiz-adv-x="221" 
d="M19 369q-3 -1 -3.5 4t1 12t5 12.5t9.5 6.5q27 5 45 10q1 0 8.5 4t17.5 8t20 6.5t15 -0.5l28 -46q6 -8 13.5 -16t17.5 -18q4 -4 3.5 -11t-3 -13t-6 -9.5t-4.5 -1.5q-9 10 -32.5 20.5t-44.5 28.5q-28 -2 -52.5 2.5t-37.5 0.5z" />
    <glyph glyph-name="ring" unicode="&#x2da;" horiz-adv-x="112" 
d="M50 334q-15 0 -24.5 13.5t-7.5 33.5q2 19 15 33t29 14t25 -14t7 -33q-2 -20 -15 -33.5t-29 -13.5zM52 353q13 0 15 16t-11 16t-15 -16t11 -16z" />
    <glyph glyph-name="tilde" unicode="&#x2dc;" horiz-adv-x="252" 
d="M44 421q-11 5 -15.5 5.5t-9.5 -0.5q-4 -1 -6 3q-1 2 0 3q1 7 5 17t11.5 16.5t21 7t34.5 -10.5q42 -22 65 -33.5t43 -16.5q7 -2 11.5 -1t7 2.5t4.5 3t6 1.5q4 -1 6.5 -7t2.5 -14.5t-4.5 -17.5t-14.5 -16q-15 -10 -39 -4t-49 18.5t-47.5 25.5t-32.5 18z" />
    <glyph glyph-name="quoteright" unicode="&#x2019;" horiz-adv-x="196" 
d="M228 404q4 29 3 48.5t1 39.5q2 19 15 33t29 14t25 -14t7 -33q-1 -10 -14 -28t-28 -34t-27 -25t-11 -1z" />
    <glyph glyph-name="minus" unicode="&#x2212;" horiz-adv-x="317" 
d="M80 70q-13 0 -21 -1.5t-13 -3t-8.5 -3t-7.5 -1.5q-9 0 -11.5 16t-2.5 29q0 10 3 19t10.5 16t21 11.5t34.5 4.5h10.5t11.5 -1q42 -4 60 -6t26.5 -2.5t14.5 -1t23 -2.5q14 0 21 2.5t11.5 6t7.5 6.5t10 3q8 0 14 -10.5t6 -27.5q0 -10 -2.5 -22t-10 -22.5t-21 -17.5t-35.5 -7
q-18 0 -39 2t-41.5 5t-39.5 5.5t-32 2.5z" />
    </font>
</defs>
</svg>
